<?xml version="1.0" encoding="iso-8859-1"?>
<!-- Generator: Adobe Illustrator 19.0.0, SVG Export Plug-In . SVG Version: 6.00 Build 0)  -->
<svg version="1.1" id="Capa_1" xmlns="http://www.w3.org/2000/svg" xmlns:xlink="http://www.w3.org/1999/xlink" x="0px" y="0px"
	 viewBox="0 0 440.307 440.307" style="enable-background:new 0 0 440.307 440.307;" xml:space="preserve">
<g>
	<path d="M359.189,76.736c-4.117-0.452-7.821,2.523-8.271,6.64c-3.521,32.199-25.878,57.838-54.882,67.185v-74.67
		C296.036,34.045,261.992,0,220.146,0c-41.837,0-75.874,34.045-75.874,75.892v74.672c-29.004-9.347-51.363-34.987-54.883-67.187
		c-0.45-4.117-4.155-7.092-8.271-6.64c-4.118,0.45-7.091,4.153-6.641,8.271c4.367,39.941,33.122,71.393,69.794,81.187v72.869
		c0,4.142,3.358,7.5,7.5,7.5c4.142,0,7.499-3.357,7.5-7.499l0-70.13c3.05,0.301,6.134,0.463,9.248,0.463
		c0.679,0,1.36-0.013,2.041-0.028v69.695v19.999c0,12.753,4.841,24.394,12.779,33.189l6.635,126.359l-21.447,7.071
		c-3.934,1.297-6.071,5.537-4.774,9.471c1.04,3.154,3.973,5.154,7.122,5.154c0.779,0,1.57-0.122,2.35-0.379l26.889-8.865
		c3.212-1.059,5.318-4.138,5.141-7.516l-6.283-119.653c6.428,3.049,13.608,4.762,21.182,4.762c7.575,0,14.755-1.713,21.182-4.763
		l-6.283,119.653c-0.177,3.378,1.929,6.457,5.141,7.516l26.889,8.865c0.78,0.257,1.571,0.379,2.35,0.379
		c3.149,0,6.082-2,7.122-5.154c1.297-3.934-0.841-8.174-4.774-9.471l-21.447-7.071l6.635-126.359
		c7.937-8.796,12.778-20.437,12.778-33.189l0-19.999l0-69.695c0.681,0.015,1.362,0.028,2.041,0.028c3.114,0,6.198-0.162,9.249-0.463
		v70.129c0.001,4.143,3.358,7.5,7.5,7.5c4.142,0,7.5-3.358,7.5-7.5v-72.87c36.67-9.796,65.427-41.249,69.793-81.186
		C366.28,80.889,363.307,77.187,359.189,76.736z M239.199,106.277c-5.526,3.474-12.058,5.489-19.054,5.489
		c-6.997,0-13.531-2.018-19.058-5.498c-8.245-5.192-14.246-13.641-16.172-23.53c10.839-1.754,20.53-6.956,27.939-14.424
		c2.766-2.788,5.224-5.882,7.291-9.245c2.067,3.363,4.525,6.457,7.292,9.245c7.411,7.469,17.104,12.671,27.943,14.424
		C253.46,92.633,247.455,101.086,239.199,106.277z M185.56,259.063v-97.658c0-0.029,0.003-0.058,0.003-0.088
		c0.031-5.126,4.207-9.287,9.34-9.287h50.5c5.133,0,9.309,4.161,9.34,9.287c0,0.03,0.003,0.058,0.003,0.088l0,97.658
		c0,19.075-15.518,34.593-34.593,34.593S185.56,278.138,185.56,259.063z M268.699,154.312c-3.034-9.989-12.327-17.281-23.295-17.281
		h-50.5c-10.968,0-20.261,7.292-23.295,17.282c-4.174,0.161-8.294-0.007-12.337-0.483V75.892c0-31.034,23.336-56.702,53.374-60.413
		V32.5c0,19.791-16.101,35.891-35.891,35.891c-1.99,0-3.898,0.791-5.305,2.198s-2.196,3.317-2.195,5.307
		c0.02,28.05,22.849,50.869,50.891,50.869c28.061,0,50.891-22.822,50.892-50.874c0-1.989-0.79-3.897-2.197-5.303
		c-1.406-1.406-3.314-2.197-5.303-2.197c-19.791,0-35.892-16.101-35.892-35.891V15.478c30.047,3.71,53.391,29.378,53.391,60.413
		v77.937C276.993,154.304,272.873,154.473,268.699,154.312z"/>
	<path d="M227.654,232.804v-6.5h4.59c4.142,0,7.5-3.358,7.5-7.5s-3.358-7.5-7.5-7.5h-4.59v-36.774c0-4.142-3.358-7.5-7.5-7.5
		s-7.5,3.358-7.5,7.5v36.774h-4.59c-4.142,0-7.5,3.358-7.5,7.5s3.358,7.5,7.5,7.5h4.59v6.5c0,4.142,3.358,7.5,7.5,7.5
		S227.654,236.946,227.654,232.804z"/>
</g>
<g>
</g>
<g>
</g>
<g>
</g>
<g>
</g>
<g>
</g>
<g>
</g>
<g>
</g>
<g>
</g>
<g>
</g>
<g>
</g>
<g>
</g>
<g>
</g>
<g>
</g>
<g>
</g>
<g>
</g>
</svg>
