<?xml version="1.0" encoding="iso-8859-1"?>
<!-- Generator: Adobe Illustrator 19.0.0, SVG Export Plug-In . SVG Version: 6.00 Build 0)  -->
<svg version="1.1" id="Capa_1" xmlns="http://www.w3.org/2000/svg" xmlns:xlink="http://www.w3.org/1999/xlink" x="0px" y="0px"
	 viewBox="0 0 434.643 434.643" style="enable-background:new 0 0 434.643 434.643;" xml:space="preserve">
<g>
	<path d="M144.792,61.64h22.352c-0.479,2.82-0.734,5.686-0.734,8.587c0,28.052,22.822,50.875,50.875,50.875
		c28.062,0,50.891-22.822,50.891-50.875c0-2.902-0.255-5.768-0.735-8.587h22.352c4.143,0,7.5-3.358,7.5-7.5s-3.357-7.5-7.5-7.5
		h-26.539l-8.266-29.053c-3.653-12.833-17.063-20.302-29.898-16.652c-2.847,0.81-5.478,2.114-7.796,3.837
		c-2.318-1.722-4.95-3.027-7.796-3.837c-6.218-1.77-12.751-1.011-18.397,2.134c-5.647,3.145-9.731,8.301-11.5,14.518l-8.267,29.053
		h-26.539c-4.142,0-7.5,3.358-7.5,7.5S140.65,61.64,144.792,61.64z M198.398,16.174c2.146-1.196,4.63-1.483,6.993-0.811
		c2.289,0.651,4.213,2.151,5.42,4.223c1.344,2.307,3.812,3.726,6.481,3.726c2.67,0,5.138-1.419,6.481-3.726
		c1.206-2.072,3.131-3.572,5.42-4.223c4.878-1.386,9.978,1.452,11.365,6.33l7.098,24.948h-60.73l7.099-24.948
		C194.699,19.33,196.251,17.37,198.398,16.174z M181.41,70.228c0-2.924,0.349-5.796,1.034-8.587h69.698
		c0.685,2.791,1.034,5.664,1.034,8.587c0,19.781-16.101,35.875-35.891,35.875C197.503,106.102,181.41,90.009,181.41,70.228z"/>
	<path d="M317.159,203.8c-7.531-22.68-22.989-41.296-43.743-52.842c-2.216-11.156-12.077-19.592-23.874-19.592h-8.203h-17.416
		c-1.258-2.378-3.753-4-6.631-4c-2.877,0-5.373,1.622-6.631,4h-17.416h-8.204c-11.795,0-21.654,8.433-23.873,19.586
		c-43.971,24.489-61.3,79.699-38.524,125.119c1.315,2.624,3.962,4.14,6.71,4.14c1.13,0,2.277-0.257,3.356-0.797
		c3.703-1.857,5.199-6.364,3.342-10.066c-17.761-35.419-6.537-77.907,24.646-100.35v84.401c0,4.142,3.358,7.5,7.5,7.5h0.067
		c1.492,9.793,5.861,18.651,12.211,25.689l6.635,126.359l-21.447,7.071c-3.934,1.297-6.071,5.537-4.774,9.471
		c1.04,3.154,3.973,5.154,7.122,5.154c0.779,0,1.57-0.122,2.35-0.379l26.889-8.865c3.212-1.059,5.318-4.138,5.141-7.516
		L196.11,298.23c6.428,3.049,13.608,4.763,21.182,4.763c7.575,0,14.755-1.713,21.183-4.763l-6.283,119.653
		c-0.178,3.378,1.928,6.457,5.141,7.516l26.889,8.865c0.78,0.257,1.571,0.379,2.35,0.379c3.149,0,6.082-2,7.122-5.154
		c1.297-3.934-0.841-8.174-4.774-9.471l-21.447-7.071l6.635-126.359c6.35-7.038,10.719-15.896,12.211-25.689h0.067
		c4.143,0,7.5-3.358,7.5-7.5V168.99c13.551,9.72,23.682,23.403,29.039,39.537c6.706,20.197,5.146,41.797-4.394,60.821
		c-1.856,3.703-0.36,8.209,3.342,10.066c1.079,0.541,2.227,0.797,3.356,0.797c2.748,0,5.395-1.516,6.71-4.14
		C323.275,253.466,325.128,227.8,317.159,203.8z M217.292,287.992c-16.499,0-30.328-11.614-33.764-27.093h9.718
		c4.142,0,7.5-3.358,7.5-7.5V146.366h9.046v81.774c0,4.142,3.358,7.5,7.5,7.5c4.143,0,7.5-3.358,7.5-7.5v-81.774h9.047v107.033
		c0,4.142,3.357,7.5,7.5,7.5h9.718C247.62,276.379,233.791,287.992,217.292,287.992z M258.885,155.71v90.189h-10.046v-99.533h0.703
		C254.694,146.366,258.885,150.558,258.885,155.71z M185.746,245.899h-10.046V155.71c0-5.152,4.191-9.343,9.343-9.343h0.704V245.899
		z"/>
</g>
<g>
</g>
<g>
</g>
<g>
</g>
<g>
</g>
<g>
</g>
<g>
</g>
<g>
</g>
<g>
</g>
<g>
</g>
<g>
</g>
<g>
</g>
<g>
</g>
<g>
</g>
<g>
</g>
<g>
</g>
</svg>
