<?xml version="1.0" encoding="iso-8859-1"?>
<!-- Generator: Adobe Illustrator 19.0.0, SVG Export Plug-In . SVG Version: 6.00 Build 0)  -->
<svg version="1.1" id="Capa_1" xmlns="http://www.w3.org/2000/svg" xmlns:xlink="http://www.w3.org/1999/xlink" x="0px" y="0px"
	 viewBox="0 0 434.273 434.273" style="enable-background:new 0 0 434.273 434.273;" xml:space="preserve">
<g>
	<path d="M191.375,120.732c27.972,0,50.739-22.679,50.884-50.608c0.001-0.036,0.008-0.07,0.009-0.105l0.809-37.732
		c0.187-8.664-5.742-17.619-13.79-20.832L204.118,1.407C201.779,0.473,199.215,0,196.494,0c-6.378,0-12.785,2.688-16.721,7.013
		l-25.4,27.914c-0.029,0.032-0.052,0.068-0.081,0.1c-8.893,9.47-13.792,21.825-13.792,34.83
		C140.5,97.91,163.322,120.732,191.375,120.732z M198.556,15.337l25.169,10.048c2.208,0.882,4.406,4.202,4.355,6.579l-0.577,26.917
		l-54.755-21.86l18.12-19.913c1.111-1.222,3.478-2.108,5.626-2.108C197.278,15,198.011,15.12,198.556,15.337z M191.375,105.732
		c-19.781,0-35.875-16.093-35.875-35.875c0-7.573,2.357-14.833,6.707-20.894l64.71,25.835
		C224.5,92.249,209.487,105.732,191.375,105.732z"/>
	<path d="M330.419,70.703c-4.134-0.45-7.821,2.524-8.271,6.641c-4.568,41.782-40.852,72.526-82.219,70.935
		c-2.993-9.854-12.079-17.076-22.853-17.27c-0.017-0.001-0.033,0-0.05-0.001c-0.131-0.002-0.261-0.01-0.393-0.01h-50.5
		c-0.139,0-0.276,0.008-0.414,0.01c-10.791,0.192-19.873,7.403-22.874,17.245c-25.708,3.187-45.676,25.152-45.676,51.708
		c0,25.882,18.966,47.408,43.727,51.435c-2.634,21.425-9.868,80.24-9.958,80.961c-0.262,2.132,0.403,4.275,1.826,5.885
		c1.424,1.609,3.47,2.531,5.618,2.531h19.05l1.47,27.997c-3.123,1.039-5.302,4.056-5.121,7.502c0.181,3.447,2.663,6.222,5.878,6.928
		l1.543,29.379l-21.447,7.071c-3.934,1.297-6.071,5.538-4.774,9.472c1.04,3.154,3.973,5.153,7.122,5.153
		c0.778,0,1.57-0.122,2.35-0.379l26.889-8.866c3.213-1.06,5.318-4.138,5.141-7.516l-1.843-35.103
		c3.124-1.039,5.303-4.056,5.122-7.503c-0.181-3.447-2.665-6.217-5.879-6.924l-1.429-27.211h37.86l-1.429,27.211
		c-3.219,0.707-5.698,3.477-5.879,6.925c-0.181,3.446,1.998,6.464,5.121,7.503l-1.843,35.103c-0.178,3.378,1.928,6.457,5.141,7.516
		l26.889,8.866c0.78,0.257,1.571,0.379,2.35,0.379c3.149,0,6.082-2,7.122-5.153c1.297-3.934-0.841-8.174-4.774-9.472l-21.447-7.071
		l1.542-29.379c3.215-0.706,5.698-3.481,5.879-6.928c0.181-3.446-1.998-6.464-5.121-7.503l1.47-27.996h19.051
		c2.148,0,4.194-0.921,5.618-2.531c1.423-1.61,2.088-3.752,1.826-5.885l-10.862-88.295c0.006-0.157,0.009-0.317,0.009-0.479
		l0.003-80.241c0.718,0.016,1.436,0.029,2.153,0.029c21.453,0,42.12-7.237,59.09-20.862c19.719-15.832,32.092-38.396,34.841-63.534
		C337.509,74.855,334.536,71.153,330.419,70.703z M146.862,325.771l7.818-63.575l9.744,11.193v9.216
		c0,14.428,11.738,26.166,26.166,26.166s26.165-11.738,26.165-26.166v-9.071l11.237-12.063l7.91,64.301H146.862z M156.789,155.34
		c0-3.65,2.109-6.81,5.168-8.346l21.926,44.524v45.564h-27.094V155.34z M191.383,172.794l-13.196-26.797h26.393L191.383,172.794z
		 M179.425,282.605v-4.523h22.331v4.523c0,6.157-5.009,11.166-11.165,11.166C184.434,293.771,179.425,288.762,179.425,282.605z
		 M205.992,263.082H175.34l-9.576-11h50.475L205.992,263.082z M198.883,237.082v-45.564l21.926-44.524
		c3.04,1.527,5.138,4.657,5.165,8.279c0,0.043,0.003,0.086,0.003,0.129c0,2.017,0,60.587-0.002,81.68H198.883z M112.169,199.96
		c0-17.9,12.735-32.88,29.62-36.358v72.716C124.904,232.84,112.169,217.86,112.169,199.96z"/>
</g>
<g>
</g>
<g>
</g>
<g>
</g>
<g>
</g>
<g>
</g>
<g>
</g>
<g>
</g>
<g>
</g>
<g>
</g>
<g>
</g>
<g>
</g>
<g>
</g>
<g>
</g>
<g>
</g>
<g>
</g>
</svg>
