<?xml version="1.0" encoding="iso-8859-1"?>
<!-- Generator: Adobe Illustrator 19.0.0, SVG Export Plug-In . SVG Version: 6.00 Build 0)  -->
<svg version="1.1" id="Capa_1" xmlns="http://www.w3.org/2000/svg" xmlns:xlink="http://www.w3.org/1999/xlink" x="0px" y="0px"
	 viewBox="0 0 480.664 480.664" style="enable-background:new 0 0 480.664 480.664;" xml:space="preserve">
<g>
	<path d="M291.959,433.361l-21.447-7.071l6.634-126.358c7.938-8.796,12.779-20.437,12.779-33.19l0.001-89.689
		c0.718,0.016,1.436,0.029,2.152,0.029c21.453,0,42.12-7.237,59.09-20.862c19.719-15.832,32.092-38.396,34.841-63.534
		c0.449-4.118-2.523-7.82-6.641-8.271c-4.134-0.453-7.821,2.524-8.271,6.641c-4.568,41.782-40.852,72.529-82.219,70.935
		c-3.034-9.99-12.328-17.282-23.296-17.282h-50.5c-10.968,0-20.261,7.292-23.296,17.282c-41.355,1.592-77.651-29.154-82.219-70.935
		c-0.45-4.117-4.134-7.093-8.271-6.641c-4.117,0.45-7.09,4.153-6.641,8.271c2.749,25.139,15.122,47.702,34.841,63.534
		c16.971,13.626,37.635,20.862,59.09,20.862c0.716,0,1.434-0.013,2.152-0.029v89.689c0,12.753,4.842,24.394,12.779,33.19
		l6.635,126.358l-21.447,7.071c-3.934,1.297-6.071,5.538-4.774,9.472c1.04,3.154,3.973,5.153,7.122,5.153
		c0.778,0,1.57-0.122,2.35-0.379l26.889-8.865c3.213-1.06,5.318-4.138,5.141-7.516l-6.283-119.653
		c6.428,3.05,13.609,4.763,21.184,4.763c7.575,0,14.755-1.713,21.183-4.763l-6.282,119.653c-0.178,3.378,1.928,6.457,5.141,7.516
		l26.889,8.865c0.78,0.257,1.571,0.379,2.35,0.379c3.149,0,6.082-2,7.122-5.153C298.03,438.898,295.893,434.658,291.959,433.361z
		 M274.926,169.052l-0.001,90.189h-69.187v-90.189c0-5.152,4.191-9.343,9.344-9.343h50.5
		C270.734,159.709,274.926,163.9,274.926,169.052z M206.567,274.241h67.53c-3.437,15.479-17.266,27.093-33.764,27.093
		C223.833,301.335,210.003,289.721,206.567,274.241z"/>
	<path d="M241.324,134.445c28.062,0,50.891-22.822,50.891-50.875c0-28.062-22.829-50.892-50.891-50.892
		c-28.053,0-50.875,22.83-50.875,50.892C190.449,111.622,213.271,134.445,241.324,134.445z M277.215,83.57
		c0,19.781-16.101,35.875-35.891,35.875c-19.781,0-35.875-16.093-35.875-35.875c0-19.791,16.094-35.892,35.875-35.892
		C261.114,47.678,277.215,63.78,277.215,83.57z"/>
	<path d="M174.054,224.019c-4.13-0.453-7.821,2.524-8.271,6.641c-1.299,11.886-7.149,22.555-16.473,30.041
		c-7.976,6.404-17.68,9.812-27.758,9.853c-2.758-6.123-8.904-10.402-16.043-10.402H75.231c-7.139,0-13.286,4.28-16.043,10.402
		c-10.08-0.041-19.782-3.448-27.758-9.853c-9.323-7.486-15.174-18.154-16.473-30.041c-0.45-4.117-4.132-7.093-8.271-6.641
		c-4.117,0.45-7.09,4.153-6.641,8.271c1.735,15.869,9.546,30.113,21.993,40.107c10.264,8.24,22.664,12.766,35.595,13.133v50.787
		c0,8.026,2.908,15.382,7.72,21.083l3.804,72.439l-10.68,3.521c-3.934,1.297-6.071,5.538-4.774,9.472
		c1.04,3.154,3.973,5.153,7.122,5.153c0.778,0,1.57-0.122,2.35-0.379l16.121-5.315c3.213-1.06,5.318-4.138,5.141-7.517
		l-3.525-67.119c2.996,0.906,6.17,1.399,9.458,1.399c3.288,0,6.463-0.493,9.459-1.399l-3.525,67.119
		c-0.178,3.378,1.928,6.457,5.141,7.517l16.121,5.315c0.78,0.257,1.571,0.379,2.35,0.379c3.149,0,6.082-2,7.122-5.153
		c1.297-3.934-0.841-8.174-4.774-9.472l-10.68-3.521l3.804-72.439c4.812-5.7,7.72-13.056,7.72-21.083V285.53
		c12.93-0.367,25.332-4.894,35.595-13.133c12.447-9.995,20.258-24.238,21.993-40.107
		C181.144,228.172,178.171,224.469,174.054,224.019z M72.633,336.318v-58.569c0-1.408,1.19-2.598,2.599-2.598h30.276
		c1.408,0,2.599,1.19,2.599,2.598v58.569c0,9.78-7.957,17.737-17.737,17.737S72.633,346.098,72.633,336.318z"/>
	<path d="M90.965,254.89c18.479,0,33.514-15.03,33.514-33.505c0-18.48-15.034-33.515-33.514-33.515
		c-18.475,0-33.505,15.035-33.505,33.515C57.46,239.86,72.49,254.89,90.965,254.89z M109.478,221.385
		c0,10.204-8.306,18.505-18.514,18.505c-10.204,0-18.505-8.301-18.505-18.505c0-10.209,8.301-18.515,18.505-18.515
		C101.173,202.87,109.478,211.176,109.478,221.385z"/>
	<path d="M473.978,224.019c-4.136-0.453-7.821,2.524-8.271,6.641c-1.299,11.886-7.149,22.555-16.473,30.041
		c-7.976,6.404-17.679,9.812-27.758,9.853c-2.758-6.123-8.904-10.402-16.043-10.402h-30.276c-7.139,0-13.286,4.28-16.043,10.402
		c-10.079-0.041-19.782-3.448-27.758-9.853c-9.323-7.486-15.174-18.154-16.473-30.041c-0.45-4.117-4.138-7.093-8.271-6.641
		c-4.117,0.45-7.09,4.153-6.641,8.271c1.735,15.869,9.546,30.113,21.993,40.107c10.264,8.24,22.664,12.766,35.595,13.133v50.787
		c0,8.026,2.908,15.382,7.72,21.083l3.804,72.439l-10.68,3.521c-3.934,1.297-6.071,5.538-4.774,9.472
		c1.04,3.154,3.973,5.153,7.122,5.153c0.778,0,1.57-0.122,2.35-0.379l16.121-5.315c3.213-1.06,5.318-4.138,5.141-7.517
		l-3.525-67.119c2.996,0.906,6.17,1.399,9.458,1.399c3.288,0,6.463-0.493,9.459-1.399l-3.525,67.119
		c-0.178,3.378,1.928,6.457,5.141,7.517l16.121,5.315c0.78,0.257,1.571,0.379,2.35,0.379c3.149,0,6.082-2,7.122-5.153
		c1.297-3.934-0.841-8.174-4.774-9.472l-10.68-3.521l3.804-72.439c4.812-5.7,7.72-13.056,7.72-21.083V285.53
		c12.93-0.367,25.332-4.894,35.595-13.133c12.447-9.995,20.258-24.238,21.993-40.107
		C481.068,228.172,478.096,224.469,473.978,224.019z M372.558,336.318v-58.569c0-1.408,1.19-2.598,2.599-2.598h30.276
		c1.408,0,2.599,1.19,2.599,2.598v58.569c0,9.78-7.957,17.737-17.737,17.737S372.558,346.098,372.558,336.318z"/>
	<path d="M357.385,221.385c0,18.475,15.03,33.505,33.505,33.505c18.479,0,33.514-15.03,33.514-33.505
		c0-18.48-15.034-33.515-33.514-33.515C372.415,187.87,357.385,202.905,357.385,221.385z M409.403,221.385
		c0,10.204-8.306,18.505-18.514,18.505c-10.204,0-18.505-8.301-18.505-18.505c0-10.209,8.301-18.515,18.505-18.515
		C401.098,202.87,409.403,211.176,409.403,221.385z"/>
</g>
<g>
</g>
<g>
</g>
<g>
</g>
<g>
</g>
<g>
</g>
<g>
</g>
<g>
</g>
<g>
</g>
<g>
</g>
<g>
</g>
<g>
</g>
<g>
</g>
<g>
</g>
<g>
</g>
<g>
</g>
</svg>
