<?xml version="1.0" encoding="iso-8859-1"?>
<!-- Generator: Adobe Illustrator 19.0.0, SVG Export Plug-In . SVG Version: 6.00 Build 0)  -->
<svg version="1.1" id="Capa_1" xmlns="http://www.w3.org/2000/svg" xmlns:xlink="http://www.w3.org/1999/xlink" x="0px" y="0px"
	 viewBox="0 0 450.303 450.303" style="enable-background:new 0 0 450.303 450.303;" xml:space="preserve">
<g>
	<path d="M276.778,435.678l-21.447-7.071l6.635-126.359c6.35-7.038,10.719-15.896,12.211-25.689h0.067c4.143,0,7.5-3.358,7.5-7.5
		V247.1c0-0.039,0-47.749,0-47.749v-27.982c0-13.423-10.92-24.343-24.343-24.343h-25.619c-1.258-2.378-3.753-4-6.631-4
		s-5.373,1.622-6.631,4h-25.619c-13.423,0-24.343,10.92-24.343,24.343v27.982v69.707c0,4.142,3.357,7.5,7.5,7.5h0.067
		c1.492,9.793,5.861,18.651,12.211,25.689l6.635,126.359l-21.447,7.071c-3.934,1.297-6.071,5.537-4.774,9.471
		c1.04,3.154,3.973,5.154,7.122,5.154c0.778,0,1.57-0.122,2.35-0.379l26.889-8.865c3.213-1.059,5.318-4.138,5.141-7.516
		l-6.283-119.653c6.428,3.05,13.609,4.763,21.183,4.763s14.755-1.713,21.183-4.763l-6.283,119.653
		c-0.178,3.378,1.928,6.457,5.141,7.516l26.889,8.865c0.78,0.257,1.571,0.379,2.35,0.379c3.149,0,6.082-2,7.122-5.154
		C282.85,441.215,280.712,436.975,276.778,435.678z M191.387,276.559h67.529c-3.437,15.479-17.266,27.093-33.764,27.093
		S194.824,292.038,191.387,276.559z M183.559,261.559v-6.978h9.343c4.143,0,7.5-3.358,7.5-7.5s-3.357-7.5-7.5-7.5h-9.343v-32.729
		h34.093v54.707H183.559z M225.151,177.3c4.143,0,7.5-3.358,7.5-7.5v-7.774h14.037l-10.859,29.826h-21.356l-10.859-29.826h14.037
		v7.774C217.651,173.942,221.009,177.3,225.151,177.3z M266.744,239.581h-9.343c-4.143,0-7.5,3.358-7.5,7.5s3.357,7.5,7.5,7.5h9.343
		v6.978h-34.093v-54.707h34.093V239.581z M266.744,191.852h-14.951l10.38-28.512c2.734,1.632,4.57,4.621,4.57,8.03V191.852z
		 M188.129,163.339l10.38,28.512h-14.951v-20.482C183.559,167.96,185.395,164.971,188.129,163.339z"/>
	<path d="M225.144,136.761c28.062,0,50.891-22.822,50.891-50.875c0-28.062-22.829-50.891-50.891-50.891
		c-28.052,0-50.874,22.83-50.874,50.891C174.27,113.939,197.092,136.761,225.144,136.761z M189.27,85.887
		c0-19.791,16.093-35.891,35.874-35.891c19.79,0,35.891,16.101,35.891,35.891c0,19.781-16.101,35.875-35.891,35.875
		C205.362,121.761,189.27,105.668,189.27,85.887z"/>
	<path d="M353.327,136.762c28.062,0,50.891-22.822,50.891-50.875c0-28.062-22.829-50.891-50.891-50.891
		c-28.053,0-50.875,22.83-50.875,50.891C302.452,113.94,325.275,136.762,353.327,136.762z M317.452,85.887
		c0-19.791,16.094-35.891,35.875-35.891c19.79,0,35.891,16.101,35.891,35.891c0,19.781-16.101,35.875-35.891,35.875
		C333.546,121.762,317.452,105.669,317.452,85.887z"/>
	<path d="M408.914,164.43c-2.996-10.052-12.318-17.404-23.33-17.404h-25.618c-1.258-2.378-3.753-4-6.631-4s-5.373,1.622-6.631,4
		h-25.619c-13.423,0-24.344,10.92-24.344,24.343v27.983v69.707c0,4.142,3.357,7.5,7.5,7.5h0.067
		c1.492,9.793,5.861,18.652,12.212,25.69l6.634,126.358l-21.447,7.071c-3.934,1.297-6.071,5.537-4.774,9.471
		c1.04,3.154,3.973,5.154,7.122,5.154c0.778,0,1.57-0.122,2.35-0.379l26.889-8.865c3.213-1.059,5.318-4.138,5.141-7.516
		l-6.282-119.653c6.428,3.05,13.609,4.763,21.184,4.763c7.575,0,14.755-1.713,21.183-4.763l-6.282,119.653
		c-0.178,3.378,1.928,6.457,5.141,7.516l26.889,8.865c0.78,0.257,1.571,0.379,2.35,0.379c3.149,0,6.082-2,7.122-5.154
		c1.297-3.934-0.841-8.174-4.774-9.471l-21.447-7.071l6.634-126.358c6.351-7.038,10.72-15.897,12.212-25.69h0.067
		c4.143,0,7.5-3.358,7.5-7.5v-15.22c17.538-3.496,30.797-19.004,30.797-37.554v-14.119
		C440.725,183.261,426.951,167.521,408.914,164.43z M353.335,303.652c-16.499,0-30.329-11.614-33.765-27.093h67.53
		C383.663,292.039,369.834,303.652,353.335,303.652z M385.585,254.581h9.343v6.978h-34.093v-54.707h34.093v32.729h-9.343
		c-4.143,0-7.5,3.358-7.5,7.5S381.443,254.581,385.585,254.581z M353.335,177.3c4.143,0,7.5-3.358,7.5-7.5v-7.774h14.036
		l-10.859,29.826h-21.355l-10.859-29.826h14.037v7.774C345.835,173.942,349.193,177.3,353.335,177.3z M394.928,191.852h-14.952
		l10.38-28.513c2.735,1.632,4.571,4.621,4.571,8.03V191.852z M311.741,261.559v-6.978h9.344c4.143,0,7.5-3.358,7.5-7.5
		s-3.357-7.5-7.5-7.5h-9.344v-32.729h34.094v54.707H311.741z M316.313,163.34l10.38,28.513h-14.952V171.37
		C311.741,167.96,313.577,164.971,316.313,163.34z M425.725,216.285c0,10.222-6.621,18.921-15.797,22.051v-38.984v-19.237
		c9.176,3.129,15.797,11.829,15.797,22.051V216.285z"/>
	<path d="M153.562,269.059v-69.707V171.37c0-13.423-10.921-24.343-24.344-24.343H64.719c-11.012,0-20.335,7.352-23.33,17.404
		c-18.037,3.091-31.81,18.831-31.81,37.736v14.119c0,18.55,13.259,34.058,30.797,37.554v15.22c0,3.295,2.127,6.087,5.082,7.094
		c-4.647,20.495-15.079,73.371-15.079,134.999c0,4.142,3.357,7.5,7.5,7.5h28.388l0.522,9.955l-21.447,7.071
		c-3.934,1.297-6.071,5.537-4.774,9.471c1.04,3.154,3.973,5.154,7.122,5.154c0.778,0,1.57-0.122,2.35-0.379l26.889-8.865
		c3.213-1.059,5.318-4.138,5.141-7.516l-0.782-14.89h31.365l-0.782,14.89c-0.178,3.378,1.928,6.457,5.141,7.516l26.889,8.865
		c0.78,0.257,1.571,0.379,2.35,0.379c3.149,0,6.082-2,7.122-5.154c1.297-3.934-0.841-8.174-4.774-9.471l-21.447-7.071l0.522-9.955
		h28.388c4.143,0,7.5-3.358,7.5-7.5c0-61.628-10.432-114.504-15.079-134.999C151.434,275.146,153.562,272.354,153.562,269.059z
		 M45.432,403.652c0.85-59.521,11.519-110.594,15.344-127.093h72.386c3.825,16.499,14.494,67.572,15.344,127.093H45.432z
		 M64.718,239.581h-9.343v-32.729h34.093v54.707H55.375v-6.978h9.343c4.143,0,7.5-3.358,7.5-7.5S68.86,239.581,64.718,239.581z
		 M96.968,186.51l-17.614-24.484h35.229L96.968,186.51z M61.332,162.661l21.001,29.191H55.375V171.37
		C55.375,167.412,57.85,164.021,61.332,162.661z M138.562,261.559h-34.094v-54.707h34.094v32.729h-9.344c-4.143,0-7.5,3.358-7.5,7.5
		s3.357,7.5,7.5,7.5h9.344V261.559z M138.562,191.852h-26.959l21.002-29.191c3.482,1.359,5.957,4.75,5.957,8.708V191.852z
		 M24.578,216.285v-14.119c0-10.222,6.621-18.921,15.797-22.051v19.237v38.984C31.199,235.206,24.578,226.507,24.578,216.285z"/>
	<path d="M46.085,85.887c0,28.052,22.829,50.875,50.891,50.875c28.053,0,50.875-22.822,50.875-50.875
		c0-6.587-1.271-12.879-3.559-18.662c-0.057-0.157-0.116-0.313-0.183-0.464c-4.983-12.243-14.595-22.118-26.654-27.445
		c2.846-4.059,4.523-8.994,4.523-14.316c0-13.785-11.215-25-25-25s-25,11.215-25,25c0,5.321,1.676,10.255,4.521,14.313
		C64.435,44.638,54.82,54.509,49.833,66.749c-0.075,0.167-0.14,0.339-0.203,0.513C47.351,73.035,46.085,79.314,46.085,85.887z
		 M86.978,25c0-5.514,4.486-10,10-10s10,4.486,10,10c0,5.497-4.459,9.97-9.949,9.997c-0.018,0-0.035-0.001-0.053-0.001
		c-0.017,0-0.033,0.001-0.05,0.001C91.436,34.969,86.978,30.496,86.978,25z M96.976,49.996c10.76,0,20.422,4.771,27.003,12.301
		H69.961C76.545,54.767,86.211,49.996,96.976,49.996z M96.976,121.762c-19.79,0-35.891-16.093-35.891-35.875
		c0-2.961,0.367-5.836,1.047-8.59h69.673c0.679,2.754,1.046,5.63,1.046,8.59C132.851,105.669,116.757,121.762,96.976,121.762z"/>
</g>
<g>
</g>
<g>
</g>
<g>
</g>
<g>
</g>
<g>
</g>
<g>
</g>
<g>
</g>
<g>
</g>
<g>
</g>
<g>
</g>
<g>
</g>
<g>
</g>
<g>
</g>
<g>
</g>
<g>
</g>
</svg>
