<?xml version="1.0" encoding="iso-8859-1"?>
<!-- Generator: Adobe Illustrator 19.0.0, SVG Export Plug-In . SVG Version: 6.00 Build 0)  -->
<svg version="1.1" id="Capa_1" xmlns="http://www.w3.org/2000/svg" xmlns:xlink="http://www.w3.org/1999/xlink" x="0px" y="0px"
	 viewBox="0 0 415.307 415.307" style="enable-background:new 0 0 415.307 415.307;" xml:space="preserve">
<g>
	<path d="M219.743,156.03h-4.582v-6.5c0-4.142-3.358-7.5-7.5-7.5s-7.5,3.358-7.5,7.5v6.5h-4.598c-4.142,0-7.5,3.358-7.5,7.5
		s3.358,7.5,7.5,7.5h4.598v36.774c0,4.142,3.358,7.5,7.5,7.5s7.5-3.358,7.5-7.5V171.03h4.582c4.142,0,7.5-3.358,7.5-7.5
		S223.885,156.03,219.743,156.03z"/>
	<path d="M346.689,51.736c-4.115-0.451-7.82,2.522-8.271,6.641c-2.313,21.155-12.726,40.144-29.32,53.468
		c-15.116,12.137-33.714,18.227-52.899,17.471c-3.033-9.991-12.327-17.285-23.296-17.285h-50.5
		c-10.969,0-20.263,7.293-23.296,17.285c-19.184,0.754-37.782-5.333-52.899-17.47c-16.595-13.324-27.007-32.313-29.32-53.468
		c-0.45-4.118-4.152-7.089-8.271-6.641c-4.118,0.45-7.091,4.153-6.641,8.271c2.749,25.139,15.122,47.702,34.84,63.534
		c16.971,13.626,37.634,20.862,59.089,20.862c0.717,0,1.435-0.013,2.153-0.029v89.689c0,12.752,4.841,24.393,12.778,33.189
		l6.635,126.359l-21.447,7.071c-3.934,1.297-6.071,5.538-4.774,9.472c1.04,3.154,3.973,5.153,7.122,5.153
		c0.779,0,1.57-0.122,2.35-0.379l26.889-8.865c3.212-1.06,5.318-4.138,5.141-7.516l-6.283-119.653
		c6.428,3.049,13.608,4.763,21.183,4.763c7.575,0,14.755-1.713,21.182-4.763l-6.283,119.653c-0.177,3.378,1.929,6.457,5.141,7.516
		l26.889,8.865c0.78,0.257,1.571,0.379,2.35,0.379c3.149,0,6.082-2,7.122-5.153c1.297-3.934-0.841-8.174-4.774-9.472l-21.447-7.071
		l6.635-126.359c7.937-8.795,12.778-20.437,12.778-33.189l0-89.689c0.718,0.016,1.436,0.029,2.153,0.029
		c21.454,0,42.12-7.237,59.089-20.862c19.719-15.832,32.092-38.396,34.84-63.534C353.78,55.889,350.807,52.187,346.689,51.736z
		 M173.06,136.405c0-0.029,0.003-0.058,0.003-0.088c0.031-5.126,4.207-9.287,9.34-9.287h50.5c5.133,0,9.31,4.161,9.34,9.287
		c0,0.03,0.003,0.059,0.003,0.088l0,90.158H173.06V136.405z M173.889,241.563h67.529c-3.436,15.479-17.266,27.093-33.764,27.093
		S177.325,257.042,173.889,241.563z"/>
	<path d="M207.662,101.766c28.052,0,50.875-22.822,50.875-50.875c0-18.916-10.378-35.443-25.731-44.214
		c-0.156-0.101-0.311-0.203-0.477-0.293c-0.065-0.036-0.132-0.062-0.198-0.096C224.866,2.285,216.527,0,207.662,0
		c-28.061,0-50.891,22.83-50.891,50.892C156.771,78.944,179.601,101.766,207.662,101.766z M243.536,50.892
		c0,19.781-16.093,35.875-35.875,35.875c-17.39,0-31.926-12.428-35.198-28.863c20.347-2.33,43.77-13.237,58.466-34.296
		C238.637,30.195,243.536,39.979,243.536,50.892z M217.632,16.421c-11.572,15.676-29.198,24.106-44.922,26.347
		C176.402,26.879,190.666,15,207.662,15C211.122,15,214.464,15.502,217.632,16.421z"/>
</g>
<g>
</g>
<g>
</g>
<g>
</g>
<g>
</g>
<g>
</g>
<g>
</g>
<g>
</g>
<g>
</g>
<g>
</g>
<g>
</g>
<g>
</g>
<g>
</g>
<g>
</g>
<g>
</g>
<g>
</g>
</svg>
