<?xml version="1.0" encoding="iso-8859-1"?>
<!-- Generator: Adobe Illustrator 19.0.0, SVG Export Plug-In . SVG Version: 6.00 Build 0)  -->
<svg version="1.1" id="Capa_1" xmlns="http://www.w3.org/2000/svg" xmlns:xlink="http://www.w3.org/1999/xlink" x="0px" y="0px"
	 viewBox="0 0 444.749 444.749" style="enable-background:new 0 0 444.749 444.749;" xml:space="preserve">
<g>
	<path d="M372.413,0.225c-4.014-1.003-8.09,1.438-9.095,5.457l-20,80c-0.009,0.037-0.013,0.074-0.022,0.111
		c-0.03,0.129-0.054,0.261-0.078,0.393c-0.023,0.127-0.046,0.255-0.062,0.384c-0.005,0.039-0.014,0.076-0.019,0.115
		c-2.313,21.156-12.726,40.144-29.32,53.468c-15.116,12.137-33.713,18.226-52.899,17.47c-3.033-9.991-12.327-17.285-23.296-17.285
		h-50.5c-10.969,0-20.263,7.294-23.296,17.285c-19.182,0.755-37.782-5.334-52.899-17.47c-16.595-13.324-27.007-32.313-29.32-53.468
		c-0.45-4.117-4.155-7.089-8.271-6.64c-4.118,0.45-7.091,4.153-6.641,8.271c2.749,25.138,15.122,47.702,34.84,63.534
		c16.971,13.626,37.634,20.862,59.089,20.862c0.717,0,1.435-0.013,2.153-0.029v139.689c0,14.069,5.899,26.779,15.341,35.813
		l3.794,77.604l-15.951-6.604c-3.825-1.584-8.213,0.233-9.798,4.06c-1.585,3.827,0.233,8.214,4.06,9.799l26.889,11.134
		c0.923,0.383,1.898,0.571,2.869,0.571c1.523,0,3.035-0.464,4.319-1.368c2.101-1.479,3.298-3.932,3.173-6.499l-3.842-78.605
		c5.786,2.371,12.111,3.688,18.74,3.688c6.63,0,12.955-1.318,18.741-3.688l-3.842,78.605c-0.125,2.567,1.072,5.019,3.173,6.499
		c1.284,0.904,2.795,1.368,4.319,1.368c0.97,0,1.945-0.188,2.869-0.571l26.889-11.134c3.827-1.584,5.645-5.972,4.06-9.799
		c-1.584-3.827-5.974-5.645-9.798-4.06l-15.951,6.604l3.794-77.605c9.442-9.035,15.341-21.744,15.341-35.813l0-139.689
		c0.718,0.016,1.436,0.029,2.153,0.029c21.454,0,42.12-7.237,59.089-20.862c19.557-15.702,31.875-38.029,34.758-62.919L377.87,9.32
		C378.875,5.302,376.432,1.23,372.413,0.225z M246.967,312.372c0,16.499-11.613,30.328-27.093,33.765v-83.765
		c0-4.142-3.358-7.5-7.5-7.5s-7.5,3.358-7.5,7.5v83.765c-15.48-3.436-27.093-17.266-27.093-33.765V164.683
		c0-5.152,4.191-9.343,9.343-9.343h50.5c5.152,0,9.343,4.191,9.343,9.343L246.967,312.372z"/>
	<path d="M212.366,130.075c28.061,0,50.891-22.822,50.891-50.875c0-14.363-5.991-27.346-15.593-36.608
		c-0.263-0.291-0.545-0.566-0.855-0.815c-9.07-8.354-21.169-13.468-34.443-13.468c-13.274,0-25.372,5.117-34.441,13.476
		c-0.298,0.24-0.568,0.505-0.822,0.784c-9.614,9.264-15.612,22.256-15.612,36.631C161.492,107.253,184.314,130.075,212.366,130.075z
		 M232.63,49.598c-4.492,6.635-11.984,10.712-20.262,10.712c-8.274,0-15.763-4.078-20.253-10.715
		c5.768-3.961,12.742-6.286,20.251-6.286C219.88,43.31,226.859,45.635,232.63,49.598z M181.65,60.677
		c7.353,9.133,18.509,14.632,30.718,14.632c12.214,0,23.373-5.499,30.728-14.632c3.274,5.411,5.161,11.75,5.161,18.523
		c0,19.781-16.101,35.875-35.891,35.875c-19.781,0-35.875-16.093-35.875-35.875C176.492,72.428,178.378,66.088,181.65,60.677z"/>
</g>
<g>
</g>
<g>
</g>
<g>
</g>
<g>
</g>
<g>
</g>
<g>
</g>
<g>
</g>
<g>
</g>
<g>
</g>
<g>
</g>
<g>
</g>
<g>
</g>
<g>
</g>
<g>
</g>
<g>
</g>
</svg>
