<?xml version="1.0" encoding="iso-8859-1"?>
<!-- Generator: Adobe Illustrator 19.0.0, SVG Export Plug-In . SVG Version: 6.00 Build 0)  -->
<svg version="1.1" id="Capa_1" xmlns="http://www.w3.org/2000/svg" xmlns:xlink="http://www.w3.org/1999/xlink" x="0px" y="0px"
	 viewBox="0 0 447.978 447.978" style="enable-background:new 0 0 447.978 447.978;" xml:space="preserve">
<g>
	<path d="M273.582,266.734v-1.497c25.198-3.648,44.621-25.381,44.621-51.573c0-26.556-19.968-48.521-45.676-51.707
		c-3.042-9.976-12.33-17.256-23.288-17.256h-50.5c-10.958,0-20.245,7.28-23.287,17.256c-25.708,3.186-45.677,25.151-45.677,51.707
		c0,26.192,19.423,47.925,44.621,51.573v1.497c0,12.752,4.841,24.393,12.778,33.189l3.949,75.219h-15.518
		c-2.242,0-4.367,1.003-5.792,2.735c-1.425,1.732-2,4.01-1.567,6.21l9.336,47.545l-5.221,1.721
		c-3.934,1.297-6.071,5.537-4.774,9.471c1.04,3.154,3.973,5.154,7.122,5.154c0.778,0,1.57-0.122,2.35-0.379l26.889-8.865
		c3.213-1.059,5.318-4.138,5.141-7.516l-2.17-41.325c3.225-0.839,5.609-3.762,5.609-7.25c0-3.76-2.77-6.865-6.379-7.407
		l-3.344-63.67c6.428,3.05,13.609,4.763,21.184,4.763c7.575,0,14.755-1.713,21.183-4.763l-3.343,63.67
		c-3.609,0.542-6.379,3.647-6.379,7.407c0,3.488,2.384,6.411,5.609,7.25l-2.17,41.325c-0.178,3.378,1.928,6.457,5.141,7.516
		l26.889,8.865c0.78,0.257,1.571,0.379,2.35,0.379c3.149,0,6.082-2,7.122-5.154c1.297-3.934-0.841-8.174-4.774-9.471l-5.221-1.721
		l9.335-47.545c0.432-2.2-0.143-4.479-1.567-6.21s-3.55-2.735-5.792-2.735h-15.517l3.949-75.218
		C268.74,291.129,273.582,279.487,273.582,266.734z M209.63,214.208c4.035,0.934,8.064-1.579,8.999-5.615l5.36-23.148l5.36,23.148
		c0.803,3.466,3.889,5.81,7.3,5.81c0.561,0,1.13-0.063,1.699-0.195c4.035-0.935,6.549-4.963,5.614-8.999l-10.538-45.508h15.815
		c5.152,0,9.344,4.191,9.344,9.343l-0.001,90.19h-69.186v-90.19c0-5.152,4.191-9.343,9.343-9.343h15.815l-10.538,45.508
		C203.081,209.245,205.595,213.273,209.63,214.208z M190.225,274.235h67.528c-3.437,15.479-17.266,27.092-33.764,27.092
		S193.662,289.714,190.225,274.235z M303.203,213.665c0,17.9-12.736,32.88-29.621,36.358l0.001-72.716
		C290.468,180.785,303.203,195.765,303.203,213.665z M144.775,213.665c0-17.9,12.736-32.88,29.621-36.358v72.716
		C157.511,246.545,144.775,231.565,144.775,213.665z M193.809,426.282l-1.87,0.616l-7.217-36.757h7.189L193.809,426.282z
		 M254.169,426.282l1.897-36.14h7.188l-7.216,36.757L254.169,426.282z"/>
	<path d="M149.064,66.973c0.723,0.247,10.204,3.44,25.078,6.385c-0.68,3.339-1.036,6.747-1.036,10.205
		c0,28.052,22.822,50.875,50.875,50.875c28.062,0,50.891-22.822,50.891-50.875c0-3.458-0.355-6.867-1.036-10.205
		c14.874-2.944,24.355-6.138,25.078-6.385c3.918-1.338,6.008-5.597,4.672-9.516c-1.337-3.919-5.597-6.011-9.517-4.68
		c-0.167,0.057-9.237,3.096-23.535,5.905c-1.893-12.324-5.536-35.766-6.889-42.648C261.149,3.351,248.595,0,242.305,0
		c-1.899,0-3.677,0.673-5.065,1.969c-0.054,0.049-5.508,4.86-13.25,4.86s-13.196-4.811-13.197-4.811
		C209.402,0.721,207.573,0,205.674,0c-6.29,0-18.845,3.351-21.34,16.033c-1.354,6.883-4.996,30.325-6.889,42.648
		c-14.298-2.809-23.368-5.848-23.535-5.905c-3.915-1.335-8.178,0.756-9.518,4.674C143.053,61.37,145.144,65.634,149.064,66.973z
		 M203.493,15.301c3.807,2.645,11.011,6.528,20.496,6.528c9.482,0,16.685-3.88,20.492-6.525c1.77,0.41,4.002,1.372,4.446,3.626
		c1.293,6.573,4.937,30.033,6.809,42.213c-9.537,1.304-20.32,2.233-31.747,2.233c-11.427,0-22.209-0.929-31.746-2.233
		c1.872-12.179,5.515-35.64,6.809-42.213C199.496,16.67,201.738,15.709,203.493,15.301z M259.872,83.563
		c0,19.781-16.101,35.875-35.891,35.875c-19.781,0-35.875-16.093-35.875-35.875c0-2.616,0.287-5.19,0.836-7.703
		c10.411,1.464,22.314,2.516,35.047,2.516s24.636-1.052,35.047-2.516C259.585,78.373,259.872,80.947,259.872,83.563z"/>
</g>
<g>
</g>
<g>
</g>
<g>
</g>
<g>
</g>
<g>
</g>
<g>
</g>
<g>
</g>
<g>
</g>
<g>
</g>
<g>
</g>
<g>
</g>
<g>
</g>
<g>
</g>
<g>
</g>
<g>
</g>
</svg>
