<?xml version="1.0" encoding="iso-8859-1"?>
<!-- Generator: Adobe Illustrator 19.0.0, SVG Export Plug-In . SVG Version: 6.00 Build 0)  -->
<svg version="1.1" id="Capa_1" xmlns="http://www.w3.org/2000/svg" xmlns:xlink="http://www.w3.org/1999/xlink" x="0px" y="0px"
	 viewBox="0 0 425.845 425.845" style="enable-background:new 0 0 425.845 425.845;" xml:space="preserve">
<g>
	<path d="M352.518,62.913c-4.098-0.479-7.835,2.472-8.313,6.586c-4.036,34.816-29.875,62.595-64.296,69.125
		c-6.046,1.145-12.221,1.57-18.422,1.285c-3.016-10.019-12.323-17.34-23.312-17.34h-4.525c-1.258-2.378-3.753-4-6.631-4
		s-5.373,1.622-6.631,4h-14.926c-1.258-2.378-3.753-4-6.631-4s-5.373,1.622-6.631,4h-4.525c-10.835,0-20.036,7.117-23.182,16.92
		c-7.179-0.288-14.331,0.234-21.349,1.562c-19.402,3.681-37.593,13.649-51.221,28.07c-14.104,14.924-22.812,33.62-25.182,54.065
		c-0.477,4.115,2.472,7.837,6.587,8.314c0.293,0.034,0.584,0.05,0.873,0.05c3.755,0,6.997-2.815,7.44-6.637
		c4.036-34.816,29.875-62.595,64.294-69.125c5.714-1.082,11.541-1.517,17.396-1.323l0.001,90.116
		c0.001,0.099,0.004,0.138,0.004,0.179c0.002,0.07,0.002,0.14,0.005,0.211c0.093,12.607,4.909,24.108,12.769,32.818l1.732,32.983
		l-39.36,95.856c-0.95,2.313-0.685,4.948,0.708,7.025s3.729,3.324,6.229,3.324h10.852c-0.224,1.201-0.158,2.473,0.251,3.714
		c1.04,3.154,3.973,5.153,7.122,5.153c0.778,0,1.57-0.122,2.35-0.379l26.76-8.823c0.031-0.01,0.129-0.042,0.129-0.042
		c0.021-0.007,0.039-0.019,0.06-0.025c0.359-0.122,0.705-0.268,1.037-0.44c0.024-0.012,0.05-0.023,0.073-0.035
		c0.321-0.171,0.624-0.369,0.915-0.583c0.058-0.042,0.116-0.084,0.172-0.129c0.275-0.214,0.536-0.446,0.778-0.696
		c0.043-0.044,0.083-0.091,0.125-0.137c0.236-0.256,0.458-0.525,0.656-0.812c0.01-0.014,0.022-0.028,0.031-0.042
		c0.205-0.3,0.382-0.619,0.543-0.948c0.026-0.052,0.052-0.104,0.076-0.157c0.15-0.326,0.278-0.664,0.38-1.013
		c0.014-0.047,0.024-0.094,0.036-0.142c0.091-0.335,0.161-0.678,0.204-1.03c0.004-0.036,0.012-0.07,0.016-0.106
		c0.03-0.272,0.048-0.547,0.048-0.827c0-0.095-0.011-0.187-0.014-0.281c-0.001-0.038,0.005-0.074,0.003-0.112l-6.283-119.653
		c6.428,3.05,13.609,4.763,21.183,4.763c7.575,0,14.755-1.713,21.183-4.763l-6.282,119.653c-0.002,0.038,0.005,0.074,0.003,0.112
		c-0.003,0.094-0.014,0.186-0.014,0.281c0,0.28,0.018,0.555,0.048,0.827c0.004,0.036,0.012,0.07,0.016,0.106
		c0.044,0.352,0.114,0.695,0.204,1.03c0.013,0.047,0.023,0.095,0.036,0.142c0.102,0.349,0.23,0.687,0.38,1.013
		c0.024,0.053,0.05,0.105,0.076,0.158c0.16,0.329,0.338,0.648,0.542,0.948c0.01,0.014,0.022,0.028,0.031,0.042
		c0.199,0.287,0.42,0.556,0.656,0.812c0.042,0.046,0.081,0.093,0.125,0.137c0.242,0.25,0.503,0.481,0.778,0.696
		c0.057,0.044,0.114,0.086,0.172,0.129c0.291,0.214,0.594,0.412,0.915,0.583c0.024,0.013,0.05,0.023,0.074,0.035
		c0.332,0.172,0.678,0.319,1.036,0.44c0.021,0.007,0.039,0.019,0.06,0.026l0.097,0.032c0.031,0.01,26.791,8.833,26.791,8.833
		c0.78,0.257,1.571,0.379,2.35,0.379c3.149,0,6.082-2,7.122-5.153c0.409-1.242,0.475-2.514,0.251-3.714h10.852
		c2.501,0,4.837-1.247,6.229-3.324s1.658-4.712,0.708-7.025l-39.36-95.858l1.731-32.98c7.86-8.71,12.677-20.212,12.77-32.82
		c0.004-0.071,0.004-0.141,0.005-0.211c0-0.054,0.004-0.106,0.004-0.16l0.001-89.639c0.889,0.025,1.777,0.039,2.665,0.039
		c5.892,0,11.752-0.547,17.519-1.639c19.402-3.681,37.594-13.649,51.222-28.07c14.104-14.924,22.812-33.62,25.182-54.065
		C359.581,67.112,356.633,63.39,352.518,62.913z M231.399,237.101h-36.951c7.486-8.788,11.882-20.117,11.882-32.167v-67.366h13.188
		v67.366C219.518,216.984,223.913,228.313,231.399,237.101z M191.33,204.934c0,10.683-4.959,20.543-12.999,26.993l-0.001-85.015
		c0-5.152,4.191-9.343,9.344-9.343h3.656V204.934z M179.16,252.101h67.529c-3.437,15.479-17.266,27.093-33.764,27.093
		S182.596,267.581,179.16,252.101z M234.518,204.934v-67.366h3.656c5.152,0,9.344,4.191,9.344,9.343l-0.001,85.015
		C239.477,225.478,234.518,215.617,234.518,204.934z M156.607,401.978l23.073-56.193l2.951,56.193H156.607z M243.218,401.978
		l2.95-56.194l23.073,56.194H243.218z"/>
	<path d="M212.916,112.304c28.062,0,50.891-22.822,50.891-50.875c0-11.389-3.816-22.395-10.785-31.315V22.5
		c0-12.407-10.094-22.5-22.5-22.5h-35.197c-12.406,0-22.5,10.093-22.5,22.5v7.617c-6.968,8.921-10.783,19.926-10.783,31.313
		C162.041,89.482,184.864,112.304,212.916,112.304z M212.916,97.304c-19.781,0-35.875-16.093-35.875-35.875
		c0-7.415,2.296-14.599,6.514-20.609c9.975,1.728,18.619,6.112,23.607,12.098c1.425,1.71,3.536,2.699,5.762,2.699
		c2.227,0,4.338-0.989,5.763-2.699c4.987-5.987,13.63-10.371,23.606-12.099c4.218,6.009,6.514,13.193,6.514,20.609
		C248.807,81.211,232.706,97.304,212.916,97.304z M238.022,22.5v3.849c-9.725,1.928-18.409,5.845-25.098,11.297
		c-6.689-5.453-15.374-9.37-25.1-11.297V22.5c0-4.136,3.364-7.5,7.5-7.5h35.197C234.657,15,238.022,18.364,238.022,22.5z"/>
</g>
<g>
</g>
<g>
</g>
<g>
</g>
<g>
</g>
<g>
</g>
<g>
</g>
<g>
</g>
<g>
</g>
<g>
</g>
<g>
</g>
<g>
</g>
<g>
</g>
<g>
</g>
<g>
</g>
<g>
</g>
</svg>
