<?xml version="1.0" encoding="iso-8859-1"?>
<!-- Generator: Adobe Illustrator 19.0.0, SVG Export Plug-In . SVG Version: 6.00 Build 0)  -->
<svg version="1.1" id="Capa_1" xmlns="http://www.w3.org/2000/svg" xmlns:xlink="http://www.w3.org/1999/xlink" x="0px" y="0px"
	 viewBox="0 0 440.307 440.307" style="enable-background:new 0 0 440.307 440.307;" xml:space="preserve">
<g>
	<path d="M161.771,109.587c6.033,0,11.515-2.391,15.559-6.27c9.056,14.089,24.858,23.449,42.815,23.449
		c17.959,0,33.764-9.357,42.824-23.441c4.044,3.874,9.522,6.262,15.551,6.262c12.407,0,22.5-10.093,22.5-22.5V64.696
		c0-8.433-4.666-15.793-11.55-19.646C277.256,17.583,250.366,0,220.146,0s-57.111,17.583-69.325,45.051
		c-6.884,3.852-11.55,11.212-11.55,19.646v22.391C139.271,99.494,149.365,109.587,161.771,109.587z M271.02,87.087V64.696
		c0-4.136,3.364-7.5,7.5-7.5s7.5,3.364,7.5,7.5v22.391c0,4.136-3.364,7.5-7.5,7.5S271.02,91.223,271.02,87.087z M220.146,111.766
		c-19.781,0-35.875-16.093-35.875-35.875c0-19.791,16.093-35.891,35.875-35.891c19.577,0,35.533,15.759,35.875,35.256v1.269
		C255.679,96.015,239.723,111.766,220.146,111.766z M169.271,87.087c0,4.136-3.364,7.5-7.5,7.5s-7.5-3.364-7.5-7.5V64.696
		c0-4.136,3.364-7.5,7.5-7.5s7.5,3.364,7.5,7.5V87.087z M220.146,15c21.224,0,40.399,10.816,51.426,28.299
		c-3.254,1.059-6.182,2.841-8.599,5.156C253.914,34.363,238.107,25,220.146,25c-17.959,0-33.763,9.366-42.819,23.462
		c-2.418-2.318-5.35-4.103-8.607-5.164C179.746,25.816,198.922,15,220.146,15z"/>
	<path d="M363.82,236.114h-94.074l0-66.74c0.718,0.016,1.436,0.029,2.153,0.029c21.454,0,42.12-7.237,59.089-20.862
		c19.719-15.832,32.092-38.396,34.84-63.534c0.45-4.117-2.523-7.82-6.641-8.271c-4.117-0.448-7.821,2.522-8.271,6.641
		c-2.313,21.155-12.726,40.144-29.32,53.468c-15.116,12.137-33.713,18.226-52.899,17.471c-3.033-9.991-12.327-17.285-23.296-17.285
		h-50.5c-11.797,0-21.658,8.436-23.874,19.592c-29.033,16.187-47.396,46.438-48.52,79.491H76.487c-4.142,0-7.5,3.358-7.5,7.5v37.333
		c0,1.989,0.79,3.897,2.197,5.303c1.407,1.407,3.314,2.197,5.304,2.197l12.5-0.001v144.359c0,4.142,3.358,7.5,7.5,7.5
		s7.5-3.358,7.5-7.5v-75.001h82.794l3.193,60.807l-21.447,7.071c-3.934,1.297-6.071,5.538-4.774,9.472
		c1.04,3.154,3.973,5.153,7.122,5.153c0.779,0,1.57-0.122,2.35-0.379l26.889-8.865c3.212-1.06,5.318-4.138,5.141-7.516
		l-3.452-65.743h36.704l-3.452,65.743c-0.177,3.378,1.929,6.457,5.141,7.516l26.889,8.865c0.78,0.257,1.571,0.379,2.35,0.379
		c3.149,0,6.082-2,7.122-5.153c1.297-3.934-0.841-8.174-4.774-9.472l-21.447-7.071l3.193-60.807h82.794v75.001
		c0,4.142,3.358,7.5,7.5,7.5s7.5-3.358,7.5-7.5V288.447l12.5,0c1.989,0,3.896-0.79,5.303-2.197c1.407-1.406,2.197-3.314,2.197-5.303
		v-37.333C371.32,239.472,367.962,236.114,363.82,236.114z M356.32,273.447l-199.836-0.003c-4.142,0-7.5,3.358-7.5,7.5
		s3.358,7.5,7.5,7.5l179.836,0.003v54.357H103.987v-54.359l22.497-0.001c4.142,0,7.5-3.358,7.5-7.5c0-4.143-3.358-7.5-7.5-7.5
		l-42.496,0.002v-22.333H356.32V273.447z M254.744,161.318c0,0.03,0.003,0.058,0.003,0.088l0,74.708H185.56v-74.74
		c0-5.152,4.191-9.343,9.343-9.343h50.5C250.537,152.03,254.713,156.192,254.744,161.318z M170.56,174.67v61.444h-33.039
		C138.513,211.57,150.795,188.915,170.56,174.67z"/>
</g>
<g>
</g>
<g>
</g>
<g>
</g>
<g>
</g>
<g>
</g>
<g>
</g>
<g>
</g>
<g>
</g>
<g>
</g>
<g>
</g>
<g>
</g>
<g>
</g>
<g>
</g>
<g>
</g>
<g>
</g>
</svg>
