<?xml version="1.0" encoding="iso-8859-1"?>
<!-- Generator: Adobe Illustrator 19.0.0, SVG Export Plug-In . SVG Version: 6.00 Build 0)  -->
<svg version="1.1" id="Capa_1" xmlns="http://www.w3.org/2000/svg" xmlns:xlink="http://www.w3.org/1999/xlink" x="0px" y="0px"
	 viewBox="0 0 449.686 449.686" style="enable-background:new 0 0 449.686 449.686;" xml:space="preserve">
<g>
	<path d="M274.435,268.441v-1.496c25.198-3.648,44.621-25.381,44.621-51.573c0-26.556-19.968-48.521-45.676-51.708
		c-3.042-9.976-12.33-17.256-23.288-17.256h-50.5c-10.958,0-20.246,7.28-23.288,17.256c-25.708,3.187-45.676,25.152-45.676,51.708
		c0,26.192,19.423,47.925,44.62,51.573v1.497c0,12.752,4.841,24.393,12.778,33.189l6.635,126.359l-21.447,7.071
		c-3.934,1.297-6.071,5.538-4.774,9.472c1.04,3.154,3.973,5.153,7.122,5.153c0.779,0,1.57-0.122,2.35-0.379l26.889-8.865
		c3.212-1.06,5.318-4.138,5.141-7.516l-6.283-119.653c6.428,3.05,13.608,4.763,21.183,4.763c7.575,0,14.755-1.713,21.183-4.763
		l-6.282,119.653c-0.178,3.378,1.928,6.457,5.141,7.516l26.889,8.865c0.78,0.257,1.571,0.379,2.35,0.379
		c3.149,0,6.082-2,7.122-5.153c1.297-3.934-0.841-8.174-4.774-9.472l-21.447-7.071l6.634-126.358
		C269.594,292.836,274.435,281.194,274.435,268.441z M190.249,260.941v-13.633h69.186l0,13.633H190.249z M259.436,232.309h-69.186
		v-13.633h69.187L259.436,232.309z M259.436,203.675h-69.187v-13.633h69.187V203.675z M259.436,170.752v4.29h-69.187v-4.29
		c0-5.152,4.191-9.343,9.343-9.343h50.5C255.245,161.409,259.436,165.6,259.436,170.752z M191.078,275.941h67.529
		c-3.437,15.479-17.266,27.093-33.764,27.093C208.344,303.035,194.514,291.421,191.078,275.941z M304.056,215.372
		c0,17.9-12.736,32.88-29.621,36.358l0.001-72.716C291.321,182.492,304.056,197.472,304.056,215.372z M145.629,215.372
		c0-17.9,12.735-32.88,29.62-36.358v72.716C158.364,248.252,145.629,233.272,145.629,215.372z"/>
	<path d="M224.835,136.145c17.143,0,32.322-8.526,41.547-21.551c0.235-0.283,0.449-0.584,0.642-0.902
		c5.492-8.12,8.701-17.903,8.701-28.422V50.89c0-28.061-22.829-50.89-50.889-50.89c-28.053,0-50.876,22.829-50.876,50.89v34.38
		C173.96,113.322,196.782,136.145,224.835,136.145z M224.836,15c19.218,0,34.953,15.184,35.846,34.186
		c-9.205-9.146-21.877-14.807-35.847-14.807c-12.474,0-23.908,4.522-32.767,12.004c-0.291,0.22-0.569,0.455-0.823,0.713
		c-0.766,0.675-1.517,1.366-2.242,2.086C189.899,30.182,205.627,15,224.836,15z M205.002,55.381
		c5.685-3.789,12.504-6.003,19.833-6.003c19.79,0,35.891,16.101,35.891,35.892c0,5.893-1.438,11.453-3.967,16.363
		C235.074,97.514,212.261,82.198,205.002,55.381z M193.406,67.986c9.862,24.626,30.893,40.02,52.371,46.391
		c-5.899,4.252-13.13,6.768-20.942,6.768c-19.781,0-35.875-16.093-35.875-35.875C188.96,79.007,190.576,73.116,193.406,67.986z"/>
</g>
<g>
</g>
<g>
</g>
<g>
</g>
<g>
</g>
<g>
</g>
<g>
</g>
<g>
</g>
<g>
</g>
<g>
</g>
<g>
</g>
<g>
</g>
<g>
</g>
<g>
</g>
<g>
</g>
<g>
</g>
</svg>
