<?xml version="1.0" encoding="iso-8859-1"?>
<!-- Generator: Adobe Illustrator 19.0.0, SVG Export Plug-In . SVG Version: 6.00 Build 0)  -->
<svg version="1.1" id="Capa_1" xmlns="http://www.w3.org/2000/svg" xmlns:xlink="http://www.w3.org/1999/xlink" x="0px" y="0px"
	 viewBox="0 0 453.307 453.307" style="enable-background:new 0 0 453.307 453.307;" xml:space="preserve">
<g>
	<path d="M197.938,67.392C204.488,58.66,214.919,53,226.646,53c11.732,0,22.167,5.66,28.72,14.392h17.391
		c-5.129-10.955-14.046-19.788-25.057-24.814c3.417-4.463,5.454-10.036,5.454-16.078c0-14.612-11.888-26.5-26.5-26.5
		s-26.5,11.888-26.5,26.5c0,6.041,2.036,11.613,5.452,16.075c-11.011,5.026-19.928,13.859-25.056,24.817H197.938z M226.654,15
		c6.341,0,11.5,5.159,11.5,11.5s-5.159,11.5-11.5,11.5s-11.5-5.159-11.5-11.5S220.312,15,226.654,15z"/>
	<path d="M394.874,69.692c-4.142,0-7.5,3.358-7.5,7.5v12.5h-22.443c-0.02,0-22.557,0-22.557,0v-12.5c0-4.142-3.358-7.5-7.5-7.5
		s-7.5,3.358-7.5,7.5v40c0,4.142,3.358,7.5,7.5,7.5s7.5-3.358,7.5-7.5v-12.5h13.686c-3.844,17.788-13.574,33.601-27.962,45.153
		c-15.116,12.137-33.713,18.227-52.899,17.471c-3.033-9.991-12.327-17.285-23.296-17.285h-50.5
		c-10.969,0-20.263,7.294-23.296,17.285c-19.182,0.754-37.782-5.333-52.899-17.47c-14.387-11.552-24.118-27.365-27.962-45.153
		h13.686v12.5c0,4.142,3.358,7.5,7.5,7.5s7.5-3.358,7.5-7.5v-40c0-4.142-3.358-7.5-7.5-7.5s-7.5,3.358-7.5,7.5v12.5h-45v-12.5
		c0-4.142-3.358-7.5-7.5-7.5s-7.5,3.358-7.5,7.5v40c0,4.142,3.358,7.5,7.5,7.5s7.5-3.358,7.5-7.5v-12.5h16.041
		c4.056,22.435,15.892,42.436,33.844,56.849c16.971,13.626,37.634,20.862,59.089,20.862c0.717,0,1.435-0.013,2.153-0.029v89.689
		c0,12.752,4.841,24.393,12.778,33.189l6.635,126.359l-21.447,7.071c-3.934,1.297-6.071,5.538-4.774,9.472
		c1.04,3.154,3.973,5.153,7.122,5.153c0.779,0,1.57-0.122,2.35-0.379l26.889-8.865c3.212-1.06,5.318-4.138,5.141-7.516
		l-6.283-119.653c6.428,3.05,13.608,4.763,21.183,4.763c7.575,0,14.755-1.713,21.182-4.763l-6.283,119.653
		c-0.177,3.378,1.929,6.457,5.141,7.516l26.889,8.865c0.78,0.257,1.571,0.379,2.35,0.379c3.149,0,6.082-2,7.122-5.153
		c1.297-3.934-0.841-8.174-4.774-9.472l-21.447-7.071l6.635-126.359c7.937-8.796,12.778-20.437,12.778-33.189l0-89.689
		c0.718,0.016,1.436,0.029,2.153,0.029c21.454,0,42.12-7.237,59.089-20.862c17.952-14.413,29.788-34.414,33.844-56.849h16.041v12.5
		c0,4.142,3.358,7.5,7.5,7.5s7.5-3.358,7.5-7.5v-40C402.374,73.05,399.016,69.692,394.874,69.692z M192.06,272.063v-97.689
		c0-5.152,4.191-9.343,9.343-9.343h50.5c5.152,0,9.343,4.191,9.343,9.343l0,97.689c0,19.075-15.518,34.593-34.593,34.593
		S192.06,291.138,192.06,272.063z"/>
	<path d="M277.715,67.392h-4.958h-17.391h-57.428h-17.389h-4.957c-4.142,0-7.5,3.358-7.5,7.5s3.358,7.5,7.5,7.5h0.608
		c-0.273,2.13-0.429,4.297-0.429,6.5c0,28.052,22.822,50.875,50.875,50.875c28.061,0,50.891-22.822,50.891-50.875
		c0-2.203-0.156-4.37-0.429-6.5h0.608c4.142,0,7.5-3.358,7.5-7.5S281.857,67.392,277.715,67.392z M262.536,88.892
		c0,19.781-16.101,35.875-35.891,35.875c-19.781,0-35.875-16.093-35.875-35.875c0-2.22,0.213-4.39,0.601-6.5h70.564
		C262.323,84.501,262.536,86.671,262.536,88.892z"/>
</g>
<g>
</g>
<g>
</g>
<g>
</g>
<g>
</g>
<g>
</g>
<g>
</g>
<g>
</g>
<g>
</g>
<g>
</g>
<g>
</g>
<g>
</g>
<g>
</g>
<g>
</g>
<g>
</g>
<g>
</g>
</svg>
