<?xml version="1.0" encoding="iso-8859-1"?>
<!-- Generator: Adobe Illustrator 19.0.0, SVG Export Plug-In . SVG Version: 6.00 Build 0)  -->
<svg version="1.1" id="Capa_1" xmlns="http://www.w3.org/2000/svg" xmlns:xlink="http://www.w3.org/1999/xlink" x="0px" y="0px"
	 viewBox="0 0 465.305 465.305" style="enable-background:new 0 0 465.305 465.305;" xml:space="preserve">
<g>
	<path d="M372.246,102.375c-4.1-0.473-7.836,2.472-8.313,6.587c-4.036,34.816-29.875,62.595-64.295,69.125
		c-6.049,1.145-12.226,1.569-18.427,1.284c-3.016-10.017-12.322-17.335-23.308-17.335h-50.5c-10.986,0-20.292,7.319-23.308,17.335
		c-6.202,0.285-12.378-0.138-18.425-1.283c-34.423-6.53-60.262-34.309-64.298-69.125c-0.478-4.115-4.211-7.064-8.313-6.587
		c-4.115,0.477-7.063,4.199-6.587,8.314c2.37,20.446,11.078,39.141,25.182,54.065c13.628,14.421,31.819,24.389,51.225,28.07
		c5.767,1.092,11.626,1.639,17.517,1.639c0.889,0,1.778-0.014,2.668-0.039l-0.002,77.651c-16.754,14.465-26.29,35.183-26.29,57.408
		v69.838c-0.8-0.066-1.625-0.111-2.5-0.111c-4.143,0-7.5,3.358-7.5,7.5s3.357,7.5,7.5,7.5c0.955,0,1.768,0.075,2.5,0.212v43.383
		c0,4.142,3.357,7.5,7.5,7.5h136.765c4.143,0,7.5-3.358,7.5-7.5v-43.383c0.732-0.137,1.545-0.212,2.5-0.212
		c4.143,0,7.5-3.358,7.5-7.5s-3.357-7.5-7.5-7.5c-0.875,0-1.7,0.045-2.5,0.111v-69.838c0-22.223-9.537-42.94-26.293-57.405v-77.654
		c0.89,0.025,1.779,0.039,2.668,0.039c5.891,0,11.751-0.547,17.52-1.639c19.402-3.681,37.594-13.649,51.222-28.07
		c14.104-14.924,22.812-33.62,25.182-54.065C379.31,106.574,376.361,102.852,372.246,102.375z M293.535,434.266v14.887v1.151
		H171.771v-1.151v-14.887v-11.404c2.391,0.813,5.216,1.348,8.625,1.348c9.073,0,14.015-3.783,17.622-6.545
		c2.911-2.228,4.514-3.455,8.504-3.455s5.594,1.228,8.505,3.456c3.607,2.762,8.549,6.544,17.621,6.544
		c9.073,0,14.015-3.783,17.622-6.544c2.911-2.228,4.515-3.456,8.505-3.456c3.992,0,5.596,1.228,8.507,3.456
		c3.608,2.762,8.551,6.544,17.624,6.544c3.411,0,6.238-0.535,8.63-1.349V434.266z M293.411,405.754
		c-2.911,2.228-4.515,3.456-8.506,3.456c-3.992,0-5.596-1.228-8.507-3.456c-3.608-2.762-8.551-6.544-17.624-6.544
		s-14.015,3.783-17.622,6.544c-2.911,2.228-4.515,3.456-8.505,3.456s-5.593-1.227-8.504-3.455
		c-3.607-2.762-8.549-6.545-17.622-6.545c-9.072,0-14.014,3.783-17.621,6.544c-2.911,2.228-4.515,3.456-8.505,3.456
		s-5.593-1.227-8.504-3.455c-0.04-0.03-0.081-0.062-0.121-0.092v-16.509v-14.887v-44.783c0-0.11,0.009-0.218,0.009-0.328
		c0.027-5.086,0.691-10.066,1.921-14.864c1.65-6.436,4.335-12.531,7.968-18.074c2.653-4.048,5.812-7.793,9.426-11.167
		c0.706-0.659,1.427-1.306,2.168-1.936h78.775c0.742,0.63,1.463,1.278,2.17,1.938c3.615,3.374,6.774,7.119,9.428,11.167
		c3.633,5.542,6.319,11.637,7.969,18.072c1.23,4.797,1.895,9.777,1.921,14.864c0,0.11,0.009,0.218,0.009,0.328v44.783v14.887v16.506
		C293.494,405.691,293.451,405.724,293.411,405.754z M198.061,268.115l0.001-56.041c3.553-5.097,8.404-7.989,13.541-7.989
		c5.664,0,10.984,3.499,14.596,9.601c1.351,2.28,3.804,3.679,6.454,3.679s5.104-1.399,6.454-3.679
		c3.611-6.102,8.928-9.601,14.586-9.601c5.134,0,9.988,2.893,13.55,7.991v56.039H198.061z M253.692,189.085
		c-7.734,0-15.143,3.175-21.04,8.794c-5.9-5.619-13.312-8.794-21.05-8.794c-4.726,0-9.328,1.19-13.54,3.394v-6.104
		c0-5.15,4.189-9.34,9.34-9.34h50.5c5.15,0,9.34,4.19,9.34,9.34v6.11C263.026,190.277,258.42,189.085,253.692,189.085z"/>
	<path d="M232.645,151.766c28.062,0,50.891-22.822,50.891-50.875c0-19.805-11.379-36.992-27.937-45.398
		c5.899-5.887,9.554-14.021,9.554-22.993c0-17.921-14.579-32.5-32.5-32.5s-32.5,14.579-32.5,32.5c0,8.971,3.654,17.104,9.551,22.99
		c-16.555,8.405-27.934,25.594-27.934,45.401C181.77,128.944,204.592,151.766,232.645,151.766z M232.652,15
		c9.649,0,17.5,7.851,17.5,17.5s-7.851,17.5-17.5,17.5s-17.5-7.851-17.5-17.5S223.003,15,232.652,15z M268.535,100.891
		c0,19.781-16.101,35.875-35.891,35.875c-19.781,0-35.875-16.093-35.875-35.875C196.77,81.101,212.863,65,232.645,65
		C252.435,65,268.535,81.101,268.535,100.891z"/>
</g>
<g>
</g>
<g>
</g>
<g>
</g>
<g>
</g>
<g>
</g>
<g>
</g>
<g>
</g>
<g>
</g>
<g>
</g>
<g>
</g>
<g>
</g>
<g>
</g>
<g>
</g>
<g>
</g>
<g>
</g>
</svg>
