<?xml version="1.0" encoding="iso-8859-1"?>
<!-- Generator: Adobe Illustrator 19.0.0, SVG Export Plug-In . SVG Version: 6.00 Build 0)  -->
<svg version="1.1" id="Capa_1" xmlns="http://www.w3.org/2000/svg" xmlns:xlink="http://www.w3.org/1999/xlink" x="0px" y="0px"
	 viewBox="0 0 470.306 470.306" style="enable-background:new 0 0 470.306 470.306;" xml:space="preserve">
<g>
	<path d="M161.504,93.027c-1.212,5.084-0.817,10.47,1.205,15.352c2.022,4.882,5.551,8.969,10.004,11.707
		c0.826,5.161,3.251,9.986,6.987,13.722c4.679,4.679,11.065,7.303,17.681,7.303c0.34,0,0.682-0.007,1.023-0.021
		c0.512,0.5,1.002,0.99,1.503,1.471c0.215,0.231,0.442,0.452,0.688,0.656c9.077,8.402,21.207,13.549,34.522,13.549
		c13.28,0,25.383-5.116,34.455-13.475c0.298-0.24,0.568-0.506,0.823-0.784c0.481-0.463,0.952-0.936,1.415-1.417
		c7.009,0.288,13.822-2.362,18.742-7.282c3.735-3.736,6.161-8.561,6.987-13.722c4.452-2.738,7.981-6.825,10.003-11.707
		c2.022-4.881,2.417-10.267,1.204-15.352c3.066-4.233,4.763-9.36,4.763-14.644s-1.696-10.411-4.763-14.644
		c1.213-5.084,0.818-10.471-1.204-15.352c-2.021-4.882-5.551-8.969-10.003-11.707c-0.826-5.162-3.252-9.986-6.987-13.722
		c-3.736-3.737-8.561-6.162-13.723-6.988c-2.738-4.453-6.825-7.982-11.707-10.004s-10.267-2.417-15.352-1.205
		C245.535,1.696,240.408,0,235.124,0s-10.411,1.697-14.644,4.763c-5.086-1.213-10.47-0.817-15.352,1.204
		c-4.881,2.022-8.969,5.552-11.707,10.004c-5.161,0.826-9.986,3.251-13.722,6.987s-6.162,8.561-6.987,13.722
		c-4.453,2.738-7.982,6.825-10.004,11.707c-2.022,4.881-2.417,10.267-1.204,15.352c-3.066,4.233-4.762,9.36-4.762,14.644
		S158.438,88.793,161.504,93.027z M176.785,62.225c-1.228-2.597-1.305-5.473-0.218-8.097s3.175-4.603,5.88-5.571
		c3.109-1.113,5.124-4.129,4.963-7.428c-0.141-2.869,0.888-5.556,2.896-7.564c2.009-2.008,4.704-3.042,7.564-2.896
		c3.307,0.148,6.314-1.854,7.428-4.963c0.968-2.705,2.947-4.793,5.571-5.88s5.498-1.011,8.097,0.218
		c2.984,1.41,6.542,0.704,8.761-1.743c1.93-2.128,4.557-3.3,7.397-3.3s5.467,1.172,7.398,3.301c2.218,2.446,5.773,3.156,8.762,1.742
		c2.595-1.228,5.471-1.305,8.096-0.218c2.624,1.087,4.603,3.175,5.57,5.879c1.113,3.11,4.147,5.125,7.428,4.963
		c2.878-0.145,5.557,0.888,7.564,2.896c2.009,2.008,3.038,4.695,2.897,7.565c-0.161,3.298,1.854,6.314,4.963,7.427
		c2.704,0.968,4.792,2.947,5.88,5.571c1.087,2.624,1.009,5.5-0.219,8.097c-1.412,2.986-0.704,6.543,1.742,8.761
		c2.129,1.93,3.301,4.557,3.301,7.397s-1.172,5.467-3.301,7.397c-2.446,2.218-3.154,5.776-1.742,8.762
		c1.228,2.597,1.306,5.473,0.219,8.097s-3.175,4.603-5.88,5.571c-0.703,0.252-1.34,0.612-1.919,1.04
		c0.073-1.111,0.123-2.229,0.123-3.358c0-1.983-0.126-3.936-0.348-5.86c1.706-1.375,2.799-3.478,2.799-5.84
		c0-3.689-2.665-6.749-6.174-7.376c-7.564-18.635-25.85-31.816-47.167-31.816c-21.309,0-39.589,13.179-47.151,31.813
		c-3.519,0.618-6.195,3.683-6.195,7.379c0,2.37,1.102,4.479,2.818,5.854c-0.221,1.92-0.346,3.868-0.346,5.846
		c0,1.129,0.05,2.246,0.123,3.357c-0.578-0.427-1.216-0.787-1.918-1.039c-2.705-0.968-4.792-2.947-5.879-5.571
		c-1.087-2.625-1.01-5.5,0.218-8.097c1.412-2.986,0.704-6.543-1.743-8.762c-2.128-1.929-3.3-4.556-3.3-7.397s1.172-5.467,3.3-7.397
		C177.489,68.768,178.196,65.21,176.785,62.225z M235.13,109.765c-12.216,0-23.377,5.501-30.732,14.637
		c-3.271-5.408-5.157-11.743-5.157-18.511c0-1.421,0.092-2.821,0.254-4.2h71.258c0.161,1.379,0.254,2.778,0.254,4.2
		c0,6.767-1.886,13.102-5.158,18.509C258.496,115.265,247.34,109.765,235.13,109.765z M265.416,86.691h-60.587
		c6.37-10.022,17.561-16.692,30.287-16.692C247.847,69.999,259.043,76.668,265.416,86.691z M214.864,135.482
		c4.491-6.638,11.985-10.718,20.266-10.718c8.274,0,15.762,4.078,20.252,10.714c-5.771,3.962-12.751,6.287-20.266,6.287
		C227.607,141.765,220.632,139.442,214.864,135.482z"/>
	<path d="M334.991,239.463c-7.525-22.663-22.965-41.269-43.696-52.817c-0.878-4.599-3.105-8.855-6.501-12.304
		c-4.391-4.459-10.413-7.086-16.629-7.293c-0.165-3.701-3.042-6.8-6.833-7.131c-4.118-0.363-7.764,2.693-8.124,6.819l-0.025,0.292
		H217.05l-0.025-0.292c-0.36-4.126-4.001-7.168-8.124-6.819c-3.791,0.331-6.669,3.43-6.833,7.131
		c-6.21,0.211-12.227,2.838-16.614,7.293c-3.395,3.448-5.622,7.702-6.501,12.299c-43.936,24.503-61.244,79.689-38.476,125.093
		c1.315,2.624,3.962,4.14,6.71,4.14c1.13,0,2.277-0.256,3.356-0.797c3.703-1.856,5.199-6.363,3.342-10.066
		c-17.815-35.528-6.473-78.172,24.927-100.561c0.781,30.56,2.7,84.251,2.723,84.88c0.106,2.964,1.925,5.469,4.481,6.594
		c1.397,10.045,5.805,19.137,12.292,26.326l1.732,32.982l-39.36,95.857c-0.95,2.313-0.684,4.948,0.708,7.025
		s3.729,3.324,6.229,3.324h10.852c-0.224,1.201-0.158,2.473,0.251,3.714c1.04,3.154,3.973,5.153,7.122,5.153
		c0.779,0,1.57-0.122,2.35-0.379l26.761-8.823c0.029-0.01,0.128-0.042,0.128-0.042c0.021-0.007,0.04-0.019,0.061-0.026
		c0.358-0.121,0.704-0.268,1.035-0.439c0.024-0.012,0.05-0.023,0.074-0.036c0.321-0.171,0.624-0.368,0.915-0.582
		c0.058-0.043,0.116-0.085,0.173-0.129c0.275-0.214,0.535-0.446,0.778-0.696c0.043-0.044,0.083-0.091,0.125-0.137
		c0.236-0.256,0.457-0.525,0.656-0.812c0.01-0.014,0.022-0.028,0.031-0.042c0.205-0.3,0.382-0.619,0.542-0.947
		c0.026-0.053,0.052-0.106,0.077-0.16c0.149-0.326,0.277-0.662,0.379-1.011c0.014-0.048,0.024-0.098,0.038-0.146
		c0.09-0.332,0.159-0.671,0.203-1.02c0.005-0.039,0.013-0.076,0.017-0.115c0.03-0.271,0.048-0.546,0.048-0.825
		c0-0.093-0.01-0.183-0.014-0.275c-0.001-0.04,0.006-0.078,0.004-0.118l-6.283-119.653c6.428,3.05,13.608,4.763,21.182,4.763
		c7.575,0,14.755-1.713,21.183-4.763l-6.283,119.653c-0.002,0.038,0.005,0.074,0.003,0.112c-0.003,0.094-0.014,0.186-0.014,0.281
		c0,0.28,0.018,0.555,0.048,0.827c0.004,0.036,0.012,0.07,0.016,0.106c0.044,0.352,0.114,0.695,0.204,1.03
		c0.013,0.047,0.023,0.095,0.036,0.142c0.102,0.349,0.23,0.687,0.38,1.013c0.024,0.053,0.05,0.105,0.076,0.158
		c0.16,0.329,0.338,0.648,0.542,0.948c0.01,0.014,0.022,0.028,0.031,0.042c0.199,0.287,0.42,0.556,0.656,0.812
		c0.042,0.046,0.081,0.093,0.125,0.137c0.242,0.25,0.503,0.481,0.778,0.696c0.057,0.044,0.114,0.086,0.172,0.129
		c0.291,0.214,0.594,0.412,0.915,0.583c0.024,0.013,0.05,0.023,0.074,0.035c0.332,0.172,0.678,0.319,1.036,0.44
		c0.021,0.007,0.039,0.019,0.06,0.026l0.097,0.032c0.031,0.01,26.791,8.833,26.791,8.833c0.78,0.257,1.571,0.379,2.35,0.379
		c3.149,0,6.082-2,7.122-5.153c0.409-1.242,0.475-2.514,0.251-3.714h10.852c2.501,0,4.837-1.247,6.229-3.324
		s1.658-4.712,0.708-7.025l-39.36-95.856l1.732-32.983c6.487-7.189,10.895-16.282,12.292-26.327c2.556-1.125,4.375-3.63,4.481-6.594
		c0.023-0.629,1.942-54.326,2.723-84.885c13.695,9.732,23.926,23.499,29.321,39.745c6.706,20.197,5.146,41.796-4.394,60.82
		c-1.856,3.703-0.36,8.209,3.342,10.066c1.079,0.542,2.227,0.797,3.356,0.797c2.748,0,5.395-1.516,6.71-4.14
		C341.106,289.129,342.96,263.463,334.991,239.463z M266.045,182.029h1.329c2.539,0,4.93,1.008,6.731,2.838
		c1.721,1.748,2.648,4.017,2.612,6.39c-0.3,19.554-2.072,71.203-2.741,90.305h-16.622L266.045,182.029z M242.297,281.562h-14.346
		l-8.69-99.533h31.726L242.297,281.562z M202.874,182.029h1.33l8.69,99.533h-16.623c-0.669-19.102-2.44-70.751-2.741-90.305
		c-0.037-2.374,0.891-4.643,2.612-6.39C197.944,183.037,200.335,182.029,202.874,182.029z M201.359,296.562h19.718h28.093h19.718
		c-3.437,15.479-17.266,27.093-33.764,27.093C218.625,323.655,204.796,312.042,201.359,296.562z M178.806,446.438l23.074-56.193
		l2.951,56.193H178.806z M265.418,446.438l2.951-56.193l23.073,56.193H265.418z"/>
</g>
<g>
</g>
<g>
</g>
<g>
</g>
<g>
</g>
<g>
</g>
<g>
</g>
<g>
</g>
<g>
</g>
<g>
</g>
<g>
</g>
<g>
</g>
<g>
</g>
<g>
</g>
<g>
</g>
<g>
</g>
</svg>
