<?xml version="1.0" encoding="iso-8859-1"?>
<!-- Generator: Adobe Illustrator 19.0.0, SVG Export Plug-In . SVG Version: 6.00 Build 0)  -->
<svg version="1.1" id="Capa_1" xmlns="http://www.w3.org/2000/svg" xmlns:xlink="http://www.w3.org/1999/xlink" x="0px" y="0px"
	 viewBox="0 0 455.307 455.307" style="enable-background:new 0 0 455.307 455.307;" xml:space="preserve">
<g>
	<path d="M366.69,91.736c-4.132-0.451-7.821,2.524-8.271,6.64c-2.643,24.177-15.912,44.653-34.632,57.319l-10.48-71.008h8.577
		c4.143,0,7.5-3.358,7.5-7.5C329.383,34.626,294.764,0,252.211,0c-8.377,0-16.624,1.357-24.558,4.037
		C219.72,1.357,211.473,0,203.096,0c-42.553,0-77.172,34.626-77.172,77.188c0,4.142,3.357,7.5,7.5,7.5h8.577l-10.48,71.005
		c-18.719-12.667-31.99-33.141-34.632-57.316c-0.449-4.117-4.132-7.092-8.271-6.64c-4.117,0.45-7.09,4.153-6.641,8.271
		c3.417,31.252,21.771,57.302,47.158,71.857l-5.614,38.035c-0.604,4.098,2.228,7.91,6.325,8.515
		c4.091,0.604,7.909-2.226,8.515-6.325l0.162-1.094l4.795-32.488c10.261,3.806,21.29,5.891,32.702,5.891
		c0.679,0,1.36-0.013,2.042-0.028v26.625v63.069c0,12.752,4.841,24.393,12.778,33.189l6.635,126.359l-21.447,7.071
		c-3.934,1.297-6.071,5.537-4.774,9.471c1.04,3.154,3.973,5.154,7.122,5.154c0.778,0,1.57-0.122,2.35-0.379l26.889-8.865
		c3.213-1.059,5.318-4.138,5.141-7.516l-6.283-119.653c6.428,3.05,13.609,4.763,21.183,4.763s14.755-1.713,21.183-4.763
		l-6.283,119.653c-0.178,3.378,1.928,6.457,5.141,7.516l26.889,8.865c0.78,0.257,1.571,0.379,2.35,0.379
		c3.149,0,6.082-2,7.122-5.154c1.297-3.934-0.841-8.174-4.774-9.471l-21.447-7.071l6.635-126.359
		c7.937-8.796,12.778-20.437,12.778-33.189l0-33.057c0-0.026,0-30.012,0-30.012l0-26.625c0.681,0.015,1.362,0.028,2.041,0.028
		c11.411,0,22.44-2.085,32.701-5.892l4.795,32.489l0.162,1.094c0.551,3.727,3.753,6.406,7.41,6.406c0.364,0,0.733-0.027,1.104-0.081
		c4.098-0.605,6.93-4.417,6.325-8.515l-5.614-38.036c25.386-14.556,43.741-40.606,47.158-71.855
		C373.78,95.889,370.807,92.187,366.69,91.736z M262.246,260.304h-69.186v-11.811h69.186L262.246,260.304z M193.092,275.304h69.123
		c-0.657,18.501-15.903,33.352-34.561,33.352S193.749,293.805,193.092,275.304z M193.061,233.494v-57.12
		c0-5.152,4.191-9.343,9.343-9.343h50.5c5.152,0,9.344,4.191,9.344,9.343l0,57.12H193.061z M276.199,169.312
		c-3.034-9.989-12.328-17.282-23.296-17.282h-50.5c-10.968,0-20.261,7.292-23.295,17.282c-11.802,0.455-23.189-1.709-33.545-6.027
		l12.546-85.003c0.318-2.157-0.318-4.345-1.742-5.996c-1.425-1.65-3.497-2.599-5.678-2.599h-9.316
		C145.088,38.922,171.353,15,203.096,15c7.494,0,14.863,1.351,21.902,4.017c1.711,0.648,3.6,0.648,5.311,0
		C237.348,16.351,244.717,15,252.211,15c31.743,0,58.008,23.922,61.723,54.688h-9.316c-2.181,0-4.253,0.949-5.678,2.599
		c-1.424,1.65-2.061,3.839-1.742,5.996l12.546,85.005C299.389,167.604,288.002,169.767,276.199,169.312z"/>
	<path d="M271.036,40h-86.765c-4.143,0-7.5,3.358-7.5,7.5v29.391v14c0,28.052,22.822,50.875,50.874,50.875
		c28.062,0,50.891-22.822,50.891-50.875v-14V47.5C278.536,43.358,275.179,40,271.036,40z M263.536,69.392h-71.765V55h71.765V69.392z
		 M191.772,84.392h71.765v6.5c0,19.781-16.101,35.875-35.891,35.875c-19.781,0-35.874-16.093-35.874-35.875V84.392z"/>
</g>
<g>
</g>
<g>
</g>
<g>
</g>
<g>
</g>
<g>
</g>
<g>
</g>
<g>
</g>
<g>
</g>
<g>
</g>
<g>
</g>
<g>
</g>
<g>
</g>
<g>
</g>
<g>
</g>
<g>
</g>
</svg>
