<?xml version="1.0" encoding="iso-8859-1"?>
<!-- Generator: Adobe Illustrator 19.0.0, SVG Export Plug-In . SVG Version: 6.00 Build 0)  -->
<svg version="1.1" id="Capa_1" xmlns="http://www.w3.org/2000/svg" xmlns:xlink="http://www.w3.org/1999/xlink" x="0px" y="0px"
	 viewBox="0 0 440.307 440.307" style="enable-background:new 0 0 440.307 440.307;" xml:space="preserve">
<g>
	<path d="M296.036,145.352v-69.46C296.036,34.045,261.992,0,220.146,0c-41.837,0-75.875,34.045-75.875,75.892v69.46
		c-24,12.552-39.253,37.441-39.253,64.721c0,30.219,19.059,57.502,46.985,68.219v122.863c0,4.142,3.358,7.5,7.5,7.5h29.947
		l0.523,9.957l-21.447,7.071c-3.934,1.297-6.071,5.538-4.774,9.472c1.04,3.154,3.972,5.153,7.121,5.153
		c0.779,0,1.57-0.122,2.35-0.379l26.889-8.866c3.212-1.059,5.318-4.138,5.141-7.516l-0.782-14.892h31.364l-0.782,14.892
		c-0.177,3.378,1.929,6.457,5.141,7.516l26.889,8.866c0.78,0.257,1.571,0.379,2.35,0.379c3.149,0,6.082-2,7.121-5.153
		c1.297-3.934-0.84-8.174-4.774-9.472l-21.447-7.071l0.523-9.957h29.946c4.142,0,7.5-3.358,7.5-7.5V278.292
		c27.927-10.717,46.986-38,46.986-68.22C335.289,182.792,320.035,157.904,296.036,145.352z M167.004,393.654V282.269
		c3.647,0.556,7.341,0.845,11.056,0.845h84.188c3.715,0,7.409-0.288,11.055-0.844v111.385H167.004z M278.676,265.73
		c-0.054,0.016-0.102,0.043-0.155,0.06c-5.263,1.54-10.737,2.324-16.273,2.324h-34.594v-35h34.595
		c14.954,0,27.12-12.166,27.12-27.12v-19.62c0-4.142-3.358-7.5-7.5-7.5s-7.5,3.358-7.5,7.5v19.62c0,6.683-5.437,12.12-12.12,12.12
		H178.06c-6.683,0-12.121-5.437-12.121-12.12v-19.62c0-4.142-3.358-7.5-7.5-7.5s-7.5,3.358-7.5,7.5v19.62
		c0,14.954,12.166,27.12,27.121,27.12h34.593v35H178.06c-5.535,0-11.008-0.783-16.271-2.323c-0.054-0.017-0.103-0.045-0.157-0.061
		c-24.501-7.247-41.613-30.134-41.613-55.658c0-22.994,13.649-43.854,34.772-53.144c0.081-0.035,0.152-0.084,0.23-0.122
		c7.285-3.165,15.034-4.776,23.039-4.776h54.188c4.142,0,7.5-3.358,7.5-7.5s-3.358-7.5-7.5-7.5H178.06
		c-6.413,0-12.698,0.823-18.789,2.448V75.892c0-33.576,27.308-60.892,60.875-60.892c33.575,0,60.891,27.316,60.891,60.892v63.587
		c-6.091-1.625-12.376-2.448-18.789-2.448c-4.142,0-7.5,3.358-7.5,7.5s3.358,7.5,7.5,7.5c8.004,0,15.752,1.61,23.038,4.775
		c0.079,0.038,0.151,0.087,0.232,0.123c21.123,9.289,34.771,30.148,34.771,53.143C320.289,235.596,303.177,258.483,278.676,265.73z"
		/>
	<path d="M271.036,75.892c0-28.062-22.829-50.892-50.89-50.892c-28.053,0-50.875,22.83-50.875,50.892
		c0,28.052,22.822,50.875,50.875,50.875C248.207,126.766,271.036,103.944,271.036,75.892z M220.146,111.766
		c-19.782,0-35.875-16.093-35.875-35.875c0-19.791,16.093-35.892,35.875-35.892c19.79,0,35.89,16.101,35.89,35.892
		C256.036,95.673,239.936,111.766,220.146,111.766z"/>
</g>
<g>
</g>
<g>
</g>
<g>
</g>
<g>
</g>
<g>
</g>
<g>
</g>
<g>
</g>
<g>
</g>
<g>
</g>
<g>
</g>
<g>
</g>
<g>
</g>
<g>
</g>
<g>
</g>
<g>
</g>
</svg>
