<?xml version="1.0" encoding="iso-8859-1"?>
<!-- Generator: Adobe Illustrator 19.0.0, SVG Export Plug-In . SVG Version: 6.00 Build 0)  -->
<svg version="1.1" id="Capa_1" xmlns="http://www.w3.org/2000/svg" xmlns:xlink="http://www.w3.org/1999/xlink" x="0px" y="0px"
	 viewBox="0 0 440.307 440.307" style="enable-background:new 0 0 440.307 440.307;" xml:space="preserve">
<g>
	<path d="M159.271,75.892c0-20.916,10.6-39.399,26.706-50.367c3.714,13.349,10.356,23.547,17.352,31.124
		c-6.745,7.439-16.317,11.742-26.575,11.742c-1.99,0-3.898,0.791-5.305,2.198c-1.407,1.408-2.196,3.317-2.195,5.307
		c0.02,28.05,22.849,50.869,50.891,50.869c28.061,0,50.891-22.822,50.892-50.874c0-1.989-0.79-3.897-2.196-5.303
		c-1.407-1.406-3.314-2.197-5.304-2.197c-15.167,0-31.674-5.834-44.332-17.031c-0.5-0.646-1.115-1.219-1.837-1.689
		c-8.329-7.96-14.766-18.383-17.689-31.121c6.4-2.293,13.288-3.551,20.467-3.551c33.575,0,60.891,27.316,60.891,60.892v68.639
		c0.002,4.144,3.359,7.5,7.5,7.5c4.143,0,7.5-3.358,7.5-7.5V75.892C296.036,34.045,261.992,0,220.146,0
		c-11.336,0-22.09,2.517-31.758,6.994c-0.195,0.079-0.386,0.165-0.573,0.259c-25.71,12.165-43.544,38.353-43.544,68.639v68.639
		c0,4.142,3.358,7.5,7.5,7.5c4.141,0,7.498-3.356,7.5-7.496C159.271,144.53,159.271,75.892,159.271,75.892z M255.344,82.928
		c-3.281,16.424-17.816,28.838-35.198,28.838c-17.434,0-32.011-12.507-35.229-29.024c11.422-1.835,21.823-7.487,29.575-16.068
		C226.482,75.6,240.982,81.323,255.344,82.928z"/>
	<path d="M313.021,209.464c-7.531-22.68-22.989-41.295-43.742-52.842c-0.922-4.638-3.167-8.802-6.321-12.089
		c-4.433-4.619-10.661-7.504-17.554-7.504h-50.5c-6.893,0-13.121,2.884-17.554,7.504c-3.154,3.287-5.399,7.451-6.321,12.089
		c-20.754,11.546-36.212,30.162-43.742,52.841c-7.969,24-6.115,49.666,5.22,72.271c1.315,2.624,3.962,4.14,6.71,4.14
		c1.13,0,2.277-0.257,3.356-0.797c3.703-1.857,5.199-6.364,3.342-10.066c-17.761-35.419-6.537-77.906,24.645-100.349v84.4
		c0,12.753,4.841,24.394,12.779,33.189l6.635,126.359l-21.447,7.071c-3.934,1.297-6.071,5.537-4.774,9.471
		c1.04,3.154,3.973,5.154,7.122,5.154c0.779,0,1.57-0.122,2.35-0.379l26.889-8.865c3.212-1.059,5.318-4.138,5.141-7.516
		l-6.283-119.653c6.428,3.049,13.608,4.762,21.182,4.762c7.575,0,14.755-1.713,21.183-4.763l-6.283,119.653
		c-0.178,3.378,1.928,6.457,5.141,7.516l26.889,8.865c0.78,0.257,1.571,0.379,2.35,0.379c3.149,0,6.082-2,7.122-5.154
		c1.297-3.934-0.841-8.174-4.774-9.471l-21.447-7.071l6.635-126.359c7.937-8.796,12.778-20.437,12.778-33.189l0.001-84.408
		c13.551,9.72,23.681,23.403,29.038,39.536c6.706,20.197,5.146,41.797-4.394,60.821c-1.856,3.703-0.36,8.209,3.342,10.066
		c1.079,0.541,2.227,0.797,3.356,0.797c2.748,0,5.395-1.516,6.71-4.14C319.136,259.13,320.989,233.464,313.021,209.464z
		 M185.56,199.681v-16.325h69.187l0,16.325H185.56z M254.746,259.063c0,1.102-0.057,2.191-0.159,3.268h-68.868
		c-0.101-1.076-0.159-2.165-0.159-3.268v-13.057h2.5c4.142,0,7.5-3.358,7.5-7.5c-0.001-4.143-3.358-7.5-7.5-7.5h-2.5v-16.325h69.187
		l0,16.325l-32.593-0.001c-4.142,0-7.5,3.358-7.5,7.5c0,4.142,3.358,7.5,7.5,7.5l32.593,0.001L254.746,259.063z M254.747,161.374
		v6.982H185.56v-6.982c0-5.152,4.191-9.343,9.343-9.343h50.5C250.556,152.031,254.747,156.222,254.747,161.374z M190.796,277.331
		h58.714c-6.116,9.793-16.985,16.325-29.357,16.325C207.782,293.656,196.912,287.124,190.796,277.331z"/>
</g>
<g>
</g>
<g>
</g>
<g>
</g>
<g>
</g>
<g>
</g>
<g>
</g>
<g>
</g>
<g>
</g>
<g>
</g>
<g>
</g>
<g>
</g>
<g>
</g>
<g>
</g>
<g>
</g>
<g>
</g>
</svg>
