<?xml version="1.0" encoding="iso-8859-1"?>
<!-- Generator: Adobe Illustrator 19.0.0, SVG Export Plug-In . SVG Version: 6.00 Build 0)  -->
<svg version="1.1" id="Capa_1" xmlns="http://www.w3.org/2000/svg" xmlns:xlink="http://www.w3.org/1999/xlink" x="0px" y="0px"
	 viewBox="0 0 440.307 440.307" style="enable-background:new 0 0 440.307 440.307;" xml:space="preserve">
<g>
	<path d="M239.743,174.374c0-4.142-3.357-7.5-7.5-7.5h-24.18c-4.143,0-7.5,3.358-7.5,7.5s3.357,7.5,7.5,7.5h24.18
		C236.386,181.874,239.743,178.516,239.743,174.374z"/>
	<path d="M359.19,76.736c-4.134-0.451-7.821,2.524-8.271,6.64c-3.52,32.199-25.878,57.839-54.882,67.186V75.892
		C296.036,34.045,261.992,0,220.146,0c-41.837,0-75.874,34.045-75.874,75.892v74.67c-29-9.348-51.363-34.988-54.883-67.185
		c-0.45-4.117-4.134-7.092-8.271-6.64c-4.117,0.45-7.09,4.153-6.641,8.271c4.367,39.941,33.123,71.393,69.795,81.187v72.869
		c0,4.142,3.357,7.5,7.5,7.5c4.142,0,7.5-3.357,7.5-7.499c0-0.001,0-70.13,0-70.13c3.05,0.301,6.133,0.463,9.247,0.463
		c0.679,0,1.36-0.013,2.042-0.028v69.695v19.999c0,12.752,4.841,24.393,12.778,33.189l6.635,126.359l-21.447,7.071
		c-3.934,1.297-6.071,5.537-4.774,9.471c1.04,3.154,3.973,5.154,7.122,5.154c0.778,0,1.57-0.122,2.35-0.379l26.889-8.865
		c3.213-1.059,5.318-4.138,5.141-7.516l-6.283-119.653c6.428,3.05,13.609,4.763,21.184,4.763s14.755-1.713,21.184-4.763
		l-6.283,119.653c-0.178,3.378,1.928,6.457,5.141,7.516l26.889,8.865c0.78,0.257,1.571,0.379,2.35,0.379
		c3.149,0,6.082-2,7.122-5.154c1.297-3.934-0.841-8.174-4.774-9.471l-21.447-7.071l6.635-126.359
		c7.937-8.796,12.778-20.437,12.778-33.189l0-19.999l0.001-69.695c0.681,0.015,1.362,0.028,2.041,0.028
		c3.114,0,6.198-0.162,9.248-0.463v70.13c0,4.143,3.358,7.5,7.5,7.5c4.143,0,7.5-3.358,7.5-7.5v-72.87
		c36.67-9.796,65.427-41.248,69.794-81.186C366.28,80.889,363.307,77.187,359.19,76.736z M220.146,59.069
		c7.604,12.371,20.35,21.261,35.235,23.67c-3.207,16.518-17.787,29.028-35.235,29.028c-17.435,0-32.013-12.51-35.23-29.028
		C199.799,80.328,212.543,71.438,220.146,59.069z M185.561,259.063v-97.689c0-5.152,4.191-9.343,9.343-9.343h50.5
		c5.152,0,9.344,4.191,9.344,9.343l-0.001,97.689c0,19.075-15.519,34.593-34.593,34.593S185.561,278.138,185.561,259.063z
		 M268.699,154.312c-3.034-9.989-12.328-17.282-23.296-17.282h-50.5c-10.968,0-20.261,7.292-23.295,17.282
		c-4.174,0.161-8.294-0.007-12.337-0.483V75.892c0-31.034,23.336-56.702,53.374-60.413V32.5c0,19.791-16.101,35.891-35.892,35.891
		c-1.99,0-3.898,0.791-5.306,2.199c-1.406,1.408-2.195,3.317-2.194,5.307c0.021,28.049,22.851,50.869,50.892,50.869
		c28.061,0,50.891-22.822,50.892-50.874c0-1.989-0.79-3.897-2.196-5.303c-1.407-1.406-3.314-2.197-5.304-2.197
		c-19.791,0-35.892-16.101-35.892-35.891V15.478c30.047,3.71,53.391,29.378,53.391,60.413v77.937
		C276.993,154.305,272.873,154.473,268.699,154.312z"/>
</g>
<g>
</g>
<g>
</g>
<g>
</g>
<g>
</g>
<g>
</g>
<g>
</g>
<g>
</g>
<g>
</g>
<g>
</g>
<g>
</g>
<g>
</g>
<g>
</g>
<g>
</g>
<g>
</g>
<g>
</g>
</svg>
