<?xml version="1.0" encoding="iso-8859-1"?>
<!-- Generator: Adobe Illustrator 19.0.0, SVG Export Plug-In . SVG Version: 6.00 Build 0)  -->
<svg version="1.1" id="Capa_1" xmlns="http://www.w3.org/2000/svg" xmlns:xlink="http://www.w3.org/1999/xlink" x="0px" y="0px"
	 viewBox="0 0 466.641 466.641" style="enable-background:new 0 0 466.641 466.641;" xml:space="preserve">
<g>
	<path d="M327.534,232.328c0-26.559-19.973-48.526-45.685-51.708c-1.044-3.426-2.827-6.574-5.23-9.225
		c4.803-7.764,7.584-16.906,7.584-26.687v-41.866c7.572-2.851,12.983-10.145,12.983-18.696c0-9.734-6.991-17.856-16.213-19.636
		l-29.719-35.162c1.417-2.757,2.233-5.873,2.233-9.181C253.488,9.047,244.441,0,233.321,0s-20.167,9.047-20.167,20.167
		c0,3.308,0.816,6.423,2.233,9.181L185.668,64.51c-9.222,1.78-16.213,9.902-16.213,19.636c0,8.551,5.411,15.845,12.983,18.696
		v41.866c0,9.781,2.781,18.923,7.584,26.687c-2.402,2.651-4.186,5.799-5.23,9.225c-25.712,3.182-45.685,25.149-45.685,51.708
		c0,21.317,12.627,39.912,31.628,47.954c-0.286,1.345-0.443,2.737-0.443,4.167c0,10.056,7.468,18.379,17.145,19.772
		c2.197,5.341,5.288,10.179,9.068,14.353l6.636,126.373l-21.447,7.071c-3.934,1.297-6.071,5.538-4.774,9.472
		c1.04,3.154,3.973,5.153,7.122,5.153c0.779,0,1.57-0.122,2.35-0.379l26.889-8.865c3.212-1.06,5.318-4.138,5.141-7.516
		l-6.284-119.685c6.49,3.084,13.696,4.794,21.185,4.794c7.488,0,14.694-1.71,21.184-4.794l-6.284,119.685
		c-0.177,3.378,1.929,6.457,5.141,7.516l26.889,8.865c0.78,0.257,1.571,0.379,2.35,0.379c3.149,0,6.082-2,7.122-5.153
		c1.297-3.934-0.841-8.174-4.774-9.472l-21.447-7.071l6.636-126.373c3.78-4.175,6.871-9.012,9.067-14.353
		c9.677-1.393,17.146-9.716,17.146-19.772c0-1.429-0.157-2.821-0.443-4.167C314.907,272.24,327.534,253.645,327.534,232.328z
		 M281.349,284.448c0,2.757-2.243,5-5,5h-86.057c-2.757,0-5-2.243-5-5c0-1.364,0.552-2.601,1.441-3.504
		c0.025-0.027,0.056-0.048,0.081-0.076c0.901-0.875,2.126-1.42,3.478-1.42h0.925c0.019,0,29.603,0,29.603,0
		c4.142,0,7.5-3.358,7.5-7.5v-22.81h10v22.81c0,4.142,3.358,7.5,7.5,7.5h29.583c0.019,0,0.945,0,0.945,0
		c1.35,0,2.573,0.543,3.474,1.417c0.028,0.031,0.062,0.056,0.091,0.087C280.799,281.854,281.349,283.086,281.349,284.448z
		 M204.456,304.448h57.728c-6.293,9.479-17.077,15.542-28.864,15.542C221.533,319.99,210.749,313.927,204.456,304.448z
		 M198.727,187.708c0-1.654,0.45-3.234,1.245-4.619c3.963,3.448,8.456,6.3,13.348,8.4v42.649h-14.593V187.708z M197.438,138.261
		c9.206,9.165,21.889,14.839,35.875,14.839c13.992,0,26.681-5.676,35.89-14.843v6.451c0,19.786-16.097,35.883-35.882,35.883
		s-35.882-16.097-35.882-35.883V138.261z M233.321,40.334c2.32,0,4.541-0.414,6.618-1.138l21.081,24.942h-55.398l21.081-24.942
		C228.779,39.92,231,40.334,233.321,40.334z M189.463,79.138h87.716c2.761,0,5.008,2.247,5.008,5.008
		c0,2.753-2.247,4.992-5.008,4.992h-87.716c-2.761,0-5.008-2.239-5.008-4.992C184.455,81.385,186.701,79.138,189.463,79.138z
		 M269.151,104.138c-0.998,18.896-16.69,33.962-35.839,33.962c-19.14,0-34.825-15.066-35.822-33.962H269.151z M267.914,187.708
		l0,46.431h-14.593v-42.649c4.893-2.1,9.385-4.952,13.348-8.4C267.464,184.474,267.914,186.054,267.914,187.708z M253.321,249.138
		h14.593l0,15.31h-14.593V249.138z M213.321,249.138v15.31h-14.593v-15.31H213.321z M228.321,195.342
		c1.646,0.161,3.313,0.248,5,0.248s3.354-0.087,5-0.248v38.796h-10V195.342z M238.488,20.167c0,2.849-2.318,5.167-5.167,5.167
		s-5.167-2.318-5.167-5.167S230.471,15,233.321,15S238.488,17.318,238.488,20.167z M154.107,232.328
		c0-17.899,12.735-32.88,29.62-36.358v38.605c-2.909,1.032-4.997,3.8-4.997,7.063s2.087,6.031,4.997,7.063v16.876
		c-1.468,0.513-2.857,1.187-4.147,2.01C164.421,262.631,154.107,248.592,154.107,232.328z M287.061,267.587
		c-1.29-0.823-2.68-1.498-4.148-2.01l0-16.876c2.909-1.032,4.997-3.8,4.997-7.063s-2.087-6.031-4.997-7.063l0-38.605
		c16.885,3.478,29.62,18.458,29.62,36.358C312.534,248.592,302.22,262.631,287.061,267.587z"/>
</g>
<g>
</g>
<g>
</g>
<g>
</g>
<g>
</g>
<g>
</g>
<g>
</g>
<g>
</g>
<g>
</g>
<g>
</g>
<g>
</g>
<g>
</g>
<g>
</g>
<g>
</g>
<g>
</g>
<g>
</g>
</svg>
