<?xml version="1.0" encoding="iso-8859-1"?>
<!-- Generator: Adobe Illustrator 19.0.0, SVG Export Plug-In . SVG Version: 6.00 Build 0)  -->
<svg version="1.1" id="Capa_1" xmlns="http://www.w3.org/2000/svg" xmlns:xlink="http://www.w3.org/1999/xlink" x="0px" y="0px"
	 viewBox="0 0 449.685 449.685" style="enable-background:new 0 0 449.685 449.685;" xml:space="preserve">
<path d="M274.435,268.442v-1.496c25.198-3.648,44.621-25.381,44.621-51.573c0-26.556-19.968-48.521-45.676-51.707
	c-2.159-7.08-7.466-12.796-14.281-15.522c1.592-1.453,3.104-3.006,4.516-4.665c7.808-9.179,12.107-20.88,12.107-32.949l0.003-59.64
	c0-28.061-22.829-50.89-50.889-50.89c-28.053,0-50.876,22.829-50.876,50.89l0.002,59.639c0,12.068,4.3,23.77,12.107,32.949
	c1.412,1.659,2.924,3.212,4.516,4.665c-6.816,2.725-12.122,8.441-14.281,15.521c-25.708,3.187-45.676,25.151-45.676,51.707
	c0,26.192,19.423,47.925,44.62,51.573v1.496c0,12.752,4.841,24.393,12.778,33.188l6.635,126.359l-21.447,7.071
	c-3.934,1.297-6.071,5.538-4.774,9.472c1.04,3.154,3.973,5.153,7.122,5.153c0.779,0,1.57-0.122,2.35-0.379l26.889-8.865
	c3.212-1.06,5.318-4.138,5.141-7.516l-6.283-119.653c6.428,3.05,13.608,4.763,21.183,4.763c7.575,0,14.755-1.713,21.183-4.762
	l-6.282,119.653c-0.178,3.378,1.928,6.457,5.141,7.516l26.889,8.865c0.78,0.257,1.571,0.379,2.35,0.379c3.149,0,6.082-2,7.122-5.153
	c1.297-3.934-0.841-8.174-4.774-9.472l-21.447-7.071l6.634-126.358C269.594,292.836,274.435,281.195,274.435,268.442z
	 M304.056,215.372c0,17.9-12.736,32.88-29.621,36.358l0.001-72.716C291.321,182.492,304.056,197.473,304.056,215.372z
	 M259.435,260.942h-13v-99.533h3.657c5.152,0,9.344,4.191,9.344,9.343L259.435,260.942z M231.435,161.409v99.533h-13.186v-99.533
	H231.435z M254.95,91.078l-8.676,13.064c-5.182-1.588-13.148-3.504-21.432-3.504c-8.289,0-16.262,1.918-21.443,3.507l-14.311-21.453
	c0.564-10.061,5.193-18.876,12.337-24.907C214.823,77.001,235.766,87.691,254.95,91.078z M214.82,50.729
	c3.167-0.88,6.524-1.35,10.015-1.35c17.25,0,31.289,11.477,34.901,27.298C243.951,74.483,226.297,66.183,214.82,50.729z M224.836,15
	c19.133,0,34.815,15.051,35.834,33.934c-9.547-9.386-22.268-14.555-35.835-14.555c-13.559,0-26.273,5.164-35.818,14.538
	C190.044,30.042,205.716,15,224.836,15z M188.963,109.533l5.181,7.767c1.987,2.977,5.812,4.13,9.12,2.763
	c0.107-0.044,10.813-4.425,21.579-4.425s21.473,4.38,21.567,4.42c0.939,0.393,1.921,0.581,2.89,0.581
	c2.451,0,4.825-1.206,6.251-3.352l5.172-7.788v1.029c0,8.511-3.03,16.761-8.533,23.231c-4.508,5.3-10.387,9.15-17.005,11.136
	c-6.682,2.008-13.999,2.009-20.687-0.001c-6.615-1.984-12.494-5.835-17.002-11.136c-5.502-6.469-8.533-14.719-8.533-23.231V109.533z
	 M199.592,161.409h3.657v99.533h-13v-90.189C190.249,165.6,194.441,161.409,199.592,161.409z M145.629,215.372
	c0-17.9,12.735-32.88,29.62-36.358v72.716C158.364,248.252,145.629,233.272,145.629,215.372z M191.078,275.942h12.172v2.5
	c0,4.142,3.358,7.5,7.5,7.5s7.5-3.358,7.5-7.5v-2.5h13.186v2.5c0,4.142,3.357,7.5,7.5,7.5s7.5-3.358,7.5-7.5v-2.5h12.172
	c-3.437,15.479-17.266,27.093-33.764,27.093C208.344,303.034,194.514,291.421,191.078,275.942z"/>
<g>
</g>
<g>
</g>
<g>
</g>
<g>
</g>
<g>
</g>
<g>
</g>
<g>
</g>
<g>
</g>
<g>
</g>
<g>
</g>
<g>
</g>
<g>
</g>
<g>
</g>
<g>
</g>
<g>
</g>
</svg>
