<?xml version="1.0" encoding="iso-8859-1"?>
<!-- Generator: Adobe Illustrator 19.0.0, SVG Export Plug-In . SVG Version: 6.00 Build 0)  -->
<svg version="1.1" id="Capa_1" xmlns="http://www.w3.org/2000/svg" xmlns:xlink="http://www.w3.org/1999/xlink" x="0px" y="0px"
	 viewBox="0 0 446.169 446.169" style="enable-background:new 0 0 446.169 446.169;" xml:space="preserve">
<g>
	<path d="M322.659,372.425c4.143,0,7.5-3.358,7.5-7.5l0-101.497c25.198-3.648,44.621-25.38,44.621-51.573
		c0-26.556-19.968-48.521-45.676-51.708c-3.042-9.976-12.33-17.256-23.288-17.256h-18.189c-1.031-2.911-3.8-5-7.064-5
		s-6.034,2.089-7.064,5h-18.183c-12.914,0-23.506,10.11-24.291,22.83c-7.216,19.601-21.52,35.33-40.405,44.349
		c-17.621,8.414-37.278,10.05-55.897,4.787v-64.461c0-4.142-3.357-7.5-7.5-7.5h-22.667H91.889c-4.143,0-7.5,3.358-7.5,7.5
		s3.357,7.5,7.5,7.5h5.166v9.402h-5.166c-4.143,0-7.5,3.358-7.5,7.5s3.357,7.5,7.5,7.5h5.166v33.804h-5.166
		c-4.143,0-7.5,3.358-7.5,7.5s3.357,7.5,7.5,7.5h5.166v9.402h-5.166c-4.143,0-7.5,3.358-7.5,7.5s3.357,7.5,7.5,7.5h5.166v9.402
		h-5.166c-4.143,0-7.5,3.358-7.5,7.5s3.357,7.5,7.5,7.5h5.166v37.005c-15.771,6.014-25.666,19.489-25.666,35.65
		c0,22.598,18.715,39,44.5,39s44.5-16.402,44.5-39c0-16.162-9.895-29.637-25.667-35.651V230.35
		c7.147,1.687,14.396,2.548,21.633,2.548c13.925,0,27.791-3.113,40.729-9.292c13.479-6.437,24.979-15.764,33.89-27.219v168.538
		c0,4.142,3.357,7.5,7.5,7.5h9.181l2.732,52.048l-21.447,7.071c-3.934,1.297-6.071,5.538-4.774,9.472
		c1.04,3.154,3.973,5.153,7.122,5.153c0.778,0,1.57-0.122,2.35-0.379l26.889-8.866c3.213-1.059,5.318-4.138,5.141-7.516
		l-2.992-56.983h35.785l-2.992,56.983c-0.178,3.378,1.928,6.457,5.141,7.516l26.889,8.866c0.78,0.257,1.571,0.379,2.35,0.379
		c3.149,0,6.082-2,7.122-5.153c1.297-3.934-0.841-8.174-4.774-9.472l-21.447-7.071l2.732-52.048H322.659z M115.889,376.563
		c-14.208,0-29.5-7.51-29.5-24c0-8.067,3.866-14.737,10.666-19.009v8.842c0,4.142,3.357,7.5,7.5,7.5h22.667
		c4.143,0,7.5-3.358,7.5-7.5v-8.843c6.801,4.272,10.667,10.942,10.667,19.009C145.389,369.052,130.097,376.563,115.889,376.563z
		 M112.055,157.896h7.667V191.7h-7.667V157.896z M119.722,334.896h-7.667V206.7h7.667V334.896z M245.973,357.425V167.236
		c0-5.152,4.191-9.343,9.343-9.343h17.747v22.5c0,4.142,3.357,7.5,7.5,7.5s7.5-3.358,7.5-7.5v-22.5h17.753
		c5.152,0,9.344,4.191,9.344,9.343l-0.001,190.189H245.973z M359.78,211.856c0,17.9-12.735,32.88-29.621,36.358l0-72.716
		C347.045,178.976,359.78,193.957,359.78,211.856z"/>
	<path d="M230.206,74.56c-0.336,2.376-0.522,4.779-0.522,7.194c0,28.052,22.822,50.875,50.874,50.875
		c28.062,0,50.891-22.822,50.891-50.875c0-2.418-0.186-4.825-0.524-7.205c7.522-5.209,12.461-13.895,12.461-23.716
		c0-9.812-4.933-18.861-13.194-24.207c-0.119-0.076-0.238-0.157-0.361-0.237L296.176,4.596C291.487,1.589,286.085,0,280.553,0
		c-5.459,0-10.778,1.546-15.401,4.473c-0.216,0.126-0.396,0.242-0.541,0.336c-0.026,0.017-0.057,0.037-0.089,0.058l-33.621,21.755
		c-8.247,5.363-13.171,14.415-13.171,24.211C217.73,60.661,222.676,69.352,230.206,74.56z M273.068,17.217
		c2.243-1.45,4.831-2.217,7.485-2.217c2.655,0,5.257,0.769,7.499,2.206c9.02,5.836,32.505,21.036,33.859,21.926
		c0.043,0.029,0.087,0.059,0.132,0.087c3.972,2.57,6.343,6.911,6.343,11.613c0,7.628-6.205,13.833-13.833,13.833
		c-2.656,0-5.258-0.769-7.5-2.207l-22.421-14.507L255.09,28.836C255.09,28.836,272.955,17.29,273.068,17.217z M316.449,81.754
		c0,19.781-16.101,35.875-35.891,35.875c-19.781,0-35.874-16.093-35.874-35.875c0-0.719,0.027-1.436,0.069-2.15
		c0.599,0.037,1.202,0.063,1.81,0.063c5.555,0,10.963-1.6,15.641-4.627c0.832-0.531,1.942-1.249,3.51-2.261l14.844-9.597
		L298.93,75.07c4.688,3.007,10.091,4.597,15.623,4.597c0.614,0,1.222-0.026,1.827-0.064
		C316.422,80.318,316.449,81.035,316.449,81.754z M239.064,39.206l2.22-1.436l25.467,16.479c-6.22,4.022-11.898,7.691-12.554,8.107
		c-0.048,0.03-0.096,0.06-0.144,0.091c-2.243,1.452-4.834,2.22-7.49,2.22c-7.628,0-13.833-6.206-13.833-13.833
		C232.73,46.132,235.103,41.782,239.064,39.206z"/>
</g>
<g>
</g>
<g>
</g>
<g>
</g>
<g>
</g>
<g>
</g>
<g>
</g>
<g>
</g>
<g>
</g>
<g>
</g>
<g>
</g>
<g>
</g>
<g>
</g>
<g>
</g>
<g>
</g>
<g>
</g>
</svg>
