<?xml version="1.0" encoding="iso-8859-1"?>
<!-- Generator: Adobe Illustrator 19.0.0, SVG Export Plug-In . SVG Version: 6.00 Build 0)  -->
<svg version="1.1" id="Capa_1" xmlns="http://www.w3.org/2000/svg" xmlns:xlink="http://www.w3.org/1999/xlink" x="0px" y="0px"
	 viewBox="0 0 415.307 415.307" style="enable-background:new 0 0 415.307 415.307;" xml:space="preserve">
<g>
	<path d="M124.707,35.433c-0.058,0.18-0.117,0.359-0.172,0.54c-0.185,0.604-0.356,1.212-0.519,1.823
		c-0.052,0.194-0.106,0.388-0.156,0.583c-0.154,0.607-0.292,1.217-0.423,1.829c-0.044,0.205-0.091,0.408-0.133,0.614
		c-0.122,0.607-0.228,1.217-0.327,1.829c-0.036,0.218-0.076,0.434-0.109,0.653c-0.091,0.606-0.164,1.215-0.232,1.826
		c-0.026,0.229-0.059,0.457-0.082,0.687c-0.062,0.624-0.104,1.251-0.143,1.879c-0.014,0.219-0.035,0.435-0.046,0.655
		c-0.041,0.844-0.064,1.692-0.064,2.542c0,28.052,22.822,50.875,50.875,50.875c28.062,0,50.891-22.822,50.891-50.875
		c0-0.851-0.023-1.699-0.064-2.544c-0.011-0.213-0.032-0.423-0.045-0.635c-0.039-0.636-0.083-1.271-0.145-1.903
		c-0.022-0.216-0.052-0.43-0.077-0.645c-0.07-0.627-0.146-1.253-0.239-1.875c-0.03-0.197-0.066-0.392-0.098-0.589
		c-0.103-0.636-0.213-1.271-0.341-1.902c-0.036-0.178-0.077-0.353-0.115-0.53c-0.137-0.643-0.283-1.285-0.445-1.923
		c-0.041-0.161-0.086-0.32-0.128-0.481c-0.171-0.647-0.353-1.292-0.55-1.933c-0.044-0.143-0.091-0.285-0.136-0.427
		c-0.208-0.655-0.428-1.307-0.663-1.955c-0.042-0.114-0.085-0.228-0.127-0.342c-0.147-0.397-0.286-0.796-0.443-1.19
		c-0.058-0.144-0.127-0.28-0.192-0.418C212.641,13.079,194.411,0,173.175,0c-21.238,0-39.469,13.09-47.077,31.624
		c-0.062,0.131-0.127,0.259-0.182,0.396c-0.148,0.37-0.277,0.745-0.416,1.118c-0.057,0.153-0.115,0.306-0.171,0.46
		C125.109,34.206,124.903,34.818,124.707,35.433z M206.883,38.559c0.199,0.543,0.383,1.086,0.554,1.634
		c0.006,0.02,0.013,0.039,0.019,0.059c0.165,0.53,0.317,1.066,0.457,1.606c0.01,0.037,0.02,0.073,0.03,0.111
		c0.133,0.519,0.253,1.043,0.363,1.571c0.012,0.06,0.027,0.119,0.039,0.179c0.102,0.501,0.19,1.007,0.271,1.515
		c0.014,0.087,0.031,0.174,0.044,0.261c0.072,0.479,0.131,0.962,0.184,1.447c0.013,0.116,0.03,0.232,0.041,0.348
		c0.047,0.467,0.079,0.939,0.108,1.411c0.008,0.13,0.021,0.26,0.028,0.391c0.03,0.596,0.046,1.196,0.046,1.799
		c0,19.781-16.101,35.875-35.891,35.875c-19.781,0-35.875-16.093-35.875-35.875c0-0.603,0.016-1.201,0.045-1.797
		c0.007-0.138,0.021-0.276,0.029-0.414c0.028-0.463,0.06-0.926,0.105-1.384c0.013-0.129,0.031-0.256,0.045-0.384
		c0.052-0.471,0.109-0.941,0.179-1.406c0.015-0.103,0.035-0.204,0.051-0.307c0.079-0.492,0.164-0.981,0.262-1.466
		c0.016-0.077,0.034-0.153,0.05-0.229c0.107-0.509,0.222-1.015,0.351-1.516c0.014-0.056,0.03-0.112,0.044-0.167
		c0.136-0.52,0.282-1.037,0.44-1.548c0.012-0.038,0.024-0.076,0.036-0.114c0.166-0.53,0.343-1.054,0.533-1.573
		c0.007-0.018,0.013-0.036,0.02-0.054C144.539,24.812,157.733,15,173.175,15C188.635,15,201.842,24.825,206.883,38.559z"/>
	<path d="M342.96,224.773c-2.406-1.315-5.338-1.212-7.647,0.268l-33.149,21.264h-29.865c15.535-43.147-2.339-92.046-42.993-114.689
		c-2.219-11.153-12.078-19.586-23.873-19.586h-8.204h-17.415c-1.258-2.378-3.753-4-6.631-4s-5.373,1.622-6.631,4h-17.416h-8.203
		c-11.797,0-21.658,8.436-23.874,19.592c-20.754,11.546-36.213,30.162-43.743,52.842c-7.969,24-6.115,49.666,5.221,72.271
		c1.315,2.624,3.962,4.14,6.71,4.14c1.13,0,2.277-0.256,3.356-0.797c3.702-1.856,5.198-6.363,3.342-10.066
		c-9.539-19.023-11.1-40.623-4.394-60.82c5.357-16.133,15.488-29.816,29.039-39.537v84.408c0,4.142,3.357,7.5,7.5,7.5h0.067
		c1.492,9.793,5.861,18.651,12.211,25.689l6.635,126.359l-21.447,7.071c-3.934,1.297-6.071,5.538-4.774,9.472
		c1.04,3.154,3.973,5.153,7.122,5.153c0.778,0,1.569-0.122,2.35-0.379l26.889-8.865c3.213-1.06,5.318-4.138,5.141-7.516
		l-6.283-119.654c6.428,3.05,13.609,4.763,21.184,4.763c7.575,0,14.755-1.713,21.183-4.763l-6.282,119.653
		c-0.178,3.378,1.928,6.457,5.141,7.516l26.889,8.865c0.78,0.257,1.571,0.379,2.35,0.379c3.149,0,6.082-2,7.122-5.153
		c1.297-3.934-0.841-8.174-4.774-9.472l-21.447-7.071l6.634-126.358c1.678-1.86,3.213-3.85,4.598-5.948h8.357
		c-0.918,2.479-1.422,5.157-1.422,7.951c0,12.655,10.296,22.951,22.95,22.951h32.433c12.654,0,22.95-10.295,22.95-22.951
		c0-2.794-0.503-5.472-1.422-7.951h3.722l33.149,21.264c1.231,0.79,2.639,1.187,4.05,1.187c1.235,0,2.474-0.305,3.598-0.919
		c2.405-1.315,3.902-3.839,3.902-6.581v-44.901C346.863,228.612,345.366,226.088,342.96,224.773z M331.863,262.534l-13.609-8.729
		l13.609-8.729V262.534z M139.419,241.563h9.718c4.143,0,7.5-3.358,7.5-7.5V127.03h9.047v7.774c0,4.142,3.357,7.5,7.5,7.5
		s7.5-3.358,7.5-7.5v-7.774h9.046v107.033c0,4.142,3.357,7.5,7.5,7.5h9.719c-0.361,1.626-0.835,3.21-1.416,4.742h-9.958
		c-4.143,0-7.5,3.358-7.5,7.5c0,3.798,2.826,6.929,6.489,7.424c-5.889,4.645-13.313,7.427-21.378,7.427
		C156.684,268.656,142.855,257.042,139.419,241.563z M214.776,136.373v90.189h-10.047V127.03h0.704
		C210.584,127.03,214.776,131.221,214.776,136.373z M141.636,127.03v99.533H131.59v-90.189c0-5.152,4.191-9.343,9.343-9.343H141.636
		z M222.209,241.563h0.067c4.143,0,7.5-3.358,7.5-7.5v-84.401c30.102,21.666,41.604,62.009,26.388,96.643h-34.92
		C221.639,244.751,221.964,243.17,222.209,241.563z M284.863,269.255c0,4.384-3.566,7.951-7.95,7.951H244.48
		c-4.384,0-7.95-3.567-7.95-7.951s3.566-7.951,7.95-7.951h32.433C281.296,261.305,284.863,264.872,284.863,269.255z"/>
</g>
<g>
</g>
<g>
</g>
<g>
</g>
<g>
</g>
<g>
</g>
<g>
</g>
<g>
</g>
<g>
</g>
<g>
</g>
<g>
</g>
<g>
</g>
<g>
</g>
<g>
</g>
<g>
</g>
<g>
</g>
</svg>
