<?xml version="1.0" encoding="iso-8859-1"?>
<!-- Generator: Adobe Illustrator 19.0.0, SVG Export Plug-In . SVG Version: 6.00 Build 0)  -->
<svg version="1.1" id="Capa_1" xmlns="http://www.w3.org/2000/svg" xmlns:xlink="http://www.w3.org/1999/xlink" x="0px" y="0px"
	 viewBox="0 0 455 455" style="enable-background:new 0 0 455 455;" xml:space="preserve">
<g>
	<path d="M322.442,367.528c-0.882-4.046-4.871-6.612-8.925-5.731L235,378.904v-30.863c0-4.142-3.357-7.5-7.5-7.5s-7.5,3.358-7.5,7.5
		v30.556l-78.545-16.806c-4.049-0.867-8.036,1.714-8.903,5.765c-0.866,4.051,1.714,8.037,5.765,8.903l65.727,14.063l-67.179,29.571
		c-3.791,1.668-5.512,6.095-3.843,9.886c1.236,2.809,3.984,4.48,6.868,4.48c1.009,0,2.035-0.205,3.018-0.638l85.36-37.574
		l83.779,37.553c0.996,0.447,2.038,0.658,3.063,0.658c2.864,0,5.601-1.651,6.848-4.434c1.694-3.78,0.004-8.218-3.776-9.912
		l-66.024-29.595l64.554-14.065C320.758,375.571,323.324,371.576,322.442,367.528z"/>
	<path d="M437.5,20.541h-420c-9.649,0-17.5,7.851-17.5,17.5v270c0,9.649,7.851,17.5,17.5,17.5h420c9.649,0,17.5-7.851,17.5-17.5
		v-270C455,28.392,447.149,20.541,437.5,20.541z M440,308.041c0,1.355-1.145,2.5-2.5,2.5h-420c-1.355,0-2.5-1.145-2.5-2.5v-270
		c0-1.355,1.145-2.5,2.5-2.5h420c1.355,0,2.5,1.145,2.5,2.5V308.041z"/>
	<path d="M417.5,50.541h-320c-4.143,0-7.5,3.358-7.5,7.5s3.357,7.5,7.5,7.5H410v215H275.988v-59.805
		c0.714,0.016,1.428,0.029,2.141,0.029c21.454,0,42.12-7.237,59.09-20.862c19.719-15.832,32.092-38.396,34.84-63.534
		c0.449-4.118-2.523-7.82-6.641-8.271c-4.136-0.45-7.821,2.524-8.271,6.641c-2.312,21.155-12.725,40.144-29.319,53.468
		c-15.112,12.134-33.706,18.225-52.886,17.471c-3.033-9.991-12.327-17.284-23.295-17.284h-50.501
		c-10.967,0-20.26,7.292-23.294,17.28c-41.353,1.597-77.656-29.153-82.223-70.935c-0.45-4.117-4.131-7.09-8.271-6.641
		c-4.117,0.45-7.09,4.153-6.641,8.271c2.749,25.139,15.122,47.702,34.841,63.534c16.971,13.626,37.635,20.862,59.09,20.862
		c0.718,0,1.437-0.013,2.156-0.03v59.805H45v-215h22.5c4.143,0,7.5-3.358,7.5-7.5s-3.357-7.5-7.5-7.5h-30
		c-4.143,0-7.5,3.358-7.5,7.5v230c0,4.142,3.357,7.5,7.5,7.5h380c4.143,0,7.5-3.358,7.5-7.5v-230
		C425,53.899,421.643,50.541,417.5,50.541z M191.802,212.738c0-5.152,4.191-9.343,9.343-9.343h50.501
		c5.092,0,9.239,4.097,9.334,9.167c-0.004,0.171,0.001,0.341,0.009,0.51v67.469h-69.187V212.738z"/>
	<path d="M241.751,222.29l-10.864-8.286c-2.266-1.729-5.317-2.023-7.875-0.758c-2.556,1.265-4.173,3.87-4.173,6.722v33.942
		l-6.644,3.369c-3.694,1.874-5.17,6.387-3.296,10.082c1.322,2.607,3.958,4.109,6.694,4.109c1.141,0,2.3-0.261,3.387-0.813
		l10.751-5.453c2.52-1.278,4.107-3.864,4.107-6.689v-23.557c3.16,1.59,7.104,0.759,9.328-2.156
		C245.679,229.508,245.045,224.802,241.751,222.29z"/>
	<path d="M226.387,178.13c28.062,0,50.891-22.822,50.891-50.875c0-28.062-22.829-50.891-50.891-50.891
		c-28.052,0-50.874,22.83-50.874,50.891C175.513,155.308,198.335,178.13,226.387,178.13z M226.387,91.364
		c19.79,0,35.891,16.101,35.891,35.891c0,19.781-16.101,35.875-35.891,35.875c-19.781,0-35.874-16.093-35.874-35.875
		C190.513,107.465,206.605,91.364,226.387,91.364z"/>
</g>
<g>
</g>
<g>
</g>
<g>
</g>
<g>
</g>
<g>
</g>
<g>
</g>
<g>
</g>
<g>
</g>
<g>
</g>
<g>
</g>
<g>
</g>
<g>
</g>
<g>
</g>
<g>
</g>
<g>
</g>
</svg>
