<?xml version="1.0" encoding="iso-8859-1"?>
<!-- Generator: Adobe Illustrator 19.0.0, SVG Export Plug-In . SVG Version: 6.00 Build 0)  -->
<svg version="1.1" id="Capa_1" xmlns="http://www.w3.org/2000/svg" xmlns:xlink="http://www.w3.org/1999/xlink" x="0px" y="0px"
	 viewBox="0 0 469.003 469.003" style="enable-background:new 0 0 469.003 469.003;" xml:space="preserve">
<g>
	<path d="M151.105,95.968c-0.483,2.831-0.74,5.707-0.74,8.62c0,28.052,22.822,50.875,50.875,50.875
		c28.062,0,50.891-22.822,50.891-50.875c0-2.913-0.257-5.79-0.74-8.62c3.841-0.327,6.857-3.542,6.857-7.468
		c0-4.142-3.357-7.5-7.5-7.5h-1.137l2.668-36.663c0.538-7.408-1.89-14.418-6.839-19.739c-4.948-5.321-11.764-8.252-19.19-8.252
		h-17.501V7.5c0-4.142-3.357-7.5-7.5-7.5s-7.5,3.358-7.5,7.5v8.846h-17.501c-7.427,0-14.242,2.931-19.19,8.252
		c-4.949,5.321-7.377,12.332-6.839,19.74L152.885,81h-1.137c-4.143,0-7.5,3.358-7.5,7.5
		C144.248,92.425,147.264,95.641,151.105,95.968z M165.179,43.249c-0.233-3.205,0.783-6.201,2.862-8.437
		c2.079-2.236,4.993-3.467,8.206-3.467h17.501V53.5c0,4.142,3.357,7.5,7.5,7.5s7.5-3.358,7.5-7.5V31.346h17.501
		c3.213,0,6.127,1.231,8.206,3.467c2.079,2.235,3.096,5.231,2.862,8.436L234.571,81h-66.645L165.179,43.249z M201.24,140.462
		c-19.781,0-35.875-16.093-35.875-35.875c0-2.923,0.349-5.796,1.034-8.587h69.698c0.685,2.791,1.034,5.663,1.034,8.587
		C237.131,124.369,221.03,140.462,201.24,140.462z"/>
	<path d="M220.842,263.226c0-4.142-3.357-7.5-7.5-7.5h-24.187c-4.143,0-7.5,3.358-7.5,7.5s3.357,7.5,7.5,7.5h24.187
		C217.484,270.726,220.842,267.368,220.842,263.226z"/>
	<path d="M189.155,240.726h24.187c4.143,0,7.5-3.358,7.5-7.5s-3.357-7.5-7.5-7.5h-24.187c-4.143,0-7.5,3.358-7.5,7.5
		S185.013,240.726,189.155,240.726z"/>
	<path d="M189.155,210.726h24.187c4.143,0,7.5-3.358,7.5-7.5s-3.357-7.5-7.5-7.5h-24.187c-4.143,0-7.5,3.358-7.5,7.5
		S185.013,210.726,189.155,210.726z"/>
	<path d="M361.969,46c0-12.407-10.094-22.5-22.5-22.5s-22.5,10.093-22.5,22.5c0,9.777,6.271,18.114,15,21.21v45.188
		c-4.68,41.262-40.303,71.68-81.127,70.644v-2.316h2.5c4.143,0,7.5-3.358,7.5-7.5s-3.357-7.5-7.5-7.5H149.155
		c-4.143,0-7.5,3.358-7.5,7.5s3.357,7.5,7.5,7.5h2.5v2.39c-25.198,3.648-44.621,25.381-44.621,51.573s19.423,47.925,44.621,51.573
		v1.496c0,12.752,4.841,24.393,12.778,33.189l6.635,126.359l-21.447,7.071c-3.934,1.297-6.071,5.538-4.774,9.472
		c1.04,3.154,3.973,5.153,7.122,5.153c0.778,0,1.569-0.122,2.35-0.379l26.889-8.865c3.213-1.06,5.318-4.138,5.141-7.516
		l-6.283-119.654c6.428,3.05,13.609,4.763,21.183,4.763c7.575,0,14.755-1.713,21.183-4.763l-6.282,119.653
		c-0.178,3.378,1.928,6.457,5.141,7.516l26.889,8.865c0.78,0.257,1.571,0.379,2.35,0.379c3.149,0,6.082-2,7.122-5.153
		c1.297-3.934-0.841-8.174-4.774-9.472l-21.447-7.071l6.634-126.358c7.938-8.796,12.779-20.437,12.779-33.19l0.001-89.689
		c0.718,0.016,1.436,0.029,2.153,0.029c21.454,0,42.12-7.237,59.09-20.862c7.847-6.3,14.508-13.68,19.885-21.85v67.843
		c0,4.142,3.357,7.5,7.5,7.5s7.5-3.358,7.5-7.5V112.949c0-0.03,0-45.739,0-45.739C355.698,64.114,361.969,55.777,361.969,46z
		 M166.655,287.759V180.726h69.187l-0.001,107.033c0,19.075-15.519,34.593-34.593,34.593S166.655,306.833,166.655,287.759z
		 M122.034,234.689c0-17.9,12.736-32.88,29.621-36.358v72.717C134.77,267.57,122.034,252.589,122.034,234.689z M339.469,38.5
		c4.136,0,7.5,3.364,7.5,7.5s-3.364,7.5-7.5,7.5s-7.5-3.364-7.5-7.5S335.333,38.5,339.469,38.5z"/>
</g>
<g>
</g>
<g>
</g>
<g>
</g>
<g>
</g>
<g>
</g>
<g>
</g>
<g>
</g>
<g>
</g>
<g>
</g>
<g>
</g>
<g>
</g>
<g>
</g>
<g>
</g>
<g>
</g>
<g>
</g>
</svg>
