<?xml version="1.0" encoding="iso-8859-1"?>
<!-- Generator: Adobe Illustrator 19.0.0, SVG Export Plug-In . SVG Version: 6.00 Build 0)  -->
<svg version="1.1" id="Capa_1" xmlns="http://www.w3.org/2000/svg" xmlns:xlink="http://www.w3.org/1999/xlink" x="0px" y="0px"
	 viewBox="0 0 471.303 471.303" style="enable-background:new 0 0 471.303 471.303;" xml:space="preserve">
<g>
	<path d="M255.064,157.762c28.062,0,50.891-22.822,50.891-50.875c0-28.062-22.829-50.892-50.891-50.892
		c-28.053,0-50.875,22.83-50.875,50.892C204.189,134.939,227.012,157.762,255.064,157.762z M219.189,106.887
		c0-19.791,16.094-35.892,35.875-35.892c19.79,0,35.891,16.101,35.891,35.892c0,19.781-16.101,35.875-35.891,35.875
		C235.283,142.762,219.189,126.668,219.189,106.887z"/>
	<path d="M240.072,128.077c5.489,0,10.745-1.839,15-5.073c4.255,3.234,9.511,5.073,15,5.073c4.143,0,7.5-3.358,7.5-7.5
		s-3.357-7.5-7.5-7.5c-3.49,0-6.747-1.892-8.499-4.938c-1.338-2.326-3.817-3.76-6.501-3.76c-2.684,0-5.163,1.434-6.501,3.76
		c-1.752,3.045-5.009,4.938-8.499,4.938c-4.143,0-7.5,3.358-7.5,7.5S235.93,128.077,240.072,128.077z"/>
	<path d="M321.192,190.76c25.305-20.033,40.76-50.906,40.76-83.871C361.952,47.951,314.002,0,255.062,0
		c-58.929,0-106.87,47.951-106.87,106.89c0,28.153,11.273,54.786,30.328,74.446c-28.669-9.527-50.72-35.016-54.213-66.963
		c-0.449-4.117-4.132-7.092-8.271-6.641c-4.117,0.45-7.09,4.153-6.641,8.271c2.749,25.139,15.122,47.702,34.841,63.534
		c16.971,13.626,37.635,20.862,59.09,20.862c0.017,0,0.035-0.001,0.052-0.001c0.694,0.385,1.396,0.759,2.101,1.129v88.531
		c0,12.753,4.842,24.394,12.779,33.19l6.635,126.358l-21.447,7.071c-3.934,1.297-6.071,5.538-4.774,9.472
		c1.04,3.154,3.973,5.153,7.122,5.153c0.778,0,1.57-0.122,2.35-0.379l26.889-8.865c3.213-1.06,5.318-4.138,5.141-7.516
		l-6.283-119.653c6.428,3.05,13.609,4.763,21.183,4.763c7.575,0,14.755-1.713,21.183-4.763l-6.283,119.653
		c-0.178,3.378,1.928,6.457,5.141,7.516l26.889,8.865c0.78,0.257,1.571,0.379,2.35,0.379c3.149,0,6.082-2,7.122-5.153
		c1.297-3.934-0.841-8.174-4.774-9.472l-21.447-7.071l6.635-126.359c7.937-8.796,12.778-20.437,12.778-33.189v-1.496
		c25.198-3.648,44.621-25.381,44.621-51.573C349.286,216.912,337.869,199.463,321.192,190.76z M255.072,324.652
		c-16.499,0-30.329-11.614-33.765-27.093h67.53C285.4,313.038,271.571,324.652,255.072,324.652z M289.665,282.559h-69.187v-15.781
		c16.943-8.203,28-25.519,28-44.641v-34.928l6.594-3.297l6.594,3.297v34.928c0,19.123,11.057,36.438,27.999,44.641L289.665,282.559z
		 M220.479,249.13v-56.699c0-0.043,0.004-0.086,0.003-0.129c0.037-5.121,4.211-9.276,9.34-9.276h3.656v39.11
		C233.479,232.819,228.519,242.681,220.479,249.13z M289.666,249.129c-8.04-6.449-13-16.31-13-26.994v-39.11h3.656
		c5.152,0,9.344,4.191,9.344,9.343L289.666,249.129z M303.493,184.913c-3.157-9.786-12.349-16.887-23.171-16.887h-8.193
		c-0.563-1.587-1.64-2.969-3.114-3.88c-2.213-1.367-4.974-1.49-7.298-0.328l-6.646,3.323l-6.646-3.323
		c-2.325-1.163-5.086-1.039-7.298,0.328c-1.474,0.911-2.551,2.293-3.114,3.88h-8.193c-10.825,0-20.019,7.104-23.173,16.894
		c-26.699-16.646-43.457-46.211-43.457-78.03c0-50.668,41.213-91.89,91.87-91.89c50.668,0,91.89,41.222,91.89,91.89
		C346.952,138.714,330.194,168.276,303.493,184.913z M304.665,273.347l0.001-71.828c0.387-0.204,0.771-0.413,1.155-0.621
		c16.306,3.911,28.465,18.603,28.465,36.091C334.286,254.889,321.551,269.87,304.665,273.347z"/>
</g>
<g>
</g>
<g>
</g>
<g>
</g>
<g>
</g>
<g>
</g>
<g>
</g>
<g>
</g>
<g>
</g>
<g>
</g>
<g>
</g>
<g>
</g>
<g>
</g>
<g>
</g>
<g>
</g>
<g>
</g>
</svg>
