<?xml version="1.0" encoding="iso-8859-1"?>
<!-- Generator: Adobe Illustrator 19.0.0, SVG Export Plug-In . SVG Version: 6.00 Build 0)  -->
<svg version="1.1" id="Capa_1" xmlns="http://www.w3.org/2000/svg" xmlns:xlink="http://www.w3.org/1999/xlink" x="0px" y="0px"
	 viewBox="0 0 380.964 380.964" style="enable-background:new 0 0 380.964 380.964;" xml:space="preserve">
<g>
	<path d="M359.386,139.438c-3.284-2.525-7.993-1.908-10.517,1.375c-19.192,24.968-50.378,35.4-79.331,29.449
		c1.41-3.325,2.811-7.595,2.811-14.464c0-8.27-2.03-12.777-3.662-16.398c-1.357-3.012-2.338-5.189-2.338-10.235
		c0-5.048,0.98-7.225,2.338-10.238c1.632-3.622,3.662-8.128,3.662-16.399s-2.03-12.777-3.662-16.399
		c-1.357-3.013-2.338-5.19-2.338-10.238C266.349,34.045,232.312,0,190.475,0S114.6,34.045,114.6,75.892
		c0,5.048-0.981,7.225-2.338,10.238c-1.632,3.622-3.662,8.128-3.662,16.399s2.03,12.777,3.662,16.399
		c1.357,3.013,2.338,5.19,2.338,10.238c0,5.046-0.98,7.223-2.338,10.235c-1.632,3.621-3.662,8.128-3.662,16.398
		c0,6.872,1.402,11.142,2.812,14.468c-28.949,5.945-60.129-4.489-79.318-29.453c-2.524-3.284-7.233-3.9-10.517-1.375
		s-3.9,7.233-1.375,10.517c18.622,24.226,46.744,36.939,75.168,36.939c6.398,0,12.81-0.65,19.133-1.952
		c-0.277,3.361-1.134,5.264-2.242,7.723c-1.631,3.621-3.662,8.127-3.662,16.397c0,4.142,3.358,7.5,7.5,7.5
		c4.142,0,7.499-3.357,7.5-7.499c0-5.047,0.98-7.224,2.338-10.236c1.632-3.621,3.662-8.127,3.662-16.397
		c0-0.67-0.018-1.308-0.043-1.93c3.857-1.497,7.64-3.268,11.332-5.301v33.864v49.999c0,6.778,1.37,13.241,3.842,19.131
		L93.999,304.61C74.215,314.913,66.5,339.39,76.802,359.174c7.204,13.834,21.333,21.767,35.948,21.765
		c6.287,0,12.666-1.469,18.616-4.568l59.116-30.782l59.116,30.782c5.854,3.049,12.22,4.593,18.637,4.593
		c4.087,0,8.197-0.627,12.207-1.891c10.306-3.248,18.729-10.315,23.72-19.899c4.99-9.584,5.95-20.538,2.702-30.844
		s-10.314-18.73-19.899-23.721l-50.732-26.417c2.472-5.89,3.842-12.353,3.842-19.131l0-49.999l0-33.864
		c3.687,2.031,7.465,3.8,11.317,5.295c-0.026,0.624-0.043,1.263-0.043,1.936c0,8.27,2.03,12.776,3.662,16.397
		c1.357,3.012,2.338,5.189,2.338,10.235c0.001,4.143,3.358,7.5,7.5,7.5c4.143,0,7.5-3.358,7.5-7.5c0-8.27-2.03-12.776-3.662-16.397
		c-1.108-2.459-1.965-4.363-2.242-7.726c6.328,1.304,12.745,1.955,19.148,1.955c28.421,0,56.549-12.716,75.169-36.939
		C363.287,146.671,362.671,141.963,359.386,139.438z M155.889,259.063v-97.689c0-5.152,4.191-9.343,9.343-9.343h1.724v44.247
		c0,12.973,10.554,23.527,23.527,23.527c12.973,0,23.527-10.554,23.527-23.527V152.03h1.723c5.152,0,9.344,4.191,9.344,9.343
		l-0.001,97.689c0,19.075-15.519,34.593-34.593,34.593C171.407,293.656,155.889,278.138,155.889,259.063z M181.956,152.03h17.054
		v44.247c0,4.702-3.825,8.527-8.527,8.527s-8.527-3.825-8.527-8.527V152.03z M215.732,137.03h-3.233c-1.369-1.819-3.538-3-5.99-3
		s-4.621,1.181-5.99,3h-20.074c-1.369-1.819-3.538-3-5.99-3s-4.621,1.181-5.99,3h-3.234c-12.038,0-22.058,8.786-23.998,20.281
		c-4.893,3.461-10.055,6.296-15.39,8.513c-1.308-2.905-2.244-5.098-2.244-10.025c0-5.047,0.98-7.224,2.338-10.236
		c1.632-3.621,3.662-8.128,3.662-16.397c0-8.271-2.03-12.778-3.662-16.399c-1.357-3.013-2.338-5.19-2.338-10.238
		s0.981-7.225,2.338-10.238c1.632-3.622,3.662-8.128,3.662-16.399c0-31.034,23.336-56.702,53.375-60.413V32.5
		c0,19.791-16.101,35.892-35.892,35.892c-1.99,0-3.898,0.791-5.305,2.199s-2.196,3.316-2.195,5.307
		c0.02,28.049,22.85,50.869,50.892,50.869c28.06,0,50.89-22.822,50.891-50.874c0-1.989-0.79-3.897-2.196-5.304
		c-1.407-1.407-3.314-2.197-5.304-2.197c-19.79,0-35.891-16.101-35.891-35.892c-0.001-0.019-0.001-17.021-0.001-17.021
		c30.038,3.711,53.375,29.378,53.375,60.413c0,8.271,2.03,12.777,3.662,16.399c1.357,3.013,2.338,5.19,2.338,10.238
		s-0.98,7.225-2.338,10.238c-1.632,3.622-3.662,8.128-3.662,16.399c0,8.27,2.03,12.776,3.662,16.397
		c1.357,3.012,2.338,5.189,2.338,10.236c0,4.924-0.935,7.118-2.241,10.02c-5.331-2.216-10.488-5.049-15.378-8.507
		C237.79,145.816,227.77,137.03,215.732,137.03z M190.475,59.068c7.603,12.371,20.349,21.262,35.235,23.67
		c-3.207,16.518-17.787,29.027-35.235,29.027c-17.435,0-32.013-12.51-35.23-29.028C170.128,80.328,182.872,71.438,190.475,59.068z
		 M280.037,317.915c6.031,3.14,10.478,8.44,12.521,14.925c2.043,6.484,1.439,13.376-1.701,19.407
		c-3.14,6.03-8.44,10.477-14.925,12.521c-6.481,2.042-13.375,1.44-19.406-1.701l-49.805-25.934l7.746-4.033h26.477
		c4.143,0,7.5-3.358,7.5-7.5s-3.357-7.5-7.5-7.5h-28.313c-1.206,0-2.395,0.291-3.464,0.848l-18.686,9.73l-18.686-9.73
		c-1.07-0.557-2.258-0.848-3.464-0.848H140.02c-4.142,0-7.5,3.358-7.5,7.5s3.358,7.5,7.5,7.5h26.477l7.746,4.033l-49.805,25.934
		c-12.448,6.483-27.849,1.628-34.332-10.82c-6.482-12.448-1.628-27.85,10.82-34.332l51.666-26.903
		c9.104,10.78,22.707,17.644,37.889,17.644s28.784-6.864,37.889-17.644L280.037,317.915z"/>
</g>
<g>
</g>
<g>
</g>
<g>
</g>
<g>
</g>
<g>
</g>
<g>
</g>
<g>
</g>
<g>
</g>
<g>
</g>
<g>
</g>
<g>
</g>
<g>
</g>
<g>
</g>
<g>
</g>
<g>
</g>
</svg>
