<?xml version="1.0" encoding="iso-8859-1"?>
<!-- Generator: Adobe Illustrator 19.0.0, SVG Export Plug-In . SVG Version: 6.00 Build 0)  -->
<svg version="1.1" id="Capa_1" xmlns="http://www.w3.org/2000/svg" xmlns:xlink="http://www.w3.org/1999/xlink" x="0px" y="0px"
	 viewBox="0 0 470.002 470.002" style="enable-background:new 0 0 470.002 470.002;" xml:space="preserve">
<g>
	<path d="M333.079,98.07h-47.755c-0.577-3.881-1.602-7.615-3.006-11.16l41.367-23.883c3.587-2.071,4.816-6.658,2.745-10.245
		c-2.071-3.588-6.658-4.817-10.245-2.745l-41.388,23.895c-2.405-3.019-5.144-5.756-8.163-8.161l23.894-41.386
		c2.071-3.587,0.842-8.174-2.745-10.245c-3.588-2.072-8.175-0.842-10.245,2.745l-23.884,41.369
		c-3.545-1.403-7.28-2.427-11.161-3.003V7.5c0-4.142-3.358-7.5-7.5-7.5s-7.5,3.358-7.5,7.5v47.752
		c-3.881,0.576-7.616,1.601-11.162,3.005L192.45,16.894c-2.071-3.588-6.658-4.816-10.245-2.745s-4.816,6.658-2.745,10.245
		l23.893,41.384c-3.018,2.406-5.756,5.145-8.161,8.165l-41.383-23.893c-3.587-2.073-8.174-0.843-10.245,2.745
		c-2.071,3.587-0.842,8.174,2.745,10.245l41.368,23.884c-1.402,3.546-2.426,7.28-3.002,11.161h-47.753c-4.142,0-7.5,3.358-7.5,7.5
		s3.358,7.5,7.5,7.5h47.753c0.576,3.881,1.601,7.616,3.004,11.162l-41.363,23.881c-3.587,2.071-4.816,6.658-2.745,10.245
		c1.389,2.406,3.91,3.751,6.502,3.751c1.272,0,2.562-0.324,3.743-1.006l41.382-23.892c9.329,11.708,23.695,19.234,39.794,19.234
		c16.111,0,30.486-7.531,39.818-19.248l41.382,23.892c1.181,0.682,2.471,1.006,3.743,1.006c2.592,0,5.113-1.346,6.502-3.751
		c2.071-3.587,0.842-8.174-2.745-10.245l-41.366-23.882c1.403-3.546,2.426-7.281,3.001-11.163h47.751c4.142,0,7.5-3.358,7.5-7.5
		S337.221,98.07,333.079,98.07z M267.666,115.768c-3.587-2.072-8.175-0.842-10.245,2.745c-2.071,3.587-0.842,8.174,2.745,10.245
		l1.463,0.845c-6.573,7.277-16.078,11.858-26.636,11.858c-10.546,0-20.042-4.576-26.612-11.844l1.464-0.845
		c3.587-2.071,4.816-6.658,2.745-10.245c-2.071-3.587-6.658-4.816-10.245-2.745l-1.478,0.853c-1.13-3.482-1.748-7.193-1.748-11.048
		c0-3.854,0.617-7.565,1.746-11.047l1.471,0.85c1.181,0.682,2.471,1.006,3.743,1.006c2.592,0,5.113-1.345,6.502-3.751
		c2.071-3.587,0.842-8.174-2.745-10.245l-1.463-0.845c4.968-5.503,11.613-9.46,19.12-11.064v1.705c0,4.142,3.358,7.5,7.5,7.5
		s7.5-3.358,7.5-7.5v-1.706c7.506,1.603,14.152,5.555,19.122,11.053l-1.458,0.842c-3.587,2.071-4.816,6.658-2.745,10.245
		c1.389,2.406,3.91,3.751,6.502,3.751c1.272,0,2.562-0.324,3.743-1.006l1.474-0.851c1.133,3.487,1.752,7.203,1.752,11.063
		c0,3.849-0.616,7.554-1.744,11.032L267.666,115.768z"/>
	<path d="M284.124,186.312c-2.219-11.153-12.078-19.587-23.873-19.587h-18.186c-1.031-2.911-3.8-5-7.064-5s-6.033,2.089-7.064,5
		h-18.186c-11.795,0-21.655,8.434-23.873,19.586c-43.971,24.49-61.299,79.698-38.523,125.119c1.315,2.624,3.962,4.14,6.71,4.14
		c1.13,0,2.277-0.256,3.356-0.797c3.703-1.856,5.199-6.363,3.342-10.066c-17.76-35.419-6.537-77.906,24.645-100.35v249.278
		c0,0.355,0.033,0.703,0.081,1.045l-2.115,0.697c-3.934,1.297-6.071,5.538-4.774,9.472c1.04,3.154,3.973,5.153,7.122,5.153
		c0.779,0,1.57-0.122,2.35-0.379l25.742-8.488h9.185c4.142,0,7.5-3.358,7.5-7.5V352.149c2.985,0.269,6.017,0.27,9.002,0v101.486
		c0,4.142,3.358,7.5,7.5,7.5h9.187l25.742,8.488c0.78,0.257,1.571,0.379,2.35,0.379c3.149,0,6.082-2,7.122-5.153
		c1.297-3.934-0.841-8.174-4.774-9.472l-2.115-0.697c0.048-0.342,0.081-0.689,0.081-1.045V204.357
		c31.182,22.444,42.405,64.93,24.645,100.349c-1.857,3.703-0.36,8.209,3.342,10.066c1.079,0.541,2.226,0.797,3.356,0.797
		c2.748,0,5.395-1.516,6.71-4.14C345.423,266.01,328.095,210.801,284.124,186.312z M225.133,335.925
		c-2.269-0.673-4.723-0.237-6.62,1.179c-1.897,1.416-3.015,3.644-3.015,6.011v103.02h-15.091V191.068
		c0-5.152,4.191-9.343,9.343-9.343h17.75v126.343c0,4.142,3.358,7.5,7.5,7.5s7.5-3.358,7.5-7.5V181.725h17.75
		c5.152,0,9.343,4.191,9.343,9.343v255.066h-15.093V343.116c0-2.367-1.117-4.595-3.014-6.011s-4.351-1.852-6.62-1.179
		C238.493,337.818,231.504,337.817,225.133,335.925z"/>
</g>
<g>
</g>
<g>
</g>
<g>
</g>
<g>
</g>
<g>
</g>
<g>
</g>
<g>
</g>
<g>
</g>
<g>
</g>
<g>
</g>
<g>
</g>
<g>
</g>
<g>
</g>
<g>
</g>
<g>
</g>
</svg>
