<?xml version="1.0" encoding="iso-8859-1"?>
<!-- Generator: Adobe Illustrator 19.0.0, SVG Export Plug-In . SVG Version: 6.00 Build 0)  -->
<svg version="1.1" id="Capa_1" xmlns="http://www.w3.org/2000/svg" xmlns:xlink="http://www.w3.org/1999/xlink" x="0px" y="0px"
	 viewBox="0 0 452.504 452.504" style="enable-background:new 0 0 452.504 452.504;" xml:space="preserve">
<g>
	<path d="M168.752,79.501h7.355c-0.481,2.818-0.737,5.678-0.737,8.57c0,28.062,22.83,50.892,50.891,50.892
		c28.052,0,50.874-22.83,50.874-50.892c0-2.892-0.256-5.752-0.737-8.57h7.354c4.142,0,7.5-3.358,7.5-7.5s-3.358-7.5-7.5-7.5h-12.333
		l-13.767-30.916c-3.449-7.745-12.442-13.584-20.919-13.584h-20.96c-8.478,0-17.471,5.84-20.92,13.584l-5.386,12.095l-6.097-39.328
		c-0.634-4.093-4.463-6.895-8.561-6.263c-4.093,0.635-6.897,4.467-6.263,8.561l8.659,55.851h-8.453c-4.142,0-7.5,3.358-7.5,7.5
		S164.61,79.501,168.752,79.501z M215.772,35.001h20.96c2.541,0,6.183,2.365,7.216,4.687l11.05,24.813h-57.493l11.05-24.814
		C209.589,37.365,213.231,35.001,215.772,35.001z M190.369,88.071c0-2.91,0.351-5.777,1.039-8.57h69.687
		c0.689,2.794,1.039,5.661,1.039,8.57c0,19.791-16.093,35.892-35.874,35.892C206.47,123.962,190.369,107.861,190.369,88.071z"/>
	<path d="M268.345,335.001c4.142,0,7.5-3.358,7.5-7.5l0-57.738c25.198-3.648,44.62-25.381,44.62-51.573
		c0-26.556-19.968-48.521-45.675-51.708c-3.042-9.976-12.33-17.256-23.288-17.256h-50.5c-10.958,0-20.246,7.28-23.288,17.256
		c-25.707,3.187-45.675,25.152-45.675,51.708c0,26.192,19.423,47.925,44.62,51.573v57.738c0,4.142,3.358,7.5,7.5,7.5h6.882
		l5.031,95.807l-21.447,7.071c-3.934,1.297-6.071,5.538-4.774,9.472c1.04,3.154,3.972,5.153,7.121,5.153
		c0.779,0,1.57-0.122,2.35-0.379l26.889-8.866c3.212-1.06,5.318-4.138,5.141-7.516l-5.29-100.742h2.097c4.142,0,7.5-3.358,7.5-7.5
		v-7.778c6.901,1.503,14.285,1.503,21.186,0v7.778c0,4.142,3.358,7.5,7.5,7.5h2.097l-5.29,100.742
		c-0.177,3.378,1.929,6.457,5.141,7.516l26.889,8.866c0.78,0.257,1.571,0.379,2.35,0.379c3.149,0,6.082-2,7.121-5.153
		c1.297-3.934-0.84-8.174-4.774-9.472l-21.447-7.071l5.031-95.807H268.345z M241.116,302.503c-4.661,2.223-9.662,3.35-14.864,3.35
		c-5.203,0-10.204-1.127-14.865-3.35c-2.323-1.108-5.053-0.947-7.23,0.427s-3.498,3.768-3.498,6.343v10.729h-9v-41.241h9v2.5
		c0,4.142,3.358,7.5,7.5,7.5s7.5-3.358,7.5-7.5v-2.5h21.186v2.5c0,4.142,3.358,7.5,7.5,7.5s7.5-3.358,7.5-7.5v-2.5h9l0,41.241h-9
		v-10.729c0-2.575-1.32-4.969-3.498-6.343C246.17,301.556,243.44,301.394,241.116,302.503z M260.845,263.759h-9v-99.515
		c4.992,0.182,9,4.29,9,9.326L260.845,263.759z M236.845,211.493h-21.186v-15.493h21.186V211.493z M215.658,226.493h21.186v37.266
		h-21.186V226.493z M236.845,181.001h-21.186v-16.774h21.186V181.001z M200.658,263.759h-9V173.57c0-5.036,4.008-9.143,9-9.326
		V263.759z M305.465,218.19c0,17.9-12.735,32.88-29.62,36.358l0-72.716C292.73,185.31,305.465,200.29,305.465,218.19z
		 M147.038,218.19c0-17.9,12.735-32.88,29.62-36.358v72.716C159.773,251.07,147.038,236.09,147.038,218.19z"/>
</g>
<g>
</g>
<g>
</g>
<g>
</g>
<g>
</g>
<g>
</g>
<g>
</g>
<g>
</g>
<g>
</g>
<g>
</g>
<g>
</g>
<g>
</g>
<g>
</g>
<g>
</g>
<g>
</g>
<g>
</g>
</svg>
