<?xml version="1.0" encoding="iso-8859-1"?>
<!-- Generator: Adobe Illustrator 19.0.0, SVG Export Plug-In . SVG Version: 6.00 Build 0)  -->
<svg version="1.1" id="Capa_1" xmlns="http://www.w3.org/2000/svg" xmlns:xlink="http://www.w3.org/1999/xlink" x="0px" y="0px"
	 viewBox="0 0 415.307 415.307" style="enable-background:new 0 0 415.307 415.307;" xml:space="preserve">
<g>
	<path d="M207.646,101.766c28.062,0,50.891-22.822,50.891-50.875C258.536,22.83,235.707,0,207.646,0
		c-28.053,0-50.875,22.83-50.875,50.891C156.771,78.944,179.593,101.766,207.646,101.766z M207.646,15
		c17.218,0,31.638,12.19,35.096,28.391h-70.177C176.022,27.19,190.435,15,207.646,15z M207.646,86.766
		c-17.209,0-31.622-12.182-35.08-28.375h70.176C239.281,74.584,224.862,86.766,207.646,86.766z"/>
	<path d="M257.246,234.063v-1.496c25.198-3.648,44.621-25.381,44.621-51.573c0-26.556-19.968-48.521-45.676-51.707
		c-3.042-9.976-12.33-17.256-23.288-17.256h-50.5c-10.958,0-20.245,7.28-23.287,17.256c-25.708,3.186-45.677,25.151-45.677,51.708
		c0,26.192,19.423,47.925,44.621,51.573v1.496c0,12.752,4.841,24.393,12.778,33.189l6.635,126.359l-21.447,7.071
		c-3.934,1.297-6.071,5.538-4.774,9.472c1.04,3.154,3.973,5.153,7.122,5.153c0.778,0,1.569-0.122,2.35-0.379l26.889-8.865
		c3.213-1.06,5.318-4.138,5.141-7.516l-6.283-119.654c6.428,3.05,13.609,4.763,21.183,4.763c7.575,0,14.755-1.713,21.183-4.762
		l-6.282,119.653c-0.178,3.378,1.928,6.457,5.141,7.516l26.889,8.865c0.78,0.257,1.571,0.379,2.35,0.379
		c3.149,0,6.082-2,7.122-5.153c1.297-3.934-0.841-8.174-4.774-9.472l-21.447-7.071l6.634-126.358
		C252.405,258.457,257.246,246.816,257.246,234.063z M215.153,144.293V127.03h17.267
		C229.916,135.306,223.378,141.796,215.153,144.293z M200.153,144.296c-8.225-2.495-14.763-8.988-17.268-17.266h17.268V144.296z
		 M173.061,234.063v-92.784c5.984,9.482,15.742,16.313,27.093,18.429v108.119C184.674,264.391,173.061,250.562,173.061,234.063z
		 M215.153,159.707c11.351-2.119,21.11-8.95,27.094-18.432l-0.001,92.788c0,16.499-11.614,30.328-27.093,33.764V159.707z
		 M286.867,180.994c0,17.9-12.736,32.88-29.621,36.358l0.001-72.716C274.132,148.114,286.867,163.094,286.867,180.994z
		 M128.439,180.994c0-17.9,12.736-32.88,29.621-36.358v72.717C141.175,213.874,128.439,198.894,128.439,180.994z"/>
</g>
<g>
</g>
<g>
</g>
<g>
</g>
<g>
</g>
<g>
</g>
<g>
</g>
<g>
</g>
<g>
</g>
<g>
</g>
<g>
</g>
<g>
</g>
<g>
</g>
<g>
</g>
<g>
</g>
<g>
</g>
</svg>
