<?xml version="1.0" encoding="iso-8859-1"?>
<!-- Generator: Adobe Illustrator 19.0.0, SVG Export Plug-In . SVG Version: 6.00 Build 0)  -->
<svg version="1.1" id="Capa_1" xmlns="http://www.w3.org/2000/svg" xmlns:xlink="http://www.w3.org/1999/xlink" x="0px" y="0px"
	 viewBox="0 0 450.918 450.918" style="enable-background:new 0 0 450.918 450.918;" xml:space="preserve">
<g>
	<path d="M258.989,51.466h-67.06c-2.243,0-4.368,1.004-5.792,2.736c-7.453,9.063-11.558,20.535-11.558,32.304
		c0,28.05,22.82,50.87,50.87,50.87c28.061,0,50.89-22.82,50.89-50.87c0-11.755-4.103-23.226-11.554-32.299
		C263.361,52.472,261.234,51.466,258.989,51.466z M225.449,122.376c-19.779,0-35.87-16.091-35.87-35.87
		c0-7.157,2.148-14.155,6.105-20.04h39.608v10.783c0,4.142,3.358,7.5,7.5,7.5s7.5-3.358,7.5-7.5V66.466h4.938
		c3.958,5.894,6.108,12.892,6.108,20.04C261.339,106.285,245.239,122.376,225.449,122.376z"/>
	<path d="M364.495,87.348c-4.115-0.451-7.82,2.523-8.271,6.641c-2.313,21.155-12.726,40.144-29.32,53.468
		c-7.743,6.217-16.405,10.831-25.585,13.773V86.506c0-11.807-2.758-23.399-8.003-33.883c4.4-5.679,6.854-12.695,6.854-19.982
		C300.17,14.643,285.528,0,267.529,0c-10.138,0-19.507,4.643-25.629,12.424c-10.79-2.401-22.113-2.401-32.902,0
		C202.876,4.643,193.508,0,183.369,0c-17.999,0-32.641,14.643-32.641,32.641c0,7.286,2.454,14.303,6.854,19.982
		c-5.245,10.483-8.003,22.076-8.003,33.883v74.715c-9.172-2.942-17.828-7.553-25.565-13.765
		c-16.595-13.324-27.007-32.313-29.32-53.468c-0.45-4.118-4.155-7.094-8.271-6.641c-4.118,0.45-7.091,4.153-6.641,8.271
		c2.749,25.139,15.122,47.702,34.84,63.534c10.472,8.408,22.353,14.375,34.956,17.718v34.356c0,4.142,3.358,7.5,7.5,7.5h18.79v41.45
		l-13.622,47.68c-0.646,2.263-0.193,4.698,1.224,6.577c1.417,1.879,3.634,2.983,5.988,2.983h19.948l5.871,111.811l-21.447,7.066
		c-3.934,1.296-6.072,5.536-4.776,9.47c1.039,3.155,3.972,5.155,7.122,5.155c0.778,0,1.569-0.122,2.349-0.379l26.89-8.859
		c3.213-1.059,5.32-4.138,5.143-7.517l-6.13-116.747h42.042l-6.13,116.747c-0.177,3.378,1.929,6.458,5.143,7.517l26.89,8.859
		c0.78,0.257,1.57,0.379,2.349,0.379c3.149,0,6.083-2,7.122-5.155c1.296-3.934-0.842-8.174-4.776-9.47l-21.447-7.066l5.871-111.811
		h19.968c2.354,0,4.57-1.104,5.988-2.983c1.417-1.879,1.87-4.314,1.224-6.577l-13.622-47.68v-41.45h18.77c4.142,0,7.5-3.358,7.5-7.5
		v-34.351c12.61-3.343,24.499-9.311,34.976-17.723c19.719-15.832,32.092-38.396,34.84-63.534
		C371.586,91.5,368.613,87.798,364.495,87.348z M179.402,302.417l9.382-32.842l35.606,5.077c0.702,0.101,1.415,0.101,2.117,0
		l35.626-5.077l9.382,32.842H179.402z M164.579,179.557c3.024,0.293,6.069,0.457,9.133,0.457c0.718,0,1.437-0.013,2.157-0.03v23.741
		h-11.29V179.557z M225.449,259.651l-34.58-4.931v-17.994h69.18v17.993L225.449,259.651z M190.869,221.727v-49.74
		c0-4.036,2.578-7.472,6.17-8.774l18.839,23.703l-6.012,7.564c-2.577,3.243-2.038,7.96,1.205,10.538
		c1.379,1.096,3.026,1.629,4.662,1.629c2.208,0,4.396-0.971,5.876-2.834l3.85-4.844l3.85,4.844c1.481,1.863,3.668,2.834,5.876,2.834
		c1.635,0,3.282-0.533,4.662-1.629c3.243-2.578,3.782-7.295,1.205-10.538l-6.012-7.564l18.839-23.703
		c3.592,1.302,6.17,4.738,6.17,8.774v49.74H190.869z M225.459,174.862l-9.708-12.215h19.417L225.459,174.862z M275.049,179.985
		c0.719,0.016,1.439,0.029,2.157,0.029c3.058,0,6.096-0.164,9.113-0.455v24.167h-11.27V179.985z M274.001,164.927
		c-3.033-9.989-12.326-17.28-23.292-17.28h-50.5c-10.966,0-20.258,7.292-23.292,17.28c-4.15,0.163-8.272,0.006-12.338-0.465V86.506
		c0-11.141,3.049-22.046,8.817-31.534c1.856-3.053,3.996-5.962,6.36-8.648c2.737-3.109,2.435-7.849-0.674-10.585
		c-3.109-2.736-7.848-2.435-10.585,0.674c-0.598,0.679-1.176,1.378-1.75,2.079c-0.658-1.863-1.018-3.836-1.018-5.851
		c0-9.728,7.914-17.641,17.641-17.641c6.599,0,12.597,3.644,15.653,9.51c1.667,3.199,5.373,4.757,8.825,3.713
		c11.42-3.459,23.781-3.459,35.203,0c3.454,1.046,7.159-0.515,8.825-3.713c3.056-5.866,9.054-9.51,15.653-9.51
		c9.728,0,17.641,7.914,17.641,17.641c0,2.015-0.361,3.988-1.018,5.851c-0.574-0.701-1.152-1.4-1.75-2.079
		c-2.737-3.109-7.476-3.41-10.585-0.674c-3.109,2.737-3.411,7.476-0.674,10.585c2.364,2.686,4.504,5.595,6.36,8.647
		c5.769,9.489,8.817,20.394,8.817,31.535v77.959C282.259,164.934,278.145,165.09,274.001,164.927z"/>
</g>
<g>
</g>
<g>
</g>
<g>
</g>
<g>
</g>
<g>
</g>
<g>
</g>
<g>
</g>
<g>
</g>
<g>
</g>
<g>
</g>
<g>
</g>
<g>
</g>
<g>
</g>
<g>
</g>
<g>
</g>
</svg>
