<?xml version="1.0" encoding="iso-8859-1"?>
<!-- Generator: Adobe Illustrator 19.0.0, SVG Export Plug-In . SVG Version: 6.00 Build 0)  -->
<svg version="1.1" id="Capa_1" xmlns="http://www.w3.org/2000/svg" xmlns:xlink="http://www.w3.org/1999/xlink" x="0px" y="0px"
	 viewBox="0 0 470.003 470.003" style="enable-background:new 0 0 470.003 470.003;" xml:space="preserve">
<g>
	<path d="M234.994,156.462c28.061,0,50.891-22.822,50.891-50.875c0-20.848-12.606-38.799-30.591-46.655l5.983-50.55
		c0.487-4.114-2.453-7.843-6.567-8.33c-4.113-0.487-7.843,2.453-8.33,6.566l-0.104,0.88l-5.624,47.519
		c-1.859-0.207-3.745-0.322-5.658-0.322c-1.913,0-3.799,0.116-5.658,0.322l-5.624-47.519l-0.104-0.88
		c-0.487-4.113-4.211-7.052-8.33-6.566c-4.114,0.487-7.054,4.216-6.567,8.33l5.983,50.553
		c-17.976,7.858-30.575,25.807-30.575,46.652C184.119,133.639,206.941,156.462,234.994,156.462z M234.994,69.696
		c19.79,0,35.891,16.101,35.891,35.891c0,19.781-16.101,35.875-35.891,35.875c-19.781,0-35.875-16.093-35.875-35.875
		C199.119,85.797,215.212,69.696,234.994,69.696z"/>
	<path d="M284.594,288.759v-1.497c25.198-3.648,44.621-25.381,44.621-51.573c0-26.556-19.968-48.521-45.675-51.707
		c-3.042-9.976-12.33-17.256-23.288-17.256h-50.5c-10.958,0-20.246,7.28-23.288,17.256c-25.707,3.187-45.675,25.152-45.675,51.707
		c0,26.192,19.423,47.925,44.62,51.573v1.497c0,12.752,4.841,24.393,12.778,33.189l6.635,126.359l-21.447,7.071
		c-3.934,1.297-6.071,5.537-4.774,9.471c1.04,3.154,3.973,5.154,7.122,5.154c0.779,0,1.57-0.122,2.35-0.379l26.889-8.865
		c3.212-1.059,5.318-4.138,5.141-7.516l-6.283-119.653c6.428,3.05,13.608,4.763,21.183,4.763c7.575,0,14.755-1.713,21.183-4.763
		l-6.283,119.653c-0.177,3.378,1.929,6.457,5.141,7.516l26.889,8.865c0.78,0.257,1.571,0.379,2.35,0.379
		c3.149,0,6.082-2,7.122-5.154c1.297-3.934-0.841-8.174-4.774-9.471l-21.447-7.071l6.635-126.359
		C279.753,313.152,284.594,301.511,284.594,288.759z M269.595,191.069l0,64.36h-13v-73.703h3.657
		C265.403,181.726,269.595,185.917,269.595,191.069z M213.408,255.429h-13v-64.36c0-5.152,4.191-9.343,9.343-9.343h3.657V255.429z
		 M200.408,288.759v-18.33h20.5c4.142,0,7.5-3.358,7.5-7.5v-81.203h13.186v81.203c0,4.142,3.358,7.5,7.5,7.5h20.5l0,18.33
		c0,19.075-15.518,34.593-34.593,34.593S200.408,307.833,200.408,288.759z M314.215,235.689c0,17.9-12.735,32.88-29.621,36.358
		l0-72.716C301.48,202.809,314.215,217.79,314.215,235.689z M155.788,235.689c0-17.899,12.735-32.88,29.62-36.358v72.716
		C168.523,268.569,155.788,253.589,155.788,235.689z"/>
</g>
<g>
</g>
<g>
</g>
<g>
</g>
<g>
</g>
<g>
</g>
<g>
</g>
<g>
</g>
<g>
</g>
<g>
</g>
<g>
</g>
<g>
</g>
<g>
</g>
<g>
</g>
<g>
</g>
<g>
</g>
</svg>
