<?xml version="1.0" encoding="iso-8859-1"?>
<!-- Generator: Adobe Illustrator 19.0.0, SVG Export Plug-In . SVG Version: 6.00 Build 0)  -->
<svg version="1.1" id="Capa_1" xmlns="http://www.w3.org/2000/svg" xmlns:xlink="http://www.w3.org/1999/xlink" x="0px" y="0px"
	 viewBox="0 0 415.307 415.307" style="enable-background:new 0 0 415.307 415.307;" xml:space="preserve">
<g>
	<path d="M300.521,184.464c-7.531-22.68-22.989-41.296-43.743-52.842c-2.216-11.156-12.077-19.592-23.874-19.592h-0.855
		c-0.697-3.421-3.721-5.996-7.349-5.996s-6.652,2.575-7.349,5.996h-19.398c-0.697-3.421-3.721-5.996-7.349-5.996
		s-6.652,2.575-7.349,5.996h-0.851c-11.797,0-21.658,8.437-23.874,19.592c-20.754,11.546-36.213,30.162-43.743,52.842
		c-7.969,24-6.115,49.666,5.221,72.271c1.315,2.624,3.962,4.14,6.71,4.14c1.13,0,2.277-0.256,3.356-0.797
		c3.702-1.856,5.198-6.363,3.342-10.066c-9.539-19.024-11.1-40.624-4.394-60.82c5.357-16.133,15.488-29.816,29.039-39.537v34.597
		c-3.541,0.601-6.24,3.674-6.24,7.386s2.699,6.786,6.24,7.386v13.039v22c0,12.753,4.842,24.394,12.778,33.189l6.635,126.359
		l-21.447,7.071c-3.934,1.297-6.071,5.538-4.774,9.472c1.04,3.154,3.973,5.153,7.122,5.153c0.778,0,1.569-0.122,2.35-0.379
		l26.889-8.865c3.213-1.06,5.318-4.138,5.141-7.516l-6.283-119.654c6.428,3.05,13.609,4.763,21.184,4.763
		c7.575,0,14.755-1.713,21.183-4.763l-6.282,119.653c-0.178,3.378,1.928,6.457,5.141,7.516l26.889,8.865
		c0.78,0.257,1.571,0.379,2.35,0.379c3.149,0,6.082-2,7.122-5.153c1.297-3.934-0.841-8.174-4.774-9.472l-21.447-7.071l6.634-126.358
		c7.938-8.796,12.779-20.437,12.779-33.188c0-0.002,0-22.002,0-22.002v-13.039c3.541-0.601,6.24-3.674,6.24-7.386
		s-2.699-6.786-6.24-7.386v-34.597c13.552,9.721,23.682,23.403,29.039,39.537c6.706,20.197,5.146,41.796-4.394,60.82
		c-1.856,3.703-0.36,8.209,3.342,10.066c1.079,0.542,2.227,0.797,3.356,0.797c2.748,0,5.395-1.516,6.71-4.14
		C306.636,234.13,308.49,208.464,300.521,184.464z M173.061,136.374c0-5.152,4.191-9.343,9.343-9.343h0.703v57.107h-10.046V136.374z
		 M183.107,204.563h-10.046v-5.425h10.046V204.563z M173.061,226.564v-7.001h17.546c4.117,0,7.456-3.318,7.496-7.425h19.101
		c0.041,4.107,3.379,7.425,7.496,7.425h17.547v7.001H173.061z M242.246,204.563h-10.047v-5.425h10.047V204.563z M217.199,197.138
		h-19.093v-5.48c0-0.039,0-64.627,0-64.627h19.093V197.138z M173.889,241.564h67.528c-3.437,15.479-17.266,27.092-33.764,27.092
		S177.326,257.043,173.889,241.564z M232.199,184.138V127.03h0.704c5.151,0,9.343,4.191,9.343,9.343v47.764H232.199z"/>
	<path d="M164.271,101.471c4.143,0,7.5-3.358,7.5-7.5v-7.044c9.206,9.165,21.889,14.839,35.875,14.839
		c13.992,0,26.682-5.676,35.891-14.844v7.048c0,4.142,3.357,7.5,7.5,7.5s7.5-3.358,7.5-7.5V50.892
		C258.536,22.83,235.707,0,207.646,0c-28.053,0-50.875,22.83-50.875,50.892v43.079C156.771,98.113,160.128,101.471,164.271,101.471z
		 M207.646,15c17.218,0,31.638,12.19,35.096,28.392h-70.177C176.022,27.19,190.435,15,207.646,15z M207.646,86.766
		c-17.209,0-31.622-12.182-35.08-28.375h70.176C239.281,74.584,224.863,86.766,207.646,86.766z"/>
</g>
<g>
</g>
<g>
</g>
<g>
</g>
<g>
</g>
<g>
</g>
<g>
</g>
<g>
</g>
<g>
</g>
<g>
</g>
<g>
</g>
<g>
</g>
<g>
</g>
<g>
</g>
<g>
</g>
<g>
</g>
</svg>
