<?xml version="1.0" encoding="iso-8859-1"?>
<!-- Generator: Adobe Illustrator 19.0.0, SVG Export Plug-In . SVG Version: 6.00 Build 0)  -->
<svg version="1.1" id="Capa_1" xmlns="http://www.w3.org/2000/svg" xmlns:xlink="http://www.w3.org/1999/xlink" x="0px" y="0px"
	 viewBox="0 0 421.836 421.836" style="enable-background:new 0 0 421.836 421.836;" xml:space="preserve">
<g>
	<path d="M379.823,120.968c-3.285-2.525-7.994-1.908-10.517,1.375c-12.97,16.873-31.733,27.686-52.835,30.445
		c-19.906,2.604-39.627-2.256-55.959-13.691V72.144c7.707,16.484,12.839,34.325,15.99,55.145c0.563,3.715,3.761,6.379,7.406,6.379
		c0.374,0,0.752-0.028,1.132-0.085c4.096-0.62,6.913-4.442,6.294-8.538c-4.549-30.055-12.982-54.41-26.89-77.275
		c12.472,9.544,23.939,21.027,35.249,35.134c1.481,1.848,3.659,2.809,5.856,2.809c1.646,0,3.303-0.54,4.687-1.649
		c3.231-2.591,3.751-7.312,1.16-10.543c-18.009-22.462-36.458-36.26-58.326-48.362c1.217-2.752,0.706-6.083-1.55-8.338
		c-2.834-2.835-7.369-2.917-10.314-0.264c-1.324-0.985-2.698-1.905-4.117-2.76c1.322-3.734-0.489-7.89-4.192-9.424
		c-3.696-1.532-7.909,0.118-9.62,3.682c-1.601-0.401-3.23-0.728-4.887-0.973C218.172,3.136,214.912,0,210.91,0
		c-4.002,0-7.262,3.136-7.479,7.084c-1.651,0.244-3.275,0.57-4.871,0.969c-1.712-3.562-5.927-5.212-9.619-3.68
		c-3.702,1.533-5.514,5.687-4.195,9.421c-1.419,0.855-2.794,1.776-4.119,2.761c-2.943-2.651-7.477-2.568-10.312,0.266
		c-1.585,1.585-2.304,3.703-2.174,5.777c-21.591,12.487-39.865,28.678-57.7,50.922c-2.591,3.231-2.071,7.952,1.16,10.543
		c1.384,1.11,3.041,1.649,4.687,1.649c2.197,0,4.375-0.961,5.856-2.809c11.305-14.1,22.771-25.57,35.235-35.111
		c-13.9,22.858-22.33,47.206-26.877,77.252c-0.62,4.096,2.197,7.918,6.293,8.538c0.38,0.058,0.758,0.085,1.132,0.085
		c3.646,0,6.844-2.664,7.406-6.378c3.151-20.82,8.285-38.662,15.991-55.145v66.952c-16.334,11.437-36.063,16.295-55.96,13.692
		c-21.102-2.76-39.865-13.572-52.835-30.445c-2.524-3.283-7.232-3.901-10.517-1.375c-3.284,2.524-3.9,7.233-1.376,10.517
		c15.411,20.049,37.708,32.897,62.782,36.177c4.172,0.545,8.335,0.815,12.474,0.815c15.953,0,31.496-4.03,45.432-11.733v83.848
		c0,12.752,4.841,24.393,12.778,33.189l6.635,126.359l-21.447,7.071c-3.934,1.297-6.071,5.538-4.774,9.472
		c1.04,3.154,3.973,5.153,7.122,5.153c0.778,0,1.57-0.122,2.35-0.379l26.889-8.865c3.213-1.06,5.318-4.138,5.141-7.516
		l-6.283-119.653c6.428,3.05,13.609,4.763,21.183,4.763s14.755-1.713,21.183-4.763l-6.283,119.653
		c-0.178,3.378,1.928,6.457,5.141,7.516l26.889,8.865c0.78,0.257,1.571,0.379,2.35,0.379c3.149,0,6.082-2,7.122-5.153
		c1.297-3.934-0.841-8.174-4.774-9.472l-21.447-7.071l6.635-126.359c7.937-8.796,12.778-20.437,12.778-33.189l0.001-83.847
		c13.935,7.703,29.476,11.732,45.431,11.732c4.138,0,8.303-0.27,12.474-0.815c25.074-3.28,47.371-16.128,62.782-36.177
		C383.723,128.201,383.107,123.492,379.823,120.968z M204.073,22.191c3.487,21.535,20.531,38.58,42.066,42.067
		c-3.203,16.521-17.778,29.038-35.229,29.038c-19.781,0-35.874-16.093-35.874-35.875C175.036,39.97,187.552,25.395,204.073,22.191z
		 M245.768,48.887c-12.946-3.17-23.154-13.378-26.324-26.325C232.39,25.733,242.597,35.941,245.768,48.887z M210.91,108.295
		c3.084,0,6.099-0.291,9.033-0.819v11.083h-18.05v-11.081C204.823,108.005,207.832,108.295,210.91,108.295z M236.168,118.56h-1.225
		v-16.309c3.846-2.069,7.393-4.622,10.568-7.57v25.747C242.633,119.226,239.477,118.56,236.168,118.56z M186.894,102.255v16.304
		h-1.226c-3.309,0-6.464,0.666-9.343,1.867V94.686C179.5,97.635,183.047,100.187,186.894,102.255z M176.325,142.903
		c0-5.152,4.191-9.343,9.343-9.343h17.75v99.533h-27.093V142.903z M218.418,233.092V133.56h17.75c5.152,0,9.344,4.191,9.344,9.343
		l-0.001,90.189H218.418z M177.154,248.092h26.7c1.031,2.911,3.8,5,7.064,5s6.034-2.089,7.064-5h26.7
		c-3.437,15.479-17.266,27.093-33.764,27.093S180.59,263.572,177.154,248.092z"/>
</g>
<g>
</g>
<g>
</g>
<g>
</g>
<g>
</g>
<g>
</g>
<g>
</g>
<g>
</g>
<g>
</g>
<g>
</g>
<g>
</g>
<g>
</g>
<g>
</g>
<g>
</g>
<g>
</g>
<g>
</g>
</svg>
