<?xml version="1.0" encoding="iso-8859-1"?>
<!-- Generator: Adobe Illustrator 19.0.0, SVG Export Plug-In . SVG Version: 6.00 Build 0)  -->
<svg version="1.1" id="Capa_1" xmlns="http://www.w3.org/2000/svg" xmlns:xlink="http://www.w3.org/1999/xlink" x="0px" y="0px"
	 viewBox="0 0 415.307 415.307" style="enable-background:new 0 0 415.307 415.307;" xml:space="preserve">
<g>
	<path d="M260.806,131.616c-2.219-11.153-12.078-19.586-23.873-19.586h-8.204h-14.415c-1.258-2.378-3.753-4-6.631-4
		s-5.373,1.622-6.631,4h-14.416h-8.203c-11.797,0-21.658,8.437-23.874,19.592c-20.754,11.546-36.213,30.162-43.743,52.842
		c-7.969,24-6.115,49.666,5.221,72.271c1.315,2.624,3.962,4.14,6.71,4.14c1.13,0,2.277-0.256,3.356-0.797
		c3.702-1.856,5.198-6.363,3.342-10.066c-9.539-19.024-11.1-40.624-4.394-60.82c5.357-16.133,15.488-29.816,29.039-39.537v84.408
		c0,3.069,1.846,5.704,4.486,6.865c1.398,10.043,5.805,19.135,12.292,26.324l6.635,126.359l-21.447,7.071
		c-3.934,1.297-6.071,5.538-4.774,9.472c1.04,3.154,3.973,5.153,7.122,5.153c0.778,0,1.569-0.122,2.35-0.379l26.889-8.865
		c3.213-1.06,5.318-4.138,5.141-7.516L186.5,278.893c6.428,3.05,13.609,4.763,21.183,4.763c7.575,0,14.755-1.713,21.183-4.763
		l-6.282,119.653c-0.178,3.378,1.928,6.457,5.141,7.516l26.889,8.865c0.78,0.257,1.571,0.379,2.35,0.379
		c3.149,0,6.082-2,7.122-5.153c1.297-3.934-0.841-8.174-4.774-9.472l-21.447-7.071l6.634-126.358
		c6.487-7.189,10.896-16.281,12.293-26.325c2.64-1.161,4.486-3.796,4.486-6.865v-84.4c31.182,22.443,42.405,64.93,24.646,100.349
		c-1.856,3.703-0.36,8.209,3.343,10.066c1.078,0.541,2.226,0.797,3.355,0.797c2.748,0,5.395-1.516,6.71-4.14
		C322.105,211.315,304.776,156.106,260.806,131.616z M246.276,136.374v90.189h-10.047V127.03h0.704
		C242.084,127.03,246.276,131.222,246.276,136.374z M179.136,127.03v99.533H169.09v-90.189c0-5.152,4.191-9.343,9.343-9.343H179.136
		z M173.919,241.563h12.718c4.143,0,7.5-3.358,7.5-7.5V127.03h6.047v7.774c0,4.142,3.357,7.5,7.5,7.5s7.5-3.358,7.5-7.5v-7.774
		h6.046v107.033c0,4.142,3.357,7.5,7.5,7.5h12.719c-3.437,15.479-17.266,27.093-33.764,27.093S177.355,257.042,173.919,241.563z"/>
	<path d="M157.146,45.045c-0.221,1.92-0.346,3.868-0.346,5.846c0,28.052,22.822,50.875,50.875,50.875
		c28.062,0,50.891-22.822,50.891-50.875c0-1.983-0.126-3.936-0.348-5.86c1.706-1.375,2.799-3.479,2.799-5.84
		c0-3.689-2.665-6.749-6.174-7.376C247.279,13.181,228.993,0,207.675,0c-21.31,0-39.589,13.179-47.152,31.813
		c-3.519,0.618-6.195,3.683-6.195,7.379C154.329,41.562,155.43,43.671,157.146,45.045z M237.976,31.692h-60.588
		C183.758,21.669,194.95,15,207.675,15C220.406,15,231.602,21.669,237.976,31.692z M243.566,50.892
		c0,19.781-16.101,35.875-35.891,35.875c-19.781,0-35.875-16.093-35.875-35.875c0-1.421,0.092-2.821,0.254-4.2h3.807
		c0.353,3.731,1.361,7.277,4.224,10.149c2.696,2.705,6.427,4.076,11.089,4.076s8.393-1.372,11.088-4.076
		c2.863-2.873,3.871-6.418,4.224-10.149h2.38c0.353,3.731,1.361,7.277,4.224,10.149c2.695,2.705,6.426,4.076,11.088,4.076
		s8.393-1.372,11.089-4.076c2.863-2.873,3.871-6.418,4.224-10.149h3.822C243.473,48.071,243.566,49.47,243.566,50.892z"/>
</g>
<g>
</g>
<g>
</g>
<g>
</g>
<g>
</g>
<g>
</g>
<g>
</g>
<g>
</g>
<g>
</g>
<g>
</g>
<g>
</g>
<g>
</g>
<g>
</g>
<g>
</g>
<g>
</g>
<g>
</g>
</svg>
