<?xml version="1.0" encoding="iso-8859-1"?>
<!-- Generator: Adobe Illustrator 19.0.0, SVG Export Plug-In . SVG Version: 6.00 Build 0)  -->
<svg version="1.1" id="Capa_1" xmlns="http://www.w3.org/2000/svg" xmlns:xlink="http://www.w3.org/1999/xlink" x="0px" y="0px"
	 viewBox="0 0 423.503 423.503" style="enable-background:new 0 0 423.503 423.503;" xml:space="preserve">
<g>
	<path d="M211.744,109.962c28.061,0,50.891-22.822,50.891-50.875c0-10.375-3.127-20.03-8.479-28.085l0.951-0.857
		c3.078-2.772,3.327-7.514,0.555-10.592c-2.772-3.078-7.514-3.327-10.592-0.555l-0.949,0.854c-1.603-1.325-3.295-2.542-5.053-3.666
		l0.523-1.174c1.685-3.784-0.017-8.217-3.801-9.902c-3.784-1.686-8.218,0.018-9.902,3.801l-0.513,1.152
		c-1.998-0.556-4.042-1.002-6.13-1.312V7.5c0-4.142-3.358-7.5-7.5-7.5s-7.5,3.358-7.5,7.5v1.253
		c-2.083,0.309-4.121,0.754-6.115,1.309l-0.512-1.149c-1.685-3.784-6.12-5.487-9.902-3.801c-3.784,1.685-5.486,6.118-3.801,9.902
		l0.521,1.17c-1.759,1.124-3.452,2.342-5.055,3.667l-0.946-0.852c-3.078-2.771-7.821-2.523-10.592,0.555
		c-2.771,3.078-2.523,7.82,0.555,10.592L169.347,31c-5.351,8.056-8.478,17.711-8.478,28.087
		C160.869,87.14,183.691,109.962,211.744,109.962z M175.869,59.087c0-19.791,16.093-35.892,35.875-35.892
		c19.79,0,35.891,16.101,35.891,35.892c0,19.781-16.101,35.875-35.891,35.875C191.962,94.962,175.869,78.869,175.869,59.087z"/>
	<path d="M368.571,99.18l-15.918-9.901c1.004-2.869,1.862-5.789,2.587-8.747c0.739,0.234,1.505,0.357,2.273,0.357
		c1.919,0,3.839-0.732,5.303-2.197c2.929-2.929,2.929-7.678,0-10.606l-25.422-25.422c3.781-8.961,1.255-20.666-7.1-29.021
		c-5.634-5.634-13.024-8.866-20.274-8.866c-5.856,0-11.218,2.138-15.099,6.019c-4.513,4.513-6.646,11.057-5.854,17.954
		c0.73,6.353,3.82,12.539,8.7,17.419c5.634,5.634,13.023,8.865,20.274,8.866c3.108,0,6.067-0.619,8.749-1.763l15.452,15.452
		c-0.576,4.217-1.47,8.363-2.695,12.403l-16.968-10.554c-2.09-1.3-4.684-1.492-6.94-0.514c-2.258,0.977-3.893,3-4.375,5.412
		c-4.225,21.127-16.475,39.871-33.608,51.425c-2.067,1.394-3.307,3.725-3.307,6.218v3.716c-4.642,0.646-9.337,0.874-14.047,0.691
		c-3.03-9.997-12.326-17.296-23.299-17.296h-18.619c-1.258-2.378-3.754-4-6.631-4s-5.373,1.622-6.631,4h-18.619
		c-10.973,0-20.27,7.299-23.299,17.296c-4.71,0.183-9.406-0.045-14.047-0.691v-3.716c0-2.494-1.239-4.824-3.307-6.218
		c-17.134-11.554-29.383-30.298-33.608-51.425c-0.482-2.413-2.118-4.435-4.375-5.412c-2.257-0.978-4.85-0.785-6.94,0.514
		L83.956,81.127c-1.226-4.044-2.121-8.196-2.696-12.417l15.439-15.439c2.682,1.145,5.641,1.764,8.748,1.764
		c7.25,0,14.64-3.231,20.274-8.866c10.537-10.537,11.814-26.405,2.846-35.373c-3.881-3.881-9.244-6.019-15.099-6.019
		c-7.25,0-14.64,3.231-20.274,8.865c-4.88,4.88-7.97,11.067-8.701,17.42c-0.473,4.114,0.103,8.098,1.596,11.605L60.671,68.086
		c-2.929,2.929-2.929,7.678,0,10.606c1.464,1.464,3.384,2.197,5.303,2.197c0.773,0,1.544-0.125,2.287-0.362
		c0.724,2.96,1.583,5.881,2.588,8.752L54.932,99.18c-3.11,1.935-4.368,5.832-2.976,9.22c13.759,33.48,41.973,53.469,75.474,53.469
		c5.079,0,10.296-0.459,15.508-1.364c3.593-0.624,6.217-3.742,6.217-7.389v-1.163c3.626,0.423,7.276,0.643,10.937,0.643
		c0.688,0,1.377-0.013,2.066-0.028v89.692c0,12.752,4.841,24.393,12.778,33.189l6.635,126.359l-21.447,7.071
		c-3.934,1.297-6.071,5.538-4.774,9.472c1.04,3.154,3.973,5.153,7.122,5.153c0.779,0,1.57-0.122,2.35-0.379l26.889-8.865
		c3.212-1.06,5.318-4.138,5.141-7.516l-6.283-119.653c6.428,3.05,13.608,4.763,21.183,4.763c7.575,0,14.755-1.713,21.182-4.763
		l-6.283,119.653c-0.177,3.378,1.929,6.457,5.141,7.516l26.889,8.865c0.78,0.257,1.571,0.379,2.35,0.379
		c3.149,0,6.082-2,7.122-5.153c1.297-3.934-0.841-8.174-4.774-9.472l-21.447-7.071l6.635-126.359
		c7.937-8.796,12.778-20.437,12.778-33.189l0-89.692c0.689,0.015,1.378,0.028,2.066,0.028c3.661,0,7.311-0.219,10.937-0.643v1.163
		c0,3.647,2.624,6.765,6.217,7.389c5.209,0.905,10.427,1.364,15.507,1.364c33.502,0,61.715-19.988,75.474-53.469
		C372.938,105.012,371.681,101.115,368.571,99.18z M303.968,27.038c-0.157-1.365-0.163-3.913,1.559-5.634
		c1.343-1.343,3.184-1.625,4.492-1.625c3.253,0,6.867,1.672,9.667,4.472c4.53,4.53,5.859,11.146,2.846,14.16
		c-1.343,1.343-3.184,1.625-4.491,1.625c-3.254,0-6.868-1.672-9.668-4.472C305.914,33.104,304.309,29.997,303.968,27.038z
		 M99.396,32.776c0.34-2.959,1.946-6.066,4.406-8.526c2.8-2.8,6.414-4.472,9.667-4.472c1.308,0,3.149,0.282,4.493,1.625
		c3.013,3.014,1.684,9.63-2.846,14.16c-2.8,2.8-6.415,4.472-9.668,4.472c-1.308,0-3.149-0.282-4.493-1.625
		C99.232,36.688,99.239,34.141,99.396,32.776z M68.429,108.45l31.746-19.745c6.115,19.396,18.091,36.483,33.98,48.287v9.562
		c-2.267,0.209-4.514,0.315-6.725,0.315C101.763,146.869,80.555,132.958,68.429,108.45z M177.987,249.76h67.529
		c-3.437,15.479-17.266,27.092-33.764,27.092S181.424,265.239,177.987,249.76z M177.158,234.76v-89.792
		c0.01-0.198,0.016-0.397,0.01-0.598c0.107-5.059,4.249-9.144,9.333-9.144h17.75V143c0,4.142,3.358,7.5,7.5,7.5s7.5-3.358,7.5-7.5
		v-7.774h17.75c5.085,0,9.226,4.085,9.333,9.144c-0.006,0.201,0,0.4,0.01,0.598l0,89.792H177.158z M296.073,146.869
		c-2.211,0-4.459-0.105-6.725-0.315v-9.562c15.89-11.804,27.865-28.891,33.98-48.287l31.746,19.745
		C342.947,132.959,321.739,146.87,296.073,146.869z"/>
</g>
<g>
</g>
<g>
</g>
<g>
</g>
<g>
</g>
<g>
</g>
<g>
</g>
<g>
</g>
<g>
</g>
<g>
</g>
<g>
</g>
<g>
</g>
<g>
</g>
<g>
</g>
<g>
</g>
<g>
</g>
</svg>
