<?xml version="1.0" encoding="iso-8859-1"?>
<!-- Generator: Adobe Illustrator 19.0.0, SVG Export Plug-In . SVG Version: 6.00 Build 0)  -->
<svg version="1.1" id="Capa_1" xmlns="http://www.w3.org/2000/svg" xmlns:xlink="http://www.w3.org/1999/xlink" x="0px" y="0px"
	 viewBox="0 0 470.306 470.306" style="enable-background:new 0 0 470.306 470.306;" xml:space="preserve">
<g>
	<path d="M374.189,106.735c-4.115-0.451-7.82,2.523-8.271,6.641c-2.313,21.155-12.726,40.144-29.32,53.468
		c-15.117,12.137-33.716,18.228-52.902,17.471c-3.033-9.989-12.326-17.28-23.293-17.28h-50.5c-10.966,0-20.258,7.292-23.292,17.28
		c-19.185,0.755-37.785-5.333-52.903-17.47c-16.595-13.324-27.007-32.313-29.32-53.468c-0.45-4.118-4.152-7.088-8.271-6.641
		c-4.118,0.45-7.091,4.153-6.641,8.271c2.749,25.139,15.122,47.702,34.84,63.534c16.971,13.626,37.634,20.862,59.089,20.862
		c0.718,0,1.437-0.013,2.157-0.03v139.931c0,4.142,3.358,7.5,7.5,7.5h6.563l5.346,101.811l-21.447,7.066
		c-3.934,1.296-6.072,5.537-4.776,9.471c1.04,3.155,3.973,5.155,7.122,5.155c0.778,0,1.569-0.122,2.349-0.378l26.89-8.86
		c3.213-1.059,5.32-4.138,5.143-7.517l-5.606-106.747h41.012l-5.606,106.747c-0.177,3.378,1.929,6.458,5.143,7.517l26.89,8.86
		c0.779,0.256,1.57,0.378,2.349,0.378c3.15,0,6.083-2,7.122-5.155c1.296-3.934-0.842-8.174-4.776-9.471l-21.447-7.066l5.346-101.81
		h6.563c4.142,0,7.5-3.358,7.5-7.5l0.001-139.931c0.719,0.016,1.438,0.029,2.156,0.029c21.454,0,42.12-7.237,59.089-20.862
		c19.719-15.832,32.092-38.396,34.84-63.534C381.28,110.888,378.306,107.186,374.189,106.735z M200.563,331.804v-43.687h46.679
		c4.142,0,7.5-3.358,7.5-7.5s-3.358-7.5-7.5-7.5h-46.679v-56.045c3.554-5.096,8.404-7.988,13.54-7.988
		c5.664,0,10.984,3.5,14.596,9.601c1.35,2.28,3.803,3.679,6.454,3.679c2.65,0,5.104-1.398,6.454-3.679
		c3.613-6.102,8.929-9.601,14.586-9.601c5.134,0,9.988,2.893,13.55,7.992l-0.001,114.728H200.563z M256.193,194.084
		c-7.734,0-15.142,3.175-21.041,8.795c-5.9-5.62-13.311-8.795-21.049-8.795c-4.726,0-9.328,1.19-13.54,3.394v-6.104
		c0-5.15,4.19-9.34,9.34-9.34h50.5c5.15,0,9.34,4.19,9.34,9.34l0,6.11C265.527,195.276,260.921,194.084,256.193,194.084z"/>
	<path d="M154.271,138.391c0,16.542,13.458,30,30,30c12.069,0,22.489-7.168,27.246-17.466c7.066,3.722,15.103,5.841,23.629,5.841
		c8.531,0,16.573-2.12,23.643-5.844c4.756,10.301,15.177,17.47,27.248,17.47c16.542,0,30-13.458,30-30
		c0-9.81-4.734-18.535-12.037-24.012c1.451-1.813,2.668-3.821,3.57-6c2.022-4.881,2.417-10.267,1.204-15.352
		c3.065-4.233,4.762-9.36,4.762-14.644s-1.697-10.411-4.762-14.644c1.212-5.084,0.818-10.471-1.204-15.352
		c-2.022-4.882-5.551-8.969-10.004-11.707c-0.826-5.162-3.251-9.986-6.987-13.722c-3.736-3.737-8.561-6.162-13.723-6.988
		c-2.738-4.453-6.825-7.981-11.707-10.004c-4.882-2.022-10.268-2.416-15.352-1.204C245.564,1.696,240.437,0,235.154,0
		s-10.411,1.696-14.644,4.763c-5.084-1.213-10.469-0.817-15.352,1.204c-4.882,2.022-8.969,5.551-11.707,10.004
		c-5.161,0.826-9.986,3.251-13.721,6.987c-3.737,3.736-6.163,8.561-6.988,13.723c-4.453,2.738-7.982,6.826-10.004,11.707
		c-2.022,4.881-2.416,10.267-1.204,15.352c-3.065,4.233-4.762,9.36-4.762,14.644s1.697,10.411,4.762,14.644
		c-1.212,5.084-0.818,10.47,1.204,15.352c0.902,2.178,2.119,4.187,3.57,6C159.005,119.855,154.271,128.58,154.271,138.391z
		 M184.271,153.391c-8.271,0-15-6.729-15-15c0-4.688,2.164-8.876,5.542-11.629c1.214,2.593,2.858,4.988,4.915,7.045
		c4.919,4.92,11.729,7.573,18.705,7.282c0.186,0.16,0.336,0.323,0.491,0.481C197.461,148.318,191.45,153.391,184.271,153.391z
		 M182.475,108.209c-2.705-0.968-4.792-2.947-5.879-5.571s-1.009-5.5,0.218-8.097c1.412-2.986,0.704-6.543-1.743-8.762
		c-2.128-1.93-3.3-4.557-3.3-7.397s1.172-5.467,3.3-7.397c2.447-2.218,3.154-5.775,1.743-8.761
		c-1.228-2.598-1.306-5.473-0.219-8.097s3.175-4.603,5.88-5.571c3.109-1.113,5.124-4.129,4.963-7.428
		c-0.141-2.869,0.888-5.555,2.897-7.564c2.008-2.008,4.692-3.041,7.564-2.896c3.298,0.16,6.314-1.854,7.427-4.963
		c0.968-2.705,2.947-4.792,5.571-5.879c2.623-1.087,5.5-1.01,8.097,0.218c2.986,1.412,6.543,0.704,8.761-1.742
		c1.93-2.128,4.558-3.301,7.398-3.301c2.84,0,5.467,1.172,7.397,3.301c2.219,2.446,5.775,3.154,8.761,1.742
		c2.597-1.227,5.472-1.305,8.097-0.218c2.624,1.087,4.603,3.175,5.571,5.879c1.113,3.109,4.14,5.123,7.427,4.963
		c2.877-0.145,5.556,0.888,7.565,2.897c2.008,2.008,3.037,4.694,2.896,7.563c-0.161,3.299,1.854,6.315,4.963,7.428
		c2.705,0.968,4.792,2.947,5.879,5.571c1.087,2.624,1.009,5.5-0.219,8.097c-1.411,2.986-0.704,6.543,1.743,8.761
		c2.128,1.93,3.3,4.557,3.3,7.397s-1.172,5.467-3.3,7.397c-2.447,2.218-3.154,5.776-1.743,8.762
		c1.228,2.597,1.305,5.473,0.218,8.097s-3.175,4.603-5.879,5.571c-0.166,0.06-0.316,0.145-0.476,0.215
		c-0.438-0.019-0.878-0.033-1.32-0.033c-0.021,0-0.042,0.002-0.063,0.002c0.04-0.829,0.063-1.663,0.063-2.502
		c0-28.062-22.83-50.892-50.891-50.892c-28.052,0-50.875,22.83-50.875,50.892c0,0.839,0.023,1.672,0.063,2.501
		c-0.021,0-0.042-0.001-0.063-0.001c-0.443,0-0.882,0.014-1.32,0.033C182.791,108.354,182.641,108.269,182.475,108.209z
		 M257.548,133.888c-6.145,4.923-13.933,7.877-22.403,7.877c-8.459,0-16.238-2.95-22.378-7.865
		c-0.633-0.844-1.435-1.554-2.363-2.069c-6.851-6.537-11.133-15.745-11.133-25.94c0-19.791,16.093-35.892,35.875-35.892
		c19.79,0,35.891,16.101,35.891,35.892c0,2.772-0.327,5.467-0.925,8.06c-0.813,1.239-1.246,2.698-1.232,4.19
		c-1.913,5.246-5.023,9.918-8.99,13.699C258.971,132.352,258.177,133.053,257.548,133.888z M286.036,153.391
		c-7.181,0-13.192-5.075-14.654-11.824c0.154-0.157,0.303-0.319,0.456-0.478c0.379,0.014,0.72,0.021,1.06,0.021
		c6.616,0,13.002-2.624,17.68-7.302c2.058-2.058,3.702-4.453,4.916-7.046c3.378,2.753,5.542,6.941,5.542,11.629
		C301.036,146.662,294.307,153.391,286.036,153.391z"/>
</g>
<g>
</g>
<g>
</g>
<g>
</g>
<g>
</g>
<g>
</g>
<g>
</g>
<g>
</g>
<g>
</g>
<g>
</g>
<g>
</g>
<g>
</g>
<g>
</g>
<g>
</g>
<g>
</g>
<g>
</g>
</svg>
