<?xml version="1.0" encoding="iso-8859-1"?>
<!-- Generator: Adobe Illustrator 19.0.0, SVG Export Plug-In . SVG Version: 6.00 Build 0)  -->
<svg version="1.1" id="Capa_1" xmlns="http://www.w3.org/2000/svg" xmlns:xlink="http://www.w3.org/1999/xlink" x="0px" y="0px"
	 viewBox="0 0 465.003 465.003" style="enable-background:new 0 0 465.003 465.003;" xml:space="preserve">
<g>
	<path d="M457.501,345.638c4.143,0,7.5-3.358,7.5-7.5s-3.357-7.5-7.5-7.5h-67.607v-37.12c0-2.478,0.977-4.819,2.751-6.592
		c1.773-1.774,4.114-2.75,6.591-2.75c0.001,0,50.501,0,50.501,0c1.495,0,2.937,0.358,4.283,1.064
		c1.113,0.583,2.306,0.855,3.481,0.854c2.698-0.003,5.304-1.46,6.643-4.016c1.923-3.668,0.508-8.202-3.161-10.125
		c-3.468-1.817-7.356-2.778-11.246-2.778h-50.5c-6.483,0-12.592,2.537-17.198,7.144c-2.877,2.877-4.947,6.339-6.096,10.113
		c-17.447,2.165-32.24,12.979-39.948,28.013v-180.08h121.507c4.143,0,7.5-3.358,7.5-7.5c0-4.142-3.357-7.5-7.5-7.5h-28.564v-35
		h28.564c4.143,0,7.5-3.358,7.5-7.5s-3.357-7.5-7.5-7.5h-450c-4.143,0-7.5,3.358-7.5,7.5s3.357,7.5,7.5,7.5h28.564v35H7.501
		c-4.143,0-7.5,3.358-7.5,7.5c0,4.142,3.357,7.5,7.5,7.5h121.507v180.08c-7.709-15.036-22.505-25.851-39.955-28.014
		c-3.042-9.976-12.329-17.256-23.287-17.256h-50.5c-3.89,0-7.778,0.96-11.246,2.778c-3.669,1.923-5.084,6.456-3.161,10.125
		c1.339,2.556,3.945,4.013,6.643,4.016c1.176,0.001,2.368-0.271,3.481-0.854c1.347-0.706,2.788-1.064,4.283-1.064h50.5
		c5.151,0,9.343,4.191,9.343,9.343v37.12H7.501c-4.143,0-7.5,3.358-7.5,7.5s3.357,7.5,7.5,7.5h28.564v35H7.501
		c-4.143,0-7.5,3.358-7.5,7.5s3.357,7.5,7.5,7.5h450c4.143,0,7.5-3.358,7.5-7.5s-3.357-7.5-7.5-7.5h-28.564v-35H457.501z
		 M374.894,301.781v28.857h-28.858C349.015,316.176,360.432,304.76,374.894,301.781z M162.023,345.638v35h-47.979v-35H162.023z
		 M310.953,330.638h-28.859l0-28.857C296.557,304.759,307.974,316.176,310.953,330.638z M267.094,330.638h-69.187v-37.12
		c0-5.152,4.191-9.343,9.344-9.343h50.5c5.152,0,9.344,4.191,9.344,9.343L267.094,330.638z M182.908,330.638h-28.858
		c2.979-14.462,14.396-25.878,28.858-28.857V330.638z M177.023,345.638h47.979v35h-47.979V345.638z M240.001,345.638h47.979v35
		h-47.979V345.638z M302.98,345.638h47.979v35H302.98V345.638z M240.001,119.365v-35h47.979v35H240.001z M177.023,119.365v-35
		h47.979v35H177.023z M114.044,119.365v-35h47.979v35H114.044z M302.98,84.365h47.979v35H302.98V84.365z M413.937,119.365h-47.979
		v-35h47.979V119.365z M51.066,84.365h47.979v35H51.066V84.365z M320.994,134.365v180.08c-7.709-15.036-22.505-25.851-39.955-28.014
		c-3.042-9.977-12.33-17.256-23.288-17.256h-50.5c-10.958,0-20.246,7.28-23.288,17.256c-17.45,2.163-32.245,12.978-39.955,28.014
		v-180.08H320.994z M118.967,330.638H90.109v-28.857C104.57,304.76,115.988,316.176,118.967,330.638z M51.066,345.638h31.533
		c0.02,0,16.445,0,16.445,0v35H51.066V345.638z M413.937,380.638h-47.979v-35h47.979V380.638z"/>
	<path d="M232.493,258.91c28.062,0,50.891-22.822,50.891-50.874c0-28.062-22.829-50.891-50.891-50.891
		c-28.053,0-50.875,22.83-50.875,50.891C181.618,236.088,204.441,258.91,232.493,258.91z M268.384,208.036
		c0,19.781-16.101,35.875-35.891,35.875c-19.781,0-35.875-16.093-35.875-35.875c0-19.791,16.094-35.891,35.875-35.891
		C252.283,172.145,268.384,188.245,268.384,208.036z"/>
	<path d="M13.208,184.768c6.84-8.022,16.79-12.624,27.3-12.624c19.79,0,35.89,16.101,35.89,35.891
		c0,19.782-16.1,35.875-35.89,35.875c-10.511,0-20.462-4.598-27.301-12.615c-1.482-1.737-3.587-2.626-5.706-2.627
		c-1.722-0.001-3.454,0.583-4.867,1.789c-3.151,2.688-3.527,7.422-0.839,10.574c9.693,11.363,23.804,17.88,38.713,17.88
		c28.061,0,50.89-22.822,50.89-50.875c0-28.062-22.829-50.891-50.89-50.891c-14.909,0-29.02,6.521-38.714,17.891
		c-2.688,3.152-2.311,7.886,0.841,10.573c1.413,1.205,3.144,1.789,4.866,1.788C9.62,187.396,11.726,186.507,13.208,184.768z"/>
	<path d="M451.795,231.296c-6.839,8.017-16.79,12.615-27.301,12.615c-19.79,0-35.891-16.093-35.891-35.875
		c0-19.791,16.101-35.891,35.891-35.891c10.51,0,20.46,4.601,27.3,12.624c1.482,1.739,3.588,2.628,5.707,2.629
		c1.722,0,3.453-0.583,4.866-1.788c3.151-2.688,3.528-7.421,0.841-10.573c-9.694-11.37-23.805-17.891-38.714-17.891
		c-28.062,0-50.891,22.83-50.891,50.891c0,28.053,22.829,50.875,50.891,50.875c14.909,0,29.02-6.517,38.713-17.88
		c2.688-3.151,2.313-7.885-0.839-10.574c-1.414-1.206-3.145-1.79-4.867-1.789C455.383,228.669,453.278,229.558,451.795,231.296z"/>
</g>
<g>
</g>
<g>
</g>
<g>
</g>
<g>
</g>
<g>
</g>
<g>
</g>
<g>
</g>
<g>
</g>
<g>
</g>
<g>
</g>
<g>
</g>
<g>
</g>
<g>
</g>
<g>
</g>
<g>
</g>
</svg>
