<?xml version="1.0" encoding="iso-8859-1"?>
<!-- Generator: Adobe Illustrator 19.0.0, SVG Export Plug-In . SVG Version: 6.00 Build 0)  -->
<svg version="1.1" id="Capa_1" xmlns="http://www.w3.org/2000/svg" xmlns:xlink="http://www.w3.org/1999/xlink" x="0px" y="0px"
	 viewBox="0 0 415.307 415.307" style="enable-background:new 0 0 415.307 415.307;" xml:space="preserve">
<g>
	<path d="M171.375,101.766c28.052,0,50.874-22.822,50.874-50.875c0-18.91-10.372-35.433-25.716-44.206
		c-0.16-0.104-0.32-0.208-0.49-0.301c-0.067-0.037-0.136-0.064-0.204-0.098C188.575,2.284,180.237,0,171.375,0
		c-28.061,0-50.891,22.83-50.891,50.892C120.484,78.944,143.314,101.766,171.375,101.766z M207.249,50.892
		c0,19.781-16.093,35.875-35.874,35.875c-17.39,0-31.926-12.428-35.198-28.863c20.347-2.33,43.77-13.237,58.467-34.295
		C202.35,30.196,207.249,39.979,207.249,50.892z M181.345,16.421c-11.572,15.675-29.198,24.105-44.923,26.347
		C140.115,26.879,154.379,15,171.375,15C174.834,15,178.177,15.502,181.345,16.421z"/>
	<path d="M373.369,74.583c-6.339-22.128-14.295-39.603-23.645-51.938C338.334,7.619,324.83,0,309.586,0s-28.747,7.619-40.137,22.646
		c-9.351,12.335-17.306,29.809-23.645,51.938c-4.563,15.928-8.267,34.258-10.984,53.923c-4.921,0.739-9.904,1.015-14.904,0.82
		c-3.03-9.996-12.326-17.295-23.299-17.295h-50.5c-10.969,0-20.263,7.294-23.296,17.285c-19.183,0.755-37.782-5.334-52.899-17.471
		c-16.594-13.324-27.007-32.313-29.32-53.468c-0.45-4.117-4.149-7.094-8.271-6.641c-4.118,0.45-7.091,4.153-6.641,8.271
		c2.748,25.139,15.121,47.702,34.84,63.534c16.971,13.626,37.634,20.862,59.089,20.862c0.717,0,1.435-0.013,2.153-0.029v89.689
		c0,12.752,4.841,24.393,12.778,33.189l6.635,126.359l-21.447,7.071c-3.934,1.297-6.071,5.538-4.774,9.472
		c1.04,3.154,3.973,5.153,7.122,5.153c0.779,0,1.57-0.122,2.35-0.379l26.889-8.865c3.212-1.06,5.318-4.138,5.141-7.516
		l-6.283-119.653c6.428,3.049,13.608,4.763,21.183,4.763c7.575,0,14.755-1.713,21.182-4.763l-6.283,119.653
		c-0.177,3.378,1.929,6.457,5.141,7.516l26.889,8.866c0.78,0.257,1.571,0.379,2.35,0.379c3.149,0,6.082-2,7.122-5.153
		c1.297-3.934-0.841-8.174-4.774-9.472l-21.448-7.071l6.635-126.358c7.938-8.796,12.779-20.437,12.779-33.189v-89.692
		c0.695,0.015,1.389,0.028,2.083,0.028c3.307,0,6.606-0.176,9.886-0.521c-2.23,20.538-3.416,42.162-3.416,63.775
		c0,48.427,5.938,96.929,16.292,133.069c6.34,22.128,14.295,39.603,23.645,51.938c11.39,15.026,24.894,22.646,40.137,22.646
		s28.747-7.619,40.138-22.646c9.35-12.334,17.306-29.809,23.645-51.937c10.354-36.141,16.293-84.643,16.293-133.07
		C389.662,159.226,383.723,110.724,373.369,74.583z M164.836,127.03h13.062v99.533h-13.062V127.03z M136.773,136.374
		c0-5.152,4.191-9.343,9.343-9.343h3.719v99.533h-13.063V136.374z M171.366,268.656c-16.499,0-30.328-11.614-33.765-27.093h67.53
		C201.695,257.042,187.865,268.656,171.366,268.656z M205.96,226.563h-13.062V127.03h3.719c5.133,0,9.31,4.161,9.34,9.287
		c0,0.029,0.003,0.058,0.003,0.087V226.563z M260.224,336.591c-9.985-34.854-15.712-81.851-15.712-128.938
		c0-47.088,5.727-94.085,15.712-128.939c7.483-26.118,20.621-56.727,41.862-62.67v383.218
		C280.845,393.318,267.707,362.709,260.224,336.591z M358.949,336.591c-7.483,26.118-20.62,56.728-41.862,62.67V16.043
		c21.242,5.943,34.38,36.552,41.862,62.67c9.986,34.854,15.713,81.851,15.713,128.939S368.935,301.737,358.949,336.591z"/>
</g>
<g>
</g>
<g>
</g>
<g>
</g>
<g>
</g>
<g>
</g>
<g>
</g>
<g>
</g>
<g>
</g>
<g>
</g>
<g>
</g>
<g>
</g>
<g>
</g>
<g>
</g>
<g>
</g>
<g>
</g>
</svg>
